<?xml version="1.0" encoding="UTF-8"?>
<svg id="Layer_1" xmlns="http://www.w3.org/2000/svg" width="35.1" height="30.8" version="1.1" viewBox="0 0 35.1 30.8">
  <!-- Generator: Adobe Illustrator 30.1.0, SVG Export Plug-In . SVG Version: 2.1.1 Build 136)  -->
  <defs>
    <style>
      .st0 {
        fill: #9f5b40;
      }
    </style>
  </defs>
  <path class="st0" d="M27.2.7c-1.2-.9-2.9-.6-3.8.7-.9,1.2-.6,2.9.7,3.8,3.3,2.3,5.4,6,5.4,10.3s-2.1,8-5.4,10.3c-1.2.9-1.5,2.6-.7,3.8s2.6,1.5,3.8.7c4.6-3.2,7.7-8.7,7.7-14.8S31.8,4,27.2.7ZM2.4,10c-1.2,0-2.2,1-2.2,2.2v6.5c0,1.2,1,2.2,2.2,2.2h3.3l3.7,4.6c.4.5,1,.8,1.7.8h0c1.2,0,2.2-1,2.2-2.2V6.8c0-1.2-1-2.2-2.2-2.2h0c-.7,0-1.3.3-1.7.8l-3.7,4.6h-3.3ZM19.8,19.9c0,1.5,1.4,2.5,2.6,1.6,1.8-1.4,2.9-3.6,2.9-6s-1.1-4.6-2.9-6c-1.1-.9-2.6.1-2.6,1.6v8.8h0Z"/>
</svg>