<?xml version="1.0" encoding="UTF-8"?>
<svg id="Layer_1" xmlns="http://www.w3.org/2000/svg" width="52" height="48" version="1.1" viewBox="0 0 52 48">
  <!-- Generator: Adobe Illustrator 30.1.0, SVG Export Plug-In . SVG Version: 2.1.1 Build 136)  -->
  <defs>
    <style>
      .st0 {
        fill: #fff;
      }
    </style>
  </defs>
  <path class="st0" d="M19.7,44.7H4.3c-.6,0-1.1-.5-1.1-1.1v-15.3c0-.6.5-1.1,1.1-1.1h8.9c.6,0,1.1.5,1.1,1.1v8.9c0,.6-.5,1.1-1.1,1.1h-2.4c-.6,0-1.1-.5-1.1-1.1v-2.3c0-.6.5-1.1,1.1-1.1h0c.6,0,1.1-.5,1.1-1.1v-1c0-.6-.5-1.1-1.1-1.1h-4.3s0,0,0,0h-.1v10c0,.6.5,1.1,1.1,1.1h2.1s4.7,0,4.7,0h0s2.1,0,2.1,0c.6,0,1.1-.5,1.1-1.1v-15.4c0-.6-.5-1.1-1.1-1.1h-2.1s-11.2,0-11.2,0h0s-3.3,0-3.3,0H0s0,0,0,0v3.3h0v17.6h0v3.3h0s3.3,0,3.3,0h0s17.7,0,17.7,0h0s2.1,0,2.1,0c.6,0,1.1-.5,1.1-1.1V1.1C24.1.5,23.6,0,23,0h-1c-.6,0-1.1.5-1.1,1.1v42.5c0,.6-.5,1.1-1.1,1.1Z"/>
  <path class="st0" d="M51.9,44.7h0v-6.1h0c0-.2-.2-.4-.4-.4h-13.5c-.2,0-.4-.2-.4-.4V.4c0-.2-.2-.4-.4-.4h-2.4c-.2,0-.4.2-.4.4v40.5h0c0,.4.2.6.4.6h13.5c.2,0,.4.2.4.4v2.4c0,.2-.2.4-.4.4h-16.8c-.2,0-.4-.2-.4-.4V.4c0-.2-.2-.4-.4-.4h-2.4c-.2,0-.4.2-.4.4v47.1c0,.2.2.4.4.4h2.8s17.7,0,17.7,0h0s3.3,0,3.3,0h0s0,0,0,0v-3.3Z"/>
</svg>