<?xml version="1.0" encoding="UTF-8"?>
<svg id="Layer_1" xmlns="http://www.w3.org/2000/svg" width="205.7" height="146.9" xmlns:xlink="http://www.w3.org/1999/xlink" version="1.1" viewBox="0 0 205.7 146.9">
  <!-- Generator: Adobe Illustrator 30.1.0, SVG Export Plug-In . SVG Version: 2.1.1 Build 136)  -->
  <defs>
    <style>
      .st0 {
        fill: url(#linear-gradient2);
      }

      .st1 {
        fill: url(#linear-gradient1);
      }

      .st2 {
        fill: url(#linear-gradient9);
      }

      .st3 {
        fill: url(#linear-gradient3);
      }

      .st4 {
        fill: url(#linear-gradient6);
      }

      .st5 {
        fill: url(#linear-gradient8);
      }

      .st6 {
        fill: url(#linear-gradient7);
      }

      .st7 {
        fill: url(#linear-gradient5);
      }

      .st8 {
        fill: url(#linear-gradient4);
      }

      .st9 {
        fill: url(#linear-gradient18);
      }

      .st10 {
        fill: url(#linear-gradient13);
      }

      .st11 {
        fill: url(#linear-gradient12);
      }

      .st12 {
        fill: url(#linear-gradient15);
      }

      .st13 {
        fill: url(#linear-gradient16);
      }

      .st14 {
        fill: url(#linear-gradient11);
      }

      .st15 {
        fill: url(#linear-gradient10);
      }

      .st16 {
        fill: url(#linear-gradient17);
      }

      .st17 {
        fill: url(#linear-gradient14);
      }

      .st18 {
        fill: url(#linear-gradient19);
      }

      .st19 {
        fill: url(#linear-gradient21);
      }

      .st20 {
        fill: url(#linear-gradient20);
      }

      .st21 {
        fill: url(#linear-gradient);
      }
    </style>
    <linearGradient id="linear-gradient" x1="38.8" y1="-6.9" x2="62.8" y2="128.1" gradientUnits="userSpaceOnUse">
      <stop offset="0" stop-color="#cda288"/>
      <stop offset="1" stop-color="#e5cec1"/>
    </linearGradient>
    <linearGradient id="linear-gradient1" x1="32.8" y1="-5.8" x2="56.8" y2="129.2" gradientUnits="userSpaceOnUse">
      <stop offset="0" stop-color="#cda288"/>
      <stop offset="1" stop-color="#e5cec1"/>
    </linearGradient>
    <linearGradient id="linear-gradient2" x1="52.8" y1="-9.4" x2="76.8" y2="125.6" gradientUnits="userSpaceOnUse">
      <stop offset="0" stop-color="#cda288"/>
      <stop offset="1" stop-color="#e5cec1"/>
    </linearGradient>
    <linearGradient id="linear-gradient3" x1="14.8" y1="-2.6" x2="38.8" y2="132.4" gradientUnits="userSpaceOnUse">
      <stop offset="0" stop-color="#cda288"/>
      <stop offset="1" stop-color="#e5cec1"/>
    </linearGradient>
    <linearGradient id="linear-gradient4" x1="7" y1="-1.2" x2="31" y2="133.8" gradientUnits="userSpaceOnUse">
      <stop offset="0" stop-color="#cda288"/>
      <stop offset="1" stop-color="#e5cec1"/>
    </linearGradient>
    <linearGradient id="linear-gradient5" x1="57.8" y1="-10.3" x2="81.8" y2="124.7" gradientUnits="userSpaceOnUse">
      <stop offset="0" stop-color="#cda288"/>
      <stop offset="1" stop-color="#e5cec1"/>
    </linearGradient>
    <linearGradient id="linear-gradient6" x1="75.3" y1="-13.4" x2="99.3" y2="121.6" gradientUnits="userSpaceOnUse">
      <stop offset="0" stop-color="#cda288"/>
      <stop offset="1" stop-color="#e5cec1"/>
    </linearGradient>
    <linearGradient id="linear-gradient7" x1="32.3" y1="-5.7" x2="56.3" y2="129.3" gradientUnits="userSpaceOnUse">
      <stop offset="0" stop-color="#cda288"/>
      <stop offset="1" stop-color="#e5cec1"/>
    </linearGradient>
    <linearGradient id="linear-gradient8" x1="44.1" y1="-7.8" x2="68.1" y2="127.2" gradientUnits="userSpaceOnUse">
      <stop offset="0" stop-color="#cda288"/>
      <stop offset="1" stop-color="#e5cec1"/>
    </linearGradient>
    <linearGradient id="linear-gradient9" x1="54" y1="-9.6" x2="78" y2="125.4" gradientUnits="userSpaceOnUse">
      <stop offset="0" stop-color="#cda288"/>
      <stop offset="1" stop-color="#e5cec1"/>
    </linearGradient>
    <linearGradient id="linear-gradient10" x1="73.2" y1="-13" x2="97.2" y2="122" gradientUnits="userSpaceOnUse">
      <stop offset="0" stop-color="#cda288"/>
      <stop offset="1" stop-color="#e5cec1"/>
    </linearGradient>
    <linearGradient id="linear-gradient11" x1="11.6" y1="-2" x2="35.6" y2="133" gradientUnits="userSpaceOnUse">
      <stop offset="0" stop-color="#cda288"/>
      <stop offset="1" stop-color="#e5cec1"/>
    </linearGradient>
    <linearGradient id="linear-gradient12" x1="39.6" y1="-7" x2="63.6" y2="128" gradientUnits="userSpaceOnUse">
      <stop offset="0" stop-color="#cda288"/>
      <stop offset="1" stop-color="#e5cec1"/>
    </linearGradient>
    <linearGradient id="linear-gradient13" x1="43.7" y1="-7.7" x2="67.7" y2="127.3" gradientUnits="userSpaceOnUse">
      <stop offset="0" stop-color="#cda288"/>
      <stop offset="1" stop-color="#e5cec1"/>
    </linearGradient>
    <linearGradient id="linear-gradient14" x1="30.9" y1="-5.5" x2="54.9" y2="129.5" gradientUnits="userSpaceOnUse">
      <stop offset="0" stop-color="#cda288"/>
      <stop offset="1" stop-color="#e5cec1"/>
    </linearGradient>
    <linearGradient id="linear-gradient15" x1="39.2" y1="-6.9" x2="63.2" y2="128.1" gradientUnits="userSpaceOnUse">
      <stop offset="0" stop-color="#cda288"/>
      <stop offset="1" stop-color="#e5cec1"/>
    </linearGradient>
    <linearGradient id="linear-gradient16" x1="30.4" y1="-5.4" x2="54.4" y2="129.6" gradientUnits="userSpaceOnUse">
      <stop offset="0" stop-color="#cda288"/>
      <stop offset="1" stop-color="#e5cec1"/>
    </linearGradient>
    <linearGradient id="linear-gradient17" x1="82.2" y1="-14.6" x2="106.2" y2="120.4" gradientUnits="userSpaceOnUse">
      <stop offset="0" stop-color="#cda288"/>
      <stop offset="1" stop-color="#e5cec1"/>
    </linearGradient>
    <linearGradient id="linear-gradient18" x1="75.6" y1="-13.4" x2="99.6" y2="121.6" gradientUnits="userSpaceOnUse">
      <stop offset="0" stop-color="#cda288"/>
      <stop offset="1" stop-color="#e5cec1"/>
    </linearGradient>
    <linearGradient id="linear-gradient19" x1="81.7" y1="-14.5" x2="105.7" y2="120.5" gradientUnits="userSpaceOnUse">
      <stop offset="0" stop-color="#cda288"/>
      <stop offset="1" stop-color="#e5cec1"/>
    </linearGradient>
    <linearGradient id="linear-gradient20" x1="77.1" y1="-13.7" x2="101.1" y2="121.3" gradientUnits="userSpaceOnUse">
      <stop offset="0" stop-color="#cda288"/>
      <stop offset="1" stop-color="#e5cec1"/>
    </linearGradient>
    <linearGradient id="linear-gradient21" x1="58.4" y1="-10.4" x2="82.4" y2="124.6" gradientUnits="userSpaceOnUse">
      <stop offset="0" stop-color="#cda288"/>
      <stop offset="1" stop-color="#e5cec1"/>
    </linearGradient>
  </defs>
  <g id="xEFnKq.tif">
    <g>
      <path class="st21" d="M71.2,14c-6.4,0-5.9,2.6-10-2.2-3.2,1.1-6.1,3.4-8,6l.4,2c0,.5-1.2.6-1.7.6-4-.1,5.1-12.2,9.3-11.3l8.4,2c.5,0,1.3-1.6,1.1-2.1l-1.5-2.2c-2.1,1-4.8,1.7-6-.2s-5.9-.5-8,1.3c-8.4,7.6,0,9.1-9.8,12.8s-2.2,3.1-2,5c.6,4.3,6.7,4.2,7.1,4,.7-.1,1.2-1.8,2-2.4s.7,2.1.5,2.7-1.3,2-2.2,1.8c-2-.2-4-1.6-5.5-2.8l-3.2,5.3-1.8-.2c-2-.2,2.3,7.5-1.3,9.7s-3.9,1.6-3.9,3.7.5,4,3.1,4.5l-1.5,2.9c-.4.6,1,2.1,1.2,2.8l.5,1.3c1.3,3.3-8-4.2-4.9-21-5.9-3.3-16.3-10.2-20.2-2.2-7.5,15.2-10.5,31.4-9.8,48.2.1,3.1-.1,5.8,2.7,7.8,2.8,2.1,5.3,1.5,8,.1l13.3-6.4c4.4-2.1,8-7,13.5-6.2,1.6.2,12.8,5.3,4.4-.9s1.8-1.7,2.8-1.6,2.2,1.3,2.1,2.2-.9,2.9-1.6,3.5c-2.6,2.2-5.3-.5-7.7-1.7-.6,5-9.1,2.3-7.6,3.9s.9.7.6.9h-2c-.5.1-1.3,0-1.3.2l.4,1.8c-6.6,0-9.5,4-18,7.6-1.1.5-4,.2-4.6,1.2C4.8,102.6,0,115.8,3.2,124.1c2.9,7.6,11.7,11.5,19.8,10.6,2.6-11.5,7.7-22.6,15.3-30.5s1.5-.9,1.7-.7l1.6.9c.4.2-.7,1.6-1.2,1.8-1.5.5-2.7,2.8-3.7,4.2-5.9,7.6-9.2,17.4-11.5,26.4-6.1,2.4-11.7-2.1-16.6-3.7s-6.2-3.8-7.7-8.6c-2.7-8.9-2.4-18.2,3.1-26.9-6.4-15.3-2.6-11.6-3.8-27.3s2.2-15.3,1.8-13.8c.2-.9,1.8-1.6,2.7-2.1-1.2-.5-3.5-2.8-3.3-2.8l2.3-.2c.2,0,1.5-2.3,1.3-3.1-.6-5.5,4.5-17,10.8-19.6s13,0,13.5,4.6c.7-.6,2.1-1.7,2.8-1.7s1.7,1.3,2.6,2.4c2-2.1,2.1-5.4-.2-7.7l1.8-.5-2.2-2.8c-.5-.6.6-2.1.7-3.1l.2-8.4c0-.9,2.7.6,2.8,1.3.4,1.2-4.6,3.3,1.6,17.6,6.2,14.3,2.3,0,2.4-.5.7-4.6-2-8.7,1-10.5s5.9-4.9,7.5-8.8c3.4-8.4,13.1-8.8,20.6-5.9C67.8.9,60.8,2,57.4,0s1-1.5,1.6-1.5l10,.7,3.5,5-.4-4.3c3.3,2.6,5.5,5.4,7.7,8.7l-3.8.6c1.8,2.6,1.1,4.4.5,7.5s6.6,6.9,5,10.8-2.9,1.6-4.5,2.2c1.6.4,5.5.6,7-.7s1-3.5,1.3-5c1.3,1.8,1.6,4,1.3,6.7-.7,6.7,2.8-1.5-1.1,10.8,4.5-2.1,1.6-9.4,8.4-8.8s4,1,4.4,2.9-2.2,3.3-4,5.1l7-1.5-.6-7.2c-4.2-.9-7.6-.5-12,0,1.6-6.2,17.4-3.4,18.5.6,1.3,5.1.9,11,.4,16.5-.5,5.5-9.3,8-7,11.4s-.7,4.8-.7,7-1,3.1-3.9,3.7-3.7-.5-4.5-1.8c2.9-.2,5.1-.2,6.5-1.7-4.5-1-9.7.1-13.6-2.3s-1.5-4.5-2-6.1c-.2,2.6-.1,4.2-.7,5s-2.7,1.2-3.5.9-2.6-2.8-2-4,2.2-2.7,3.8-4l-2.4-.9c-.7-.2-.9,1.8-1.3,3.3l-4.4-4c2.4-1.1,3.2-1.2,3.9-1.8s1.2-3.3,1-4c-2.7,4.4-7.5,4.9-12.4,3.1-.4,2.6-.7,5.5-2.2,7.5s-4.2,2-6.2,1c-.7,3.2-2.7,8.9-4.2,9.4s-2.9-1.5-3.3-2.7c-1.3.9-3.3,2.1-5.3,1.5l3.2-1c-8.2-2.2-7.5,2.3-8.2,2.3h-1c-.5,0-1.1-2.3-1.5-2.2-3.5,1.6-10.3,4.9-13.5,7.1s1.1,1.3,1.3,1.5.2.4,0,.6l-1.1.9c-.2.2-.6-1.6-1-1.3l-2.8,1.7,1,1.2c.2.2-.6,1-.9.9l-2.1-1.1c13.3-19.5,31.8-11.9,34.5-13.9s1.3-2.1,1.5-2.8c-5.1,2.3-11.1.4-14.7-3.9,4,0,7.6,2.8,10.9.4,1-.7-.2-3.5-1.1-4.8,3.5-.5,3.9,3.1,3.9,6.5.6,0,3.3-1.1,3.2-2.2l-.7-4.4c2.4,1,2.1,2.8,2.4,6.1,1.1-.2,3.2-1.3,4.6-2.2,2.7-1.6-2.1-3.5,1.2-5.1-9.2-2-13.1,5.8-17.6-4.4,2.9,2.1,6,3.1,9.7,2.6,16-2,17.3,2.7,21.2-6.7-2.8-.7-5.5-1.1-7.6-2.6-3.9-2.9,2.4-12.4,1.1-18-4.3,1.5-9.4,2.9-13-.4s.4-5.3,1.6-6.6,4.9-2.4,7.5-2c4.6.9,9.1,5.8,8.9,9.8s-1.2,1.7-1.7,2,.2,2.2.7,2l7.2-2.4c-2.3-6.4-7.5-3.8-6.4-10.8l-3.1.4c-.6,0-.2-1.7-.2-2.4l.4.4ZM71.6,5.5l.7,1.6c0,.2,1.1,0,1-.2l-.9-1.1c-.1-.2-1-.5-.9-.2ZM73,10.3c-.6.4-1.2,2.9-.6,3.1s1.7,0,2.3,0,.7-2.1.1-2.4-1.5-.9-2-.5h.1ZM69.2,21.2c-2-1.8-4.3-2.8-6.4-2.2s-3.4,2.7-4.3,4.6c4.2.5,7.5,0,10.6-2.4ZM75.4,31l-3.4-1.2c-.6-.2-.6,2.2,0,2.1l3.4-.9ZM74.6,39.9c-.4,0-.4-2-.5-2.3s-.7.4-.9.6c-1.1,1.6-5.5-1.6,7.8-6.5-4.3-1.8-10.4,2.8-10.6,6.9s11,6.2,12.8-.5c-2.8,1-6.6,2.2-8.7,1.7h0ZM83.1,31.6l-.9,2c0,.2,1,.7,1.1.5l.5-1.6c0-.2-.6-1.1-.7-.9ZM78.5,36.5c.5.4,2.2,1.3,2.3.7l.2-2.4c0-.6-1.7-.7-2.3-.5l-1.5.5c-.2,0-.2.4,0,.5l1.2,1.2ZM83.2,34.9v2.4c-.1.5,1.5-.1,1.5-.6l-.2-1.3c0-.4-1.2-.9-1.2-.6h0ZM96.5,36.1c-1.7-1.6-4.3-1.7-5.1-.9s-.1,2,.2,2,2.9.5,1-.7l3.9-.5h0ZM101.2,50.9l1.8-1.7c.4-.4,1.7.2,1.6.6l-.5,2c0,.4.7,0,1-.2s.2-1.1.1-1.3c-1.7-6.4-.6-7.8-.4-14.1s-1.5-.6-1.5-.2l-.9,12c-3.2-2.8-5.3-4.6-8.2-6.6l-1.6,4.8c3.7.7,6.5,2.1,8.4,4.9ZM70.7,41.5l-1.7-4-.2,2.8c0,.5,1,.9,2,1.1h0ZM36,39.3c-.4.6,0,3.1.5,2.8l2-.9c.6-.2.1-1.3-.2-1.7s-2-.6-2.2-.1h0ZM91.8,39.7c-.5.6-.9,1.6-.5,1.7l1.6.6c.7.2-.6-2.8-1-2.2h-.1ZM95.3,49c-3.8-1.5-6.4-2.7-7.6-5.9-.1.6.7,2.1.2,2.2l-2.6.5c4.3.7,5.8,5.6,10,3.2h-.1ZM81,45.2c.2,0,1.1-.6,1-.9s0-.4-.4-.4h-1.1l-1.5.4c-.2,0,.4.6.6.6h1.3v.2ZM89.1,50.7c-.6-1.6-1.5-2.4-2.7-3.1.2,1.5,1.2,2.6,2.7,3.1ZM98.6,50.7l.9,1.6c0,.2,1.1,0,1-.2l-.9-1.1c-.1-.2-1-.5-.9-.2h-.1ZM98.2,61.5l.9-7.3c-2.6-.2-7.3-2.2-9.8-.2s-2,7.7-2.3,11.6l7.2.4c.9,0,2.6-.4,3.2-.9s.9-2.3,1-3.5h-.1ZM83.7,54c0,.6.4,1.7.6,1.5l.7-1.5c0-.2-1.3-.1-1.3,0ZM79.8,62.9c.5,0,1.7-.9,1.5-1l-1-.5h-1.1l-1.7.6c-.2,0-.2.4,0,.4l2.2.4h.1Z"/>
      <path class="st1" d="M27.9,141c5.9-3.3,13.3,6.4,17.1,1.1s-2.9-6.4-5.8-8.8.9-2.2,1.5-2.2h2.8c.6-.1.9-2.1.4-2.3-.7-.4-1.8-1.3-1.6-2s1.5-1.2,2.3-1.7l1.7-1c.5-.2,1.5,1.3,1.1,1.6l-2.1,1.7,3.8,2.8-3.2,1.7c-.6.4.5,2.2,1.1,2.8,4.6,5.9,6.6,11.7,10,10.3s2.1-2.9,1.7-4l-4.6-17.4c-.6,1.5-1.1,2.8-1.6,3.5s-3.1.6-3.7.4l3.4-3.1c-2.3-.9-4.3-3.8-3.4-5.1s1.3-.4,1.6-.5.4-.9.1-1l-1-.2,1-4.6-7.2,10.2c-2.2,3.2-4.3,5.9-6.2,9.3-3.1-6.6,21.7-23,11.9-34.8,2.2-.5,4.2-1.5,4.9-2.7-1.8.4-3.4.7-4,.7,2.7-2.3,6.2-5.4,8.3-7.7s2.4,1.1,2.4,1.8c0,3.2-6.7,5.8-6.1,9.3s1,6.9-.4,10.4c-3.7,9.8,4.6,13.1,7.5,32.3.6,3.9,8.1-4.3,14.3,1.3l1.1-1.8c2,2.1,4.2,1.7,7.2,1.3-1.6,3.9-5.9,3.4-8.9,2-7.1-3.4-3.4-.7-14.3-.2l7.7,3.2.6-2.2c.4-1.1,12.4,6.6,15.9-1.5s-.2-2.3-.6-4.2c2.6,2.1,6,4.6,6.4,7.5s0,9.7-3.3,10.3c-9.9,1.8-19.8-.6-29.4-3.1s-5.8-.2-7.7-1.2c-3.7-1.7-4.4-7.2-3.5-10.5-3.4,5.8-13,.2-19-1.8h-.2ZM86.6,146.1c-.6.6-1.8,1.7-1.5,1.6l2.1-.6c.5,0-.4-1.3-.7-1.1h.1ZM57.9,149.7c-2.1-1.6-5.8-2.9-7.6,0,2.7.4,5,.2,7.6,0ZM69.7,151.9c-1.7-1.1-3.3-1.5-5.1-1.6,1.3,1.3,3.3,3.8,5.1,1.6ZM71.8,151.4v1.6c-.1.2.6.4.7,0l.2-1.5c0-.2-1-.4-1-.1ZM81.8,153.2c2.3,1,4.2.2,5.4-1.8-1.8.1-3.7.7-5.4,1.8Z"/>
      <path class="st0" d="M77.8,125.6l1.5-.7c.4-.1,1,.5.9.9l-.9,1.6c-.4.7,2.1-1.2,2.2-2.2.9-9.4.5-20.2-2-29.9,5.1-1.3,4.8,25.1,4.6,27.9s-1.5,4.5-2.6,5.6-4.2,1.5-5.9,1.6v1.2c.1.4,0,1.1-.2,1l-1.8-.7c-4.2-1.7-4-6.2-5-10.6-.9,3.2-.4,6.7,1.3,9.9-2.9-.9-3.9-3.9-3.9-7,0-7.6.5-14.8,0-22.5s-2.7-6-3.3-8.9c3.1,0,3.9,2.9,4.8,5.5l.4,1.2c0,.2.2.1.4,0l.9-.7,5.1,8.1c2.6,4.2,1.7,8.3-1.8,11.3,1-.6,1.7-1.1,2-1.6s2.7-.5,2.6.4c-.2,2.4-3.4,3.7-5.5,4.6l6.2-1.2c-1.3,4-4.9,2-7,4.8l7.6-2.6c-.2,3.5-3.3,2.6-5.4,4.4,1.2,0,3.2-.6,4.9-1.3h0ZM72.4,107.7l-3.7-5.9v15.4c1.3-1.1,3.5-2.4,4.3-3.7s.4-4.5-.5-6h-.1ZM72.9,129c-.4.2,1.2,1,1.6.7l1-.6c.4-.2-.6-1.2-1.1-1l-1.5.7h0Z"/>
      <path class="st3" d="M41.6,90.5c.6,1.3-10,5.3-13.3,7.5-5.3,3.5-8.6,8.6-12.5,13.5-1.2-.9-.7-3.1.4-4.5,9.1-11.9,21.8-16.3,22-17s.4-3.1.4-4,1.6-1.3,2.1-1.1l1.8,1c.2.1,1.3.4,1.6.4s.1.4,0,.6l-.6,1.5,6.7-3.2c-2.8,2.7-5.1,4.6-7.8,6.7l-.6-1.6v.4Z"/>
      <path class="st8" d="M17.9,75l-3.9,8.6c-.1.4-2.1.5-2,0s.2-1.5.5-2.1c6.6-16,3.1-18.5,9.3-31.4s2.3.6,2.6,1,.2.9-.1,1.1-1.7,1.2-1.8,1.7l-2.4,9.3,2.2,1c-2.1,3.7-2.4,7-4.3,10.9Z"/>
      <path class="st7" d="M78.8,90.2l-5.9-8.7-2.1-12.5c-.7-4.5-1.5-13.8-5.4-13.7.9-.2,2.1-.6,2.8-.7s1.8,1.5,2,2.3l5.3,24.8c.6,2.8,5.6,4.5,3.1,8.4h.2Z"/>
      <path class="st4" d="M79.5,9.1c1.5,9.2,6.4,10.3,3.9,13.5l-5.1-5.3c-1.5-1.5-.5-6.7,1.2-8.2Z"/>
      <path class="st6" d="M54.3,89.4c-.7,2.1-2.9,4.3-5.5,5.1s-3.5-1.3-4.4-2.4l7.1-5.4c.2,4.2-4,3.2-4.9,6.9,2.9-.5,4.5-2.3,7.8-4.2h-.1Z"/>
      <path class="st5" d="M37.2,2.7c1.1.2,2.2,2.1,3.3,4.2l2.7-6.5c2.4.5,4.4.5,6.9.4l-1.2-1.1c-.2-.2-.1-1,0-1.2,1-1,6.7-.4,6.7,2.1-10.4,1.1-11.6,3.3-18,11.5.6-3.7.7-5.4-.5-9.4h.1Z"/>
      <path class="st2" d="M83.1,138.9c-2.7-2.3-4.9-4.6-6.9-7.2,4.5-1,6.9,3.2,6.9,7.2Z"/>
      <path class="st15" d="M91.4,69.5c-2,2.3-5.8,1.6-7.2-.9,2.4,0,4.5.1,7.2.9Z"/>
      <path class="st14" d="M22,59.4c.6,0,1.5,0,1.3.1l-1,1.3c-.2.4-.9-1.3-.4-1.5Z"/>
      <path class="st11" d="M47.5,46.3c-3.3.5-6.4-3.4-6.4-6,1.8,1.3,3.7,2.8,5.1,3.3,1.5.5,4.9-.6,5.4-2.2.9-2.8.2-5.6.1-8.7,4.9,2.3,1.8,12,1.6,11.9l-1.7-.4c-1-.2-2.9,1.7-4.3,2h.1Z"/>
      <path class="st10" d="M46,25c0-1.6,2.7-.7,3.9.1l1.6-4.6c2.1,2,1.2,5.8-.7,6.9s-4.9-.2-4.8-2.3Z"/>
      <path class="st17" d="M44.7,56.4c-.5,1-2.2,2.2-3.2,2.1s-3.2-1.5-3.1-2.8c1.3.1,3.5,1.2,3.9.2s.6-2.8,1-4.9c1.2.6,2.1,3.4,1.3,5.4Z"/>
      <path class="st12" d="M45.9,35.8c1.1-.6,2.9,0,3.7.9s-.1,2.9-1.2,3.3-2.1,0-3.2-.5-1.1-2.6.7-3.5h0Z"/>
      <path class="st13" d="M36.3,49.1l5.6-1.1-.7-2.4c-.1-.5,1.2-1,1.6-.5,1.2,1.5,0,3.8-1.2,4.6s-3.5,1-5.3-.7h0Z"/>
      <path class="st16" d="M95.4,59.3c-.6.4-1.2.9-1.5,1.2s-2.4-.5-2.2-1c.7-1.5,3.2-4.2,4.9-4.5s2.2,2.3,1.7,2.6l-2.8,1.7h-.1Z"/>
      <path class="st9" d="M89.7,64.8c-3.5-1.3-1.8-4.4.2-5.9.6,1.8.6,3.8-.2,5.9Z"/>
      <path class="st18" d="M95.2,61.5c.4-.4,1.6.4,1.8.9s-.2,2.2-.9,2.1l-2.2-.6c-.6-.1.6-1.8,1.1-2.3h.1Z"/>
      <path class="st20" d="M89.1,55.1c.4-.2,1.8.2,1.7.6l-.5,1.8c0,.4-1.3.2-1.7,0s0-2.1.5-2.4Z"/>
      <path class="st19" d="M67.8,21.1c-2.2,1.5-4.6,1.8-7.2,1.5,2.1-1.3,4.3-2.2,7.2-1.5Z"/>
    </g>
  </g>
</svg>