<?xml version="1.0" encoding="UTF-8"?>
<svg id="Layer_1" xmlns="http://www.w3.org/2000/svg" width="205.7" height="146.9" xmlns:xlink="http://www.w3.org/1999/xlink" version="1.1" viewBox="0 0 205.7 146.9">
  <!-- Generator: Adobe Illustrator 30.1.0, SVG Export Plug-In . SVG Version: 2.1.1 Build 136)  -->
  <defs>
    <style>
      .st0 {
        fill: url(#linear-gradient2);
      }

      .st1 {
        fill: url(#linear-gradient1);
      }

      .st2 {
        fill: url(#linear-gradient9);
      }

      .st3 {
        fill: url(#linear-gradient3);
      }

      .st4 {
        fill: url(#linear-gradient6);
      }

      .st5 {
        fill: url(#linear-gradient8);
      }

      .st6 {
        fill: url(#linear-gradient7);
      }

      .st7 {
        fill: url(#linear-gradient5);
      }

      .st8 {
        fill: url(#linear-gradient4);
      }

      .st9 {
        fill: url(#linear-gradient13);
      }

      .st10 {
        fill: url(#linear-gradient12);
      }

      .st11 {
        fill: url(#linear-gradient15);
      }

      .st12 {
        fill: url(#linear-gradient16);
      }

      .st13 {
        fill: url(#linear-gradient11);
      }

      .st14 {
        fill: url(#linear-gradient10);
      }

      .st15 {
        fill: url(#linear-gradient17);
      }

      .st16 {
        fill: url(#linear-gradient14);
      }

      .st17 {
        fill: url(#linear-gradient);
      }
    </style>
    <linearGradient id="linear-gradient" x1="73.8" y1="-19" x2="113.4" y2="110.8" gradientUnits="userSpaceOnUse">
      <stop offset="0" stop-color="#cda288"/>
      <stop offset="1" stop-color="#e5cec1"/>
    </linearGradient>
    <linearGradient id="linear-gradient1" x1="66.7" y1="-16.8" x2="106.3" y2="113" xlink:href="#linear-gradient"/>
    <linearGradient id="linear-gradient2" x1="166.7" y1="-47.4" x2="206.3" y2="82.4" xlink:href="#linear-gradient"/>
    <linearGradient id="linear-gradient3" x1="161.9" y1="-45.9" x2="201.5" y2="83.9" xlink:href="#linear-gradient"/>
    <linearGradient id="linear-gradient4" x1="166.3" y1="-47.3" x2="205.9" y2="82.5" xlink:href="#linear-gradient"/>
    <linearGradient id="linear-gradient5" x1="134" y1="-37.4" x2="173.6" y2="92.4" xlink:href="#linear-gradient"/>
    <linearGradient id="linear-gradient6" x1="119.1" y1="-32.9" x2="158.7" y2="96.9" xlink:href="#linear-gradient"/>
    <linearGradient id="linear-gradient7" x1="123.8" y1="-34.3" x2="163.4" y2="95.5" xlink:href="#linear-gradient"/>
    <linearGradient id="linear-gradient8" x1="114.2" y1="-31.4" x2="153.8" y2="98.4" xlink:href="#linear-gradient"/>
    <linearGradient id="linear-gradient9" x1="101.8" y1="-27.6" x2="141.4" y2="102.2" xlink:href="#linear-gradient"/>
    <linearGradient id="linear-gradient10" x1="107.9" y1="-29.4" x2="147.5" y2="100.4" xlink:href="#linear-gradient"/>
    <linearGradient id="linear-gradient11" x1="104.5" y1="-28.4" x2="144.1" y2="101.4" xlink:href="#linear-gradient"/>
    <linearGradient id="linear-gradient12" x1="127.6" y1="-35.4" x2="167.2" y2="94.4" xlink:href="#linear-gradient"/>
    <linearGradient id="linear-gradient13" x1="96.2" y1="-25.9" x2="135.9" y2="103.9" xlink:href="#linear-gradient"/>
    <linearGradient id="linear-gradient14" x1="30.6" y1="-5.8" x2="70.2" y2="124" xlink:href="#linear-gradient"/>
    <linearGradient id="linear-gradient15" x1="37.8" y1="-8" x2="77.4" y2="121.8" xlink:href="#linear-gradient"/>
    <linearGradient id="linear-gradient16" x1="10.3" y1=".4" x2="49.9" y2="130.2" xlink:href="#linear-gradient"/>
    <linearGradient id="linear-gradient17" x1="47.9" y1="-11.1" x2="87.5" y2="118.7" xlink:href="#linear-gradient"/>
  </defs>
  <g id="ppGQaf">
    <g>
      <path class="st17" d="M5.8.8c2.8,1,5.6,2.2,8.2,3.7,4.6,2.6,9.2,5.3,14.5,6-1.9-1.1-3.6-2.3-5.4-3.6-3.4-2.4-6.9-4.3-10.5-6.2h2.2c3.3,1.7,6.5,3.6,9.5,5.8s3.5,2.1,5.4,3.1c5.6,2.7,11.2,4.7,17.3,6.1s6.1,1.4,9.3,1.7,2.9.4,4.4.6c2.5.4,5,.3,7.6.3,9.7.2,15.9-1.3,25.1-3.6s6.1-1.5,9.3-2.1,8-1.3,12-1.7,1.2,0,1.9,0c-.6.4-1.1.7-1.8.8l-5.6,1c-5.4.9-10.6,2-16,3.3l-7.9,1.9c-4,.9-8,1.6-12.1,1.6h-10.7c3,2.3,3.5,5.2,3.3,8.7l9.1.7,2.8.2c3.7.3,7.1,0,10.6-1.3l6-2.1c4.8-1.6,9.7-2.9,14.6-4.1s2.6-.5,3.9-.5c-.9.7-1.9,1.1-3,1.4-4.8,1.2-9.4,2.5-14.1,4.1l-7.2,2.4c-3.6,1.2-7.3,1.7-11.1,1.3l-8.3-.7c-1.2-.1-2.3-.1-3.5-.1-.4.7-.7,1.4-.9,2.2,1,1.4,1.9,2.6,2.8,4s1,.8,1.5,1c4.7,2.4,10.9,3,16.3,2.2-4.4,2.1-13.2.6-17.3-2,.3,1,.4,1.8.5,2.7,2.7,1.3,5.6,1.9,8.7,1.8,5.7,0,10.9-2.2,16.1-4.3s8.8-3.4,13.5-4.5,4.4-1.1,6.6-1.9,1.3-.6,2.2-.2c-1,1.5-5.4,2.6-7,2.9-3.8.8-7.3,2-10.9,3.4l-6.7,2.7c-4.5,1.8-11.8,3.6-16.6,3.2-2.8-.2-5.3-.9-7.7-2.4-.8.1-1.5.4-2.3.6,2.4,3.5,3.5,7.4,3.7,11.5s.7,1.4,1.3,1.8c2.7,2,5.4,1.5,7.8,2.9s1.5,2.1.7,3.2-1.4,1.5-2.2,2.2c-1.5,1.2-3.1,1.6-5.2,1.7.6,1.7,2.5,2.4,1.3,4l.9,1.2c.2.3.3.9.2,1.2-.1.4-.5.8-1,.9l-1.4.5c.4,1.6.5,2.8.3,4.3,2.3,0,2.4-.6,4.9.3s2.5.4,3.7.2c3.8-.7,7.5-.8,11.4-.7,5.6.1,10.8,1.1,16,3.2s6.2,2.7,9.1,4.5c2.2,1.4,3.9,1.3,6.3,0s5-2.7,7.7-3.8l9.9-4.2c3.3-1.4,8.1-3.2,11.6-3.1l1.7-1.7c3.6-3.6,7.5-6.9,12.7-7.8s5.5-.7,8.3-.5.7,0,.8-.3c1-1.2,1.8-2.4,2.5-3.8s0,0-1.1-.9c-2.4-2.2-4.6-4.4-6.8-6.7-.6-.6-.6-1.4,0-2,.8-.9,1.5-1.8,2.1-2.9s1-2.3.6-3.4c-.7-1.9-1.1-3.7-1.5-5.7-.7-3.3-1.1-6.5-.4-9.8s1.4-6.7,2.7-10,2.9-4.6,5-6.5,3.2-2.2,5.3-2.7c1.1-3.1-1.8-4.7-2.3-7.3h1c1.2,2.6,2.6,3.5,3,7h4.1c.5-2.3-.4-4.9-1.1-7h1.3c.5,1.1,1.5,2,2.7,2.7,4.4,2.5,6.6,4.8,9.7,8.6v1.9c-2.6-3.9-6-7-10.1-9.5l-1.8-1.1.5,4.4c.9.3,2,.7,2.8,1.3,1.5,1.1,3,2.1,4.6,3s2.8,1.9,4.1,3v1.7l-1.9-1.9c-4.7-4.4-16.4-5.5-22.2,1.2-.4.5-.9.9-1.3,1.3.3-1.2,1.1-2.2,2-3.1,3.4-3.2,8.8-4.5,13.4-3.7s1.3.2,2,.2c-.8-.7-1.5-1.2-2.5-1.5-4-1.1-8.4-.6-11.9,1.8s-4.2,4-5.3,6.6-2.4,6.5-2.8,10,0,5.8.3,8.8c.5,3.7,2,7.2,4.8,9.8s3.6,3,5.7,4.1c6.3,3.5,13.7,2.3,19.8-.9v1.2c-1.3.3-.8,1.3-2.2,3.9s-4,6.7-6.4,9.8c-1.7,2.2-4.2-.8-6.1-1.6l-4.3,5.8c1.6.4,5.1.8,5.1,2.8s-.6,1.5-1.2,2.1c1.1.8,1.4,2.2.5,3.3s-.9,1-1.4,1.4c.5.5,1.1,1.1,1.2,1.8s-.7,1.6-1.4,2c-3.1,1.4-6.2,1.1-7.1,1.4s-.3.4-.3.7c-.5,3.7,1.5,5.5.4,9.5s-5.5,5-9.2,5c-.4,4.2-2.8,8.3-4.7,12l-1.7-.2c-.4,1.6-.8,3.1-1.3,4.7-1.2,3.8-3,7.2-4.7,10.7l-4.4,9c-.5,1-2.3,4.9-3,5.2s-.5-.4-.4-.6c.2-1,.6-2,1.1-3l5.5-11c2.6-5.1,4.7-10.3,6.5-15.9-1.5-1-3-1.9-4.8-2.7-1.2,4.7-2.8,9.1-5.2,13.4l-6.4,11.5-3.8,6.9c0,.2-.4.3-.5.4s-.5,0-.5-.2c-.1-.4,0-1.1.2-1.5l6.7-12.5,4.2-7.8c1.3-2.4,2.4-4.7,3.4-7.2s.7-2.8.5-4.3c2-3.1,3.9-6.1,5.6-9.3s.2-.9-.1-1.2c-.7-.8-1.2-1.7-1.6-2.6-1.7.9-3.4,1.5-5.3,1.9.3,7.2.3,14.8-3.1,21.3s-4.1,6.3-6.7,9.1-6.9,6.7-11.2,8.9c-1.6.8-3.3,1.4-5,2.1s-5.5,3.6-7.5,2.3c3.8-1.2,6.9-3.1,9.7-5.9s6.2-7.3,8.5-11.7,3.5-7.3,4.9-11.1c1.7-4.5,2.7-9.1,2.9-13.9s-.2-.8-.7-1.1l.6-10c.1-2-.6-6.5-.4-9.3-1.7.4-3.4,1-5.1,1.6.5,2.8.7,5.2.5,7.9,0,6.9-.6,13.8-3.3,20.1s-.4.9-.5,1.4c1.9,0,3-4.7,2.9-6.2,2,2.8-4.2,13.3-5.8,15.2l-2.6,3c-2.1,2.5-3.9,5-6.3,7.2-3,2.7-6,5.5-9.3,8.1,1.9,2.7,3.7,5.4,5.1,8.4s.5,1.4.5,2.3c-.6-.2-1-.6-1.3-1.1l-3.2-5.5c-2.3-3.8-5.3-6.8-9-9.3-6.1-4-13.2-6.9-20.6-7.6-4-.4-7.9-.4-12-.2-7.2.3-14.2,1-21.4,1.9.2,2.2.2,5.3,1.1,7.2,7.3-1.6,14.5-2,21.9-1.8,7,.2,13.6,2,19.8,5.3s6.2,4,8.6,7,4.5,5.5,3.5,6.1c-.5-.3-.8-.7-1.1-1.1-1.2-1.6-2.3-3.2-3.7-4.8-2.4-2.7-5.4-4.9-8.7-6.5,3,2.3,5.5,4.8,7.2,8s1.8,3.5,1.4,4.4-1.8-2.1-1.9-2.3c-2.4-4.6-6.1-8.1-10.6-10.6s-7.8-3.3-12.1-3.8c-11.4-1.3-24.8,1.1-35.7,4.1-.1.2-.2.7-.1.9l1.8,4.6,3.7-1.1c1.4-.4,2.6-1,3.9-1.7s1.6-.1,2.3-.3c1.4-.2,2.7-.5,4.1-.9,4.9-1.4,9.7-1.9,14.8-1.9s6.8.4,10,1.6c5.1,1.9,9,5.1,11.1,10.1s.3,1.2.2,1.7c-.7,0-1-.5-1.3-1-2.7-5.1-5.8-8.5-11.6-10s-7.5-1.2-11.4-.9c-8.4.6-8.3.6-16.3,2.4s-3.1,1.1-4.6,1.6l-3.7,1.1c-.2,0-.6.4-.5.6.7,1.4,1.4,2.8,2.3,4.1,7.5-1.7,14.9-3.2,22.6-4.1s7.5-.4,8.4,1.8c-.3.1-.8.2-1.1,0-2.5-.8-5-1-7.6-.7l-7.5.9-13.8,2.9c-.3,0,.1,1.6-.5,1.3s-1-.6-1.3-1.1c-2.2-3.6-4-7.3-5.3-11.3-2.2-7-5.1-18-3.8-25.1,0-.3.6-.6.8-.5-.2,6,0,8.3,1.2,14s1.5,6.5,2.6,9.7l8.4-2.4c-1-1.5-2-2.5-3.3-3.6-3.2-2.6-5.3-6.1-5.9-10.2s-.4-3.4-.3-5.2l.3-3.6-2-.9c0,0-.2,0-.2,0s0,.1,0,.2l-.2.9c-.2,0-.5-.2-.7-.3s-.2-.6-.1-.8c.4-1.4-.4-1.3-.4-3.3l-2-.2-1.7,3.8c-.7,1.6-1.5,3-2,4.7-2.2,6.7-.9,17.2,1.6,23.6l3.7,9.3c-1.1-.2-1.7-1.2-2.1-2.2-1.2-2.7-2.3-5.5-3.3-8.4s-.9-3-1.3-4.7c-1.3-5.6-1.3-11.2,0-16.8s2-6.8,4-9.8c-1.3-.4-2.5-1-3.3-2-1.8-2.2-.2-4.4-.8-4.6l-1.3-.4c-1.3,1.3-2.3,2.7-3.4,4.2s-1.3,2.3-1.6,3.8c-.5,2.9-1.3,5.6-1.5,8.6-.4,6,0,12,1.5,17.9s2.5,7.8,4,11.7.4,1.2.4,1.9c-.6-.2-.9-.5-1.1-1-2.6-5.6-5-12.2-5.7-18.4-1-8-.8-14.6,1.8-22.2s1.3-2.4,1.9-3.7l-1.1-4-.9-4.3c-3,3.4-5.2,7.3-6.5,11.5s-1.9,8.2-2,11c-.4,11,2.4,21.8,7.6,31.5s0,.2.1.3c0,.1-.7.5-1.8-1.2-2.1-3.2-3.5-6.6-4.6-10.2s-1.7-7.6-2.2-11.5-.7-10.6.3-16,2.3-8.1,4.7-11.7,4.2-6.2,7.6-7.4-.2-.5,0-.9c1.1.5,2.1.5,3.2.3s1.7-.5,2-1.4.4-2.2,0-3.3c-.6-1.9-2.9-3.3-4.9-2.4s-2.5,3.4-1.6,5.1l.6,1.1c.6,1.1-3.3-1-2.2-4.1l-.3-.3c-3.2,1.1-6.1,3.4-8.4,5.7s-3.1,3-4.4,4.8c-2.5,3.5-4.5,7.3-5.8,11.4s-2,9.1-1.8,13.9.5,6.8,1.3,10.2,1.8,8,3.3,11.9,1.1,2.4,1.7,3.6v.3c.2,0-.7,1.3-2.8-3.3s-2.5-6.7-3.3-10.2l-.8-3.8c-1.3-6.1-1.3-12.4-.3-18.6l-12.7-4.8c.2-1.3.6-2.4,1.1-3.6l2.6-5.8c.6-1.3,1.3-2.5,2.1-3.8,4.2-6.7,9.2-9.9,16.7-12.3l6.3-2c1.8-.5,3.5-.8,5.3-1.2s0-1.7,1.2-4.2l-2.1-2.5c-1.1-1.3-2-2.7-2.9-4.2h-2.4c-9.8,0-15.8-5.7-15-6.1l7.1-2.9c3.9-1.6,7.3-3.9,9.6-7.5-1.4-.9-1.6-2.9-.5-4.2,1.8-2.1-.8-1.8,2.1-4.9s.4-1.7,1.8-3.9c-3.7-1.6-7.3-3-11.3-3.7l-7.6-1.4-7.8-1.3c-6-1-11.9-1.1-18-.6s-3.2.1-4.7,0v-1.8c7.7-2.7,16.1-4.4,24.2-2l7,2.1c2.3.7,4.4,1.4,6.6,2.3l9.8,4c1,.4,2,.7,3,1,3.1-3,5.3-4.2,9.3-5.9l-8.4-2.4c-3.3-.9-6.4-2.2-9.6-3.7-3-1.5-5.8-3.1-8.6-4.8s-4.3-2.6-7.9-1.7-8.6,1.7-13.1,2-8.4,1.1-12.4,2.3v-1.2c4.2-1.5,7.9-1.9,12.5-2.3s8.3-1,12.4-1.9c-3-.4-5.8-.3-8.7.1-5,.7-11.5,1.7-16.1-.5v-2.1c5.6-2.2,12.7-2.7,18.8-2.1,3.7.3,7,1.5,10.1,3.4s8.7,5.2,13.3,7.3,9,3.8,13.8,5.1,5.3,1.2,7.9.8,3.4-1.3,5.2-1.8c.9-.4,1.9-.6,2.6-1.3,1.2-1.2,2.4-2,4-2.8-1.5-.5-2.8-.8-4.3-1.2-5-1.3-9.9-2.7-14.8-4.5-5.7-.9-11-2.7-16.1-5.4l-5.1-2.7C8.1,2.8,5,1.6,1.8,1s-.3-.2-.3-.2h4.3ZM-9.8,11.1c3.9-.6,7.6-.6,11.5-.1-1.4-.9-2.9-1.4-4.5-1.8-6.7-1-14.4-.9-21,1.4,4.4,1.6,9.3,1,14,.6ZM56.1,29.7l-2.4-1-5.2-2.3c-.6-.3-1.2-.6-1.9-1-.4,2.1.5,5.7,2.1,7,3.3,2.9,7.2,3.3,11.3,2.3s2-1,2.8-1.9c1.7-2.1,2.2-4.8,1.8-7.4s-2.5-5.8-5.7-6.6-7.5,0-10.3,2.5-1.6,1.8-1.9,3c.2.2.5.4.8.5l7.3,3.3c.6.3,1.1.7,1.7,1.2,1.3-1.5,1.1-2.8,1.9-4.5,1.1,2.8-2.3,8.2-5.3,8.2l1.6-1.5c.6-.5,1-1.1,1.5-1.8ZM10.6,27.5c.9.3,1.6.5,2.5.5-8.8-3.9-17.5-7.1-27.4-5.7-2.6.5-5.1,1.1-7.6,2.1,12.3-.8,20.8-.2,32.5,3.1ZM45.9,30c.4-.4-.6-1.7-.6-3.3s.2-2.5.5-3.7c-1,.2-2.1.4-2.8,1.3-1.3,1.7,0,4.7.6,6.5.8-.6,1.8-.3,2.3-.7ZM33.8,32c2.9-.7,5.7-1,8.6-1.3,0-.8-.1-1.6-.3-2.3-.3-1.3-.5-2.4-.9-3.8l-4.9,1.8c-4,1.5-9.2,4.7-11.2,8.7,2.9-1.4,5.6-2.4,8.6-3.1ZM51.3,35.5c-2.4-1.6-3.6-1.8-4.9-4.5l-2.7.5c.3,1,.9,1.9,1.6,2.6,1.7,1.9,3.4,2.4,5.9,1.4ZM34.3,38.3c3-.5,5.7-1,8.6-1.7l3-.7c-1.4-1.4-2.4-2.6-3.5-4-5.6.2-14.4,2-18.7,5.7s-1.1,1.6-.6,2.6c.9-.1,1.8-.3,2.7-.4l8.6-1.4ZM21.4,44.1c0,.2.5.5.8.6,2.8.1,5.4,0,8.2-.5,4.9-.9,9.7-1.6,14.7-2.1l13.6-1.3c1.5-.1,7.9-.9,8.6-2s-2-4.9-3.1-5.8c-1.7,1.5-2,2.6-4.6,2.9l-8.2.7-2.3.5c-.8.2-1.7-.3-2.5-.1l-6.8,1.4c-5.6,1.2-8.8.9-14.5,2.3s-4.5,1-3.9,3.4ZM22.8,46c-2.8,5.8-10.5,8.2-15.9,10.7,3.5,2.3,6.3,3.9,10.5,4.2s5.2.2,7.8,0h3c.5-.9.6-2,1-2.5s1.3.4,1.8,0c.4-.9,1.4-1.5,2.5-1.1,1.6.6,2.9,1.8,3.7,3.4s.4,2.7,0,4.1c.4.2.8.4,1.1.5,2.7.8,4.2,3.1,4.2,5.8s-.5,3.9-2,5.5c1.7,1.8,8.1,3.8,10.5,4.2,5.4,1,10.9.2,15.9-2s2.2-1.4,2.9-2.5.7-4.3-1.1-4.4h-1.9c1.5-1.5,4.6-.2,5.2-1.5s-.4-1.2-.9-1.3c-2.6-.4-5.2.1-7.7,1.1l-3.2,1.3-.2,3.6c-.5-.8-.6-1.7-.6-2.6v-2.1c2.6-1.2,5.3-2.2,8.1-2.4s3.8.2,3.9-.8c-.7-.8-1.5-1.7-1.9-2.6-1,0-2-.1-3-.4s-1.9-1.2-1.8-2.3.8-2,1.7-2.5l-.5,1.9c-.2.6-.1,1.7.4,2.1,1,.4,2.1.1,3.1,0s2.3-.1,3.4-.5,4.7-2.3,4.6-3.6-2.3-1.5-3.3-1.7c-1.7-.4-3.3-.9-4.7-1.7s-2.4-2.5-2.5-4.4c-.2-3.2-1.1-6.4-3-9.1.1,1.4.8,2.4,1.2,3.5s.7,2.2.4,3.4l-1-3c-.5-1.5-1.2-2.8-2.2-4.1.2,1.1.7,2,.7,3.2-.6-.5-.9-1-1.3-1.5v1.6c-.7-.2-1.5-2.6-2.1-2.8l.6,3.2c-.4,0-.7-.3-.8-.6l-.7-1.6-.2,2.4c-.7-.5-.6-2.4-1.4-3.4l-.2,3.2c-.8-.5-.8-2.6-1.3-3.3l-.2,3.1c0,.2-.2.5-.4.5s-.4-.2-.5-.4l-.6-2.8-.4,2.8c0,.2-.4.4-.5.3s-.3-.4-.4-.5l-.4-2.9c-.4.8.2,3.7-.9,3.7s-.4-2.9-1.1-3.6c-.5,1.1.4,3.8-.9,3.7s-.3-.4-.4-.7c-.2.3-.4.7-.7.8,0-.1-.2-.5-.3-.7-.2.3-.6.7-.9.9-.2-1.4.6-2.5,0-3.7-.4,1.1.3,4.1-1.2,3.8l-.2-1.2c-.3.6-.7,1.1-1.1,1.5-.3-1.2.4-2.1,0-3.3l-.6,2.4c-.1.6-.5,1.1-1.1,1.2l-.2-1.4c-.5.7-.4,1.4-1.3,1.7v-1.9c-.2.8-.5,1.4-1.1,2v-1.5c-.3.7-.7,1.3-1.3,1.8l.3-2.3-3.4,2.9c.9-1.8,2.3-3.2,3.9-4.4s1.5-.5,2.2-.6c1.4-.2,2.7-.5,4-.7s1.4-.1,2-.3c-.7,0-1.3,0-1.9,0l-4.1.6-9.4,1.5c-3.2.5-6.2.8-9.4.9ZM178.2,57.6c1.7-1.9,2.8-3.8,3.4-6.1-2.4-1.1-4.3-2.7-5.8-4.7l-2.4-2.7c-.9,2.8-1.4,3.3-2.7,5.7.5.7,1.1,1.3,1.7,1.9l5.9,5.9ZM187.9,61.9l2.8,1.6c.9.5,1.9.5,2.6-.4,2.1-2.7,3.9-5.5,5.5-8.5s.8-1.6,1.1-2.5l-6.7,1.7c-.5.1-.7.4-1,.8l-3.5,5.8c-.3.5-.5,1.1-.7,1.6ZM178.5,68.8h2.4c2.2-2.7,4.2-5.3,6.2-8.1l1.4-2.8,1.8-3.9c-2.6-.2-5.1-.7-7.5-1.7-.8,2.4-1.9,4.7-3.5,6.7l-3.6,4.4c-1.9,2.2,1.5,3.7,2.8,5.5ZM32.3,63.2c.2.4,1.3.2,1.3-.1.1-1.1.3-2,.4-3s0-.9-.3-1.3-.8-.4-1.1-.3-.8.8-.6,1.2c.8,1.9-.2,2.4.3,3.5ZM34.8,64.5c.8.1,1.2-.4,1.5-.9.6-1.3,0-2.8-1-3.7-1.4,1.2-.7,3-.4,4.6ZM31.5,64c0-1,0-1.8,0-2.8s0-1-.4-1.1-1-.2-1.4-.1c-.4,1-.7,2-.6,3.1.1,1.8,1.6,3.2,3.4,2.8s1-.7,1.3-1.2c-.7-.5-2.4.2-2.4-.7ZM27.6,68.3c.9-.6,1.5-1.2,2.1-1.9-1.6-1.2-2.1-2.9-1.8-4.6l-4.2.4c.5,1.9,2.6,4.4,3.9,6.1ZM172.1,76c-2.2.6-4.3,1.3-6.3,2.4l-4.6,2.7c-1.3.7-2.5,1.5-4.1,1.7.3-.4.7-.7,1.1-.9,2.1-1.2,4.1-2.4,6.1-3.8s.9-1.4.5-1.9-1.2-.7-1.9-.3c-1.8,1.1-3.5,2.4-5.1,3.7s-.8.4-1.2.4l4.5-4c2-1.8,4.8-1.8,5.3-4.5h1.7c1.5-.2,3-1.3,3.2-2.8s-.5-1.5-.9-2.2c1.1,0,1.8,1,1.9,2.1s.3.9.9,1c.9.1,3.6,0,3.8-.8s0-.5-.2-.6l-1.2-1c-.9-.7-1.5-1.5-1.8-2.7-4.1-.4-9.1.1-12.7,2.2s-7.5,5.4-9.4,8.5c1.3,5.8,2.3,11.5,3.1,17.5,1.7-.2,3.3-.8,4.7-1.7s.4-2.3,2.3-3.9,2.9-2.1,4.5-3,1-.6.8-1.2c-.5-1.9-7.3,2.7-8.7,2.3,1.1-1,2.3-1.4,3.5-2.1,3.8-2.2,7.9-3.6,12.3-4.4l5.4-1c1.7-.3,3.3-.2,5,0,1-.2,2.7-1.4,2.3-2.6s-1.1-1.2-1.9-1.2c-2.7-.3-5.3,0-7.9.7l-4.9,1.3ZM29.2,75.7c.9,1.3,2.2,2.1,3.8,2.3,2.8.2,5.7-1,7.3-3.3s.7-2.3.7-3.5c0-1.7-.6-3.3-1.9-4.3s-3-1.4-4.7-.9.9,3.9.6,5c-1.1-1.1-1.4-2.6-2.2-3.9-.7-.5-1.8,0-2.6.4-3.3,1.7-2.8,5.9-1.2,8.2ZM171.9,75.2c4.9-1.4,8.3-2.9,13.6-1.9.6-.3,1.2-.9,1.4-1.6.4-1.2-2.6-1.7-3.4-1.8-2.3-.3-4.6,0-6.9.3l-4.2.7c-1,.2-2,.6-3,1-2.6,1-2.4,1-4.4,2.9l1.1,2,5.7-1.7ZM29.1,77.5c-.9-1.2-1.6-2.1-2.2-3.2-.8.2-1.6.3-2.3.6.5,1.5,1,2.7,1.8,4l2.8-1.4ZM131.4,133.3c4.5-2,8.3-4.8,11.5-8.3,1.9-2,3.5-4,5.1-6.3,2.3-3.5,4-7.1,4.7-11.2s.9-7.6.7-11.6-.5-8.6-1.2-13c-.5-2.9-1.5-5.5-2.3-8.4-.6,0-1,0-1.6.2l.2,3.3c.1,1.7.3,3.4.4,5.2,0,4.4,0,8.7-.5,13.1s-.8,4.5-1.2,6.9-.9,4.4-1.7,6.6c-3.1,9.3-6.8,16.7-13.9,23.6ZM14.1,77.8c-5.1,1.5-10.6,4.8-13.5,9.2,1.3,1.5,2.5,2.7,3.9,4s.4.9.1,1.3c-1.5,2.2-2.9,4.4-4.3,6.8,1.4,1,4.3,2.5,6,2.1.9-2.7,2.1-5.1,3.7-7.4s.8-1.5,1.3-2.1l3.2-3.8c1.1-1.3,2.1-2.7,3.5-3.9,2.2-1.9,4.6-3.3,7.2-4.7-.5-1.4-1-2.6-1.6-3.9s-.7-.5-1-.4c-2,.5-3.9,1-5.8,1.9s-1.9,1.2-2.2,2.3.4,2,1.2,2.5l1.8,1.3c-1.7.8-3.1,1.5-4.5,2.5l-2.8,1.9c-.2.2-.5.5-.7.8.5.8,2.6,1.5,1.6,2.2-.9-.6-1.6-1.2-2.3-2s-.1-1.1.3-1.4c2-1.5,4.3-2.1,5.5-4.1s-2.2-2.2-.6-5.2ZM57.8,82.3c-6.2.5-12.7-1.4-17.7-4.5s-2,.3-3.1.8c2.3,2.3,4.8,4.2,7.7,5.5s10.3,2.6,14.7,2.4c.3-1.2.2-4.4-1.5-4.3ZM76.5,82.1c1.1-.8,1.1-2.2.4-3.1s-2.1-1.5-3.6-1.4-3,1.3-3,3,1.6,2.9,3.3,2.7,2-.5,2.9-1.1ZM113.2,84.1l-3.7-2.1c-.1,0-.5,0-.5,0,0,1.1.7,3.3.3,7.3s-.4,3.5-.8,5.3c-1.1,4.4-2.8,8.5-5.3,12.2s-4.8,5.5-8,7.4-2.3,1.5-3.6,2.1-1.8.1-2-.8.2-.9.3-1.2c3.7-6.4,4.8-13.2,5.6-20.5s.2-6-.6-8.9-.3-2-.6-3c-.5-1.6-1.5-3.1-2.7-4.4-1.7-.4-5.1-.1-7,.1.5,1.8,1.9,3.9,2.3,5.6s.3,1.6.5,2.3c1.6,5.2,2.7,9.4,1.1,15s-2.1,6.6-3.7,9.7-5,6.4-8.5,8.5h8.4c2.9,0,5.6.4,8.5.9-.4-1.4.2-2.7,1.5-3.4l-.8,1.9c-.1.3,0,1,.3,1.1s.9.2,1.2,0c5.9-2.5,11-9,13.5-14.8s4.8-12.3,4.1-20.6ZM120.3,118.7l3.4,3.9c2.5-1.9,4.6-3.9,6.4-6.4s3.5-4.8,5-7.3,3.3-6.3,4.2-9.8c1.8-7.1,2.3-14.3,1.2-21.6l-6.9,2.7v2.7c-.2,9.5-1.2,17.5-6.3,25.6-2,3.1-4.3,5.8-6.9,8.4s-.7,1.1-.1,1.8ZM70.2,107.8c-.5,1.3-1.2,2.3-2.3,2.9s-2.9,1.3-4.5,1.2-3-1.1-4.2-2.8l-2.5,3.1c-.7.9.3,2.3,1.1,2.8,1.7,1.1,3.3,1.9,5.2,2.5l3.4,1.1c-2.4.8-6.6-1.4-8.7-2.5s-1.1-.6-1.7-.8c-.4,2-.7,3.7-.6,5.6,1.8,0,3.4-.3,5.2-.5l11.9-1.3c2.9-.3,5.8-2.9,7.9-4.9s2.1-2.3,2.8-3.7c3.1-5.6,5.3-10.7,4.8-17.2s-.8-4.8-1.4-7.1-1.6-5.8-3.3-8.4c-.6,0-1.2,0-1.9.2,1.5,3.9,2.6,7.7,3.2,11.8,1.4,9.9-3.9,19.8-11.9,25.3-1,.7-4.3,2.7-5.5,2l2.5-1.4c3.2-1.8,5.9-4,8.1-6.9,2-2.7,3.7-5.5,4.8-8.6s1.3-5.2,1.1-8c-.3-4.9-1.5-9.6-3.5-14.1-.9,0-1.7,0-2.5.3,1.3,3-.4,3.7,1.1,5s2.5,4.8.9,7c.5.6,1.1,1.2,1.3,2,.9,2.7.6,6.2-2.4,7.5s.1,1.4-.4,3.8-3.3,4.6-6.2,4-1.2-.1-1.7,0ZM93.8,114.2l3.3-2.3c2.7-9.1,4.2-18.6,3.4-28.1s-.4-3.5-.9-5.3c-2.1-.6-4.2-.8-6.3-.7,2.8,4.3,3.6,9.8,3.5,14.8-.2,4.8-.9,9.4-2.3,14s-1.7,4.6-2.8,6.8-.7,1.1-.8,2c1.1-.1,2-.5,3-1.2ZM168.3,83.3l7.8-.9c2.5-.3,8.2-.3,10.1-2.3-.5-.7-1.1-1.2-1.6-1.7-.4,0-.7.1-1,.2-1.4,0-2.8.1-4.2.3l-7.1,1.1c-1.5.2-3,.8-4.4,1.5,0,.6,0,1.2.4,1.8ZM67.6,84.9c1.2-.5,2-1,3-1.7-1.4-1.2-1.6-2.8-1.1-4.7-1.2,1-2.5,1.7-4.1,2.4l2.2,4ZM106.5,98.2c1.3-3,1.7-6.1,1.7-9.4s-.1-5.9-1.1-7.8c-2.1-1-4.2-1.7-6.4-2.2.8,3.7,1.2,7.2,1,10.9l-.3,5.9c-.4,7.3-1,7.5-2.6,14.6,3.7-3.4,5.6-7.3,7.6-12ZM37.5,80.7c-1-1.2-1.5-2-2.9-1.4l1.1,2.6c.7-.3,1.3-.7,1.8-1.2ZM118.2,86.5c-1.7-.3-2.9-1-4.4-1.8,1,7.5-.8,13.8-3.9,20.3s-5.9,10.7-10.9,13.7c-1.1.7-2.4,1.1-3.7,1.5l5.5,2c2.6.9,4.9,2.1,7.3,3.3,2.9-1.3,5.5-3.1,7.8-5.4s5.1-5.4,7.5-8.3c4.8-5.8,7.6-12.7,8.4-20.2s.6-7.2.8-10.9l-4.3,2.1c.4,8.7-2,17.5-7.3,24.4s-4,4.6-6.4,6.6-3.5,2.9-5.2,4.5-5.1,4.4-6.8,3.8c.5-.6,1-1,1.6-1.4,1.7-1.1,3.3-2.1,4.8-3.5,5.1-4.9,7.3-11.8,8.4-18.6.5-3.3,1.3-9.2.8-12.4ZM65.9,85.6c1.2-.3-.9-4.3-1.7-4.2l-4.7.9c.9,1.4.8,3.2,1.7,4.1,1.6-.1,3.2-.5,4.7-.8ZM37.4,85.7c.8.4,1.6-.3,1.9-.9s.8-1,1.3-1.4c-.1-1-1.4-2-2.5-1.6s-1.5.9-2.3,1.3-.4.4-.4.6c0,.5,1.5,1.8,2,2ZM78,90.6c1.6-1.2,2-3.2,1.2-4.9s-1.3-2-2.5-2.4c-2.5.9-4.6.6-4.4,3.4s.9,3,2.6,3.3l3.2.5ZM114.6,112.6c8.1-6.3,12.3-17.6,12.7-27.6s-.1-1.1-.3-1.6l-3.8,1.7c-1.3.5-2.5,1.1-3.8,1.5.3,1.7.4,3.4.2,5.1-.5,7.4-1.6,14-5,20.9ZM177.3,83.6h-2.2c0,.1,2.2,1.8,2.2,1.8v-1.8ZM167.5,95.6c-1.8-.3-3.4-1.6-3.9-3.3s.3-4.7,2.1-6.2c-1,.4-1.9.9-2.8,1.5-2.2,1.6-2.1,5,0,7,2.2,2.2,6.8,3.6,10,2.7s3.8-2.5,4.6-4.7.5-5.5-1.6-7.3-6.2-1.2-8.6,0c1.8-.2,3.4,0,4.9.9,2.5,1.7,3,5,1.1,7.4s-1,1.4-2,1.7c.2-.6.5-1,.9-1.4,1.5-1.5,1.9-3.9.7-5.6s-4.6-2.8-6.9-1.2-2.3,3.6-1.5,5.5,2.4,2.1,3,3.1ZM40.4,89.9c1.1-.4,2-.9,2.6-1.7.4-1,.9-1.7,1.6-2.4,0-.5-.6-1-1-1.3-.9-.5-2.2-.7-3,.2s-1.3,1.5-2.2,2.1l2,3.1ZM50.9,103.3c.7.6.7,1.4.1,1.9l-1.3,1.2c-.7.6-.5,1.9,0,2.7.8,1.3,2.1,2.3,3.6,2.8s2.8-.2,3.6-1.4,1.4-2.2,1.4-3.5c0-2.8-1.7-2.3-2.6-3.8.6,0,1,0,1.6.1l1.2-.6c0,1,0,1.9.6,2.7,3.8-6.9,7.4-3,7.9-5.1s1.5-4.6,2.3-6.9,1.5-3.4,1.8-5.2c.1-1.4-.7-2.7.5-4.2-2,.9-5.6,3.1-6.3,4.9l-2.5,6.5c-1.2,3.2-1.8,4.1-4.7,6.1.7-1.9,2.5-2.7,3.3-5l1.9-5.2c.6-1.7,1.3-3.1,2.6-4.5-4.2.3-3.8,1.1-6.9,2.1s-.7,2.1-3.5,5.5l-3.2,4c-.6.8-1.5,1.5-2.4,2s-.2.6-.1.7c.4.7,1.6.4,2.3.3,1.3-.1,2.8.4,3.1,1.8-2.2-.7-2.3-1.2-4.4,0ZM39,91.1c1-1.2-3-5.3-3.9-5.8-1.8,1.3,2.1,1.3,3.2,4.7s.3.7.7,1.1ZM44.4,94.4c1.6-.9,3.4-1.9,3.9-3.5.7-2.6,2.3-2.7,2.2-3.5-.2-1.2-3.2-1.2-4-1.1s-1.4.9-1.7,1.5c-.5.9-1.2,1.6-2,2.2l-1.5,1.1,1.6,1.5c.6.5,1,1.2,1.6,1.8ZM36.6,93c1-.7,1.2-2,.7-3-.9-2-3.8-3.8-6.2-2.8s-1.6,1.9-1.4,3.1c.3,1.9,2.4,6,4.5,4.5l2.4-1.8ZM53.3,87.4c-.9-.2-1.6-.3-2.5-.4.1.3.4.7.7.8.7,0,1.2,0,1.8-.3ZM54.4,94c2.1-2.6.7-3.1,2.7-5.1s.3-.6.3-.8c1,.7,1.9.3,3-.4-1.7-.1-3.1-.3-4.7-.2s-2.1.5-3.2.6-2.2,1-2.5,2.3c-.6,2.6-3.1,3.2-4.4,5,.5,2,2.7.8,4.1,3.5,1.7-1,3.5-3.5,4.8-5ZM-3.3,96.5l2.6,2.1,1.3-1.7c1-1.3,1.9-2.6,2.8-4,.3-.6.3-1.2,0-1.7-1-1.2-2.1-2.3-3.3-3.4-1.8,1.9-3.1,4.1-4,6.5l-2.5,6.8,6.2,2.4,5.2,2.1,1-3-3.1-1.1c-1.4-.5-6.7-2.9-6-4.8ZM28.6,91c-.4-1.1-.2-2,.1-3.1-.6.2-1.3.5-1.6,1-.4,3,.1,5.9,1.4,8.7l1.5-2.3c.6-1.1-.6-1.9-1.4-4.3ZM71.8,94.9c-.1-1,0-2.2.8-2.9l1.3-1.2-2.4-1.7c-.3,1-.5,2.1-.8,3.1l-1.7,5.8c1-.6,1.9-.9,3-1.3l-.3-1.8ZM45.1,96.9l-1.1-1.3c-2.3-2.6-2.4-2.3-5.3-4.3-.3.5-.4,1.1-.3,1.8,2.2.7,4,1.9,5.5,3.6s.8.5,1.2.2ZM78.3,98.8c2.1-1.1,2.4-4.4,1.7-6.1s-1-1.3-1.9-1.3h-2.5c-.9.1-1.7.6-2.2,1.2-1,1.3-.6,4.6,1.2,5.7s2.4,1.1,3.7.4ZM42.8,99.7c.7-1,.6-2.3-.3-3.1s-3.7-2.6-4.9-2.4-2.2.8-3,1.7-1.1,4.3,1.7,5.4,4.8.8,6.5-1.7ZM168.2,98.3l-2.8-1-2.4-1.2-5.5,9.3,6.7,3.9,2.5-5.1c.4-.8,2.6-5.5,1.5-5.9ZM47.9,106.1c.8-.5,1.5-1,2.2-1.6s.5-.9.3-1.5l-.5-1.5c-.3-.8-.7-1.4-1.1-2.2-.7-1.3-3-1.9-4.1-.9-.9,2.5-1.2,2.2-2.9,4s-.5,1.6,0,2.3c1.2,2.1,4,2.8,6.2,1.5ZM77.4,102.8c.2-1.3-.5-2.3-1.6-2.7-2.3-.9-2.9-2.4-4.1-2s-2.3,1.2-3,2.3-.7,3.1.2,4.4,3.6,2.7,5.6,1.8,2.6-2,2.8-3.7ZM68.4,108.8c.9-.9.7-2.1,0-2.9s-1.4-2.2-1.3-3.5c-2.2-.7-4.4,0-5.9,1.8s-1.7,4.6.4,6.1,5.1.2,6.8-1.5ZM116.8,132.6c3.2-2.3,5.9-4.8,8.6-7.5,2.4-2.2,4.3-4.6,6.3-7.1l3-3.6c0-.1,5.9-8.4,3.1-7.4-.9,1.6-2.1,3.4-3.2,4.9l-2.5,3.5c-4.3,6-8,8.7-13.7,13.1s-2.3,1.4-3.6,2l2,2.2ZM50.5,126c0-.3,0-.7-.2-.9-2.9-6.1-2.8-10.8-3.2-17.5h-2.4s0,4.2,0,4.2c0,1.8.3,3.6.7,5.4.6,2.8,2.7,7.2,5.2,8.7ZM55.3,129.4c-1.6-6.2-1.2-9,0-15.2s0-.6,0-.8-.4-.2-.6-.3c-2.6-.3-4.8-1.8-6.1-4.1,0,1,0,1.9.1,2.9.7,7.7,1,11.4,5.8,17.6.1.1.4.3.5.3s.4-.3.4-.4ZM122,124c.5-.6.3-1.4-.2-1.9l-1.6-1.9c-.5-.6-.9-1.2-1.1-1.9-2.8,3.3-6.2,5.9-10,7.9,1.8,1.2,3.2,2.3,4.8,3.7,2-1.3,6.6-4.1,8-5.9Z"/>
      <path class="st1" d="M30.7.8c6.3,3.8,13.3,6.3,20.5,7.9s14.9.6,21.2-.6l11.6-2.1,12.2-2.8c6.4-1.5,13.3-2.3,19.7-.5-.9.5-1.7.4-2.7.4h-6.4c-3-.2-5.9.3-8.9,1-7.1,1.8-14.2,3.2-21.4,4.6-4.6.8-9,1.6-13.6,2s-9.6,0-14.3-1.1c-7.9-2-13.2-4.3-19.9-8.7h1.9Z"/>
      <path class="st0" d="M202,21.8v3c-1.3-2.5-3.4-6.5-5.9-8.1-1.7-1.1-3.7-1.6-5.7-2s-4.8,0-6.9,1.1c-5.3,2.8-3.4,10-.3,13.9s.6.8.8,1.3c-.9-.5-1.5-1.2-2.1-2-2.5-3.3-3.1-7-1.8-11-7,7.5-1.7,19,5.9,23.9s11.5,3,16.1-.7v1.3c-4.1,3-9.2,3.8-14,1.9s-8.6-5.8-10.7-10.6-2-6.7-1.2-10.1c1.1-4.9,4.9-8.4,9.7-9.5s11.8.8,15,5.9l1.3,2Z"/>
      <path class="st3" d="M202,43.6v1.1c-2.8,2-7.7,3.1-11.2,3.1s-6.7-1.2-9.5-3.3-6.7-7-8.2-11.7c-.4-1.3-.7-2.5-.6-3.9.4.4.6.7.7,1.1.9,4.1,2.7,7.8,5.5,11s4.8,4.3,8,5.3c2.6.8,5.3.7,7.9.2s5.5-1.5,7.4-2.9Z"/>
      <path class="st8" d="M202,31.8v2.8c-1.6,2.7-5,5.4-8.1,6.2-4.9,1.1-9.1-2.2-12.1-5.6-1.5-1.7-2.9-3.5-3.7-5.8.4,0,.7.4.9.7,2.3,3,5,6.3,8.3,8.2s8.2,1.9,11.3-1,2.5-3.6,3.5-5.5Z"/>
      <path class="st7" d="M146,.8l1.7,1c.4.2.8.6.9,1.1-.4.2-.7,0-1.1,0l-4.1-1.9h2.7Z"/>
      <path class="st4" d="M143.3,13.5c-1.1.2-1.9-.2-2.8-.5-6.1-1.8-10.7-2.3-17.1-1.3s-.6,0-.8-.2-.3-.5-.2-.7c.5-1.9.6-3.6.6-5.6s.2-.5.4-.6c1.3-.2-.3,4.8-.1,5.6,2.2-.2,4.2-.4,6.4-.3,4.4.1,8.6,1.1,12.6,2.8s.7.5,1,.8Z"/>
      <path class="st6" d="M146.3,8.2l-6.7-2.7c-4.5-1.8-9.3-2.3-14.3-2.1-.3-.4-.1-1.1.2-1.4l5.1.2c3.9.2,13.5,2.7,16.1,5.4s.1.4.1.4-.4.1-.5,0Z"/>
      <path class="st5" d="M138.3,21c.2,0,.5.3.5.4-.1.6-3.2.4-4,.3-4.1-.3-8-.4-12.1,0s-.6-.1-.7-.2-.2-.5-.1-.7c.7-2,.9-2.9,1.6-4.8.2,0,.4.5.4.7l-.7,3.5,6.2-.2c3,0,5.9,0,8.9.8Z"/>
      <path class="st2" d="M116.8,28.2c2.1-.2,3-1.8,4.7-2.7-.3,1.9-4,4.3-5.6,3.1s-.9-1.5-1-2.4c0-2.6,0-5-.2-7.6s.3-.6.4-.6.5.4.5.7v5.2s.2,3.5.2,3.5c0,.2,0,.6.2.7s.6.2.8.2Z"/>
      <path class="st14" d="M122.4,15.9c-.9-3.3-2.7-7.6-5.3-9.9,0-.2.4-.4.6-.4s.4.2.6.4c2.4,2.7,4,6.4,4.8,9.9s-.2.3-.3.3-.3-.2-.4-.4Z"/>
      <path class="st13" d="M116.5,13.2c1.2-.9,5.7,6,2.1,8.7,2.5-6-2.8-8.1-2.1-8.7Z"/>
      <path class="st10" d="M145.2,13.1c-.8,1.3-3.1,4.9-4.9,4.6l1.7-2,3.3-3.9c.2.5,0,.9-.2,1.3Z"/>
      <path class="st9" d="M113.9,30c-1.1.9-2.5-2.8-1.8-3.7l1.8,3.7Z"/>
      <path class="st16" d="M57.4,57.8c-3.4.3-6.5,0-9.6-.8s-2.9-.7-4.4-1-1.9-.5-2.7-1.1l-5.1-4.1c1.6-.9,3.2-1.2,4.9-1.6,4.6-1.1,11.1-.8,15.4,1.2,1.9.9,3.5,2.3,4.9,3.9s.6,1,.5,1.6c-.2,1.5-2.6,1.9-3.9,2ZM47.7,55.8c-1.4-1.7-1.6-3.6-1-5.6-2.9-.2-5.7,0-8.3,1.3,1.8,2.1,4.1,3.3,6.7,3.9.9.2,1.8.4,2.6.4ZM59.6,55.3c0-.1,0-.5-.2-.7-1.3-1.3-4-3.1-5.9-3,0,1.6.7,2.5-.6,3.9s-.2.3-.2.4c-.2.7,6.8.6,7-.6Z"/>
      <path class="st11" d="M62.2,51.3c-1.8-.9-2.1-1.7-4.4-2.3s-4.2-.6-6.4-.7-1.9.2-2.9-.4c2.9-.4,5.8-.3,8.7.1s3.9,1.3,4.9,3.2Z"/>
      <path class="st12" d="M23.9,59.1l2.6-1.4c1.4-.7,2.4-1.9,3.1-3.3s.6-1.1,1.1-1.4c-.4,3.3-3.1,6.2-6.7,6.1Z"/>
      <path class="st15" d="M88.7,117.1c0,.7-.6,1.1-1.1,1.3-.6.3-1.4,0-1.9-.2l1.9-.9c.3-.1.7-.2,1.1-.2Z"/>
    </g>
  </g>
</svg>