<?xml version="1.0" encoding="UTF-8"?>
<svg id="Layer_1" xmlns="http://www.w3.org/2000/svg" width="205.7" height="146.9" xmlns:xlink="http://www.w3.org/1999/xlink" version="1.1" viewBox="0 0 205.7 146.9">
  <!-- Generator: Adobe Illustrator 30.1.0, SVG Export Plug-In . SVG Version: 2.1.1 Build 136)  -->
  <defs>
    <style>
      .st0 {
        fill: url(#linear-gradient2);
      }

      .st1 {
        fill: url(#linear-gradient1);
      }

      .st2 {
        fill: url(#linear-gradient9);
      }

      .st3 {
        fill: url(#linear-gradient3);
      }

      .st4 {
        fill: url(#linear-gradient6);
      }

      .st5 {
        fill: url(#linear-gradient8);
      }

      .st6 {
        fill: url(#linear-gradient7);
      }

      .st7 {
        fill: url(#linear-gradient5);
      }

      .st8 {
        fill: url(#linear-gradient4);
      }

      .st9 {
        fill: url(#linear-gradient28);
      }

      .st10 {
        fill: url(#linear-gradient18);
      }

      .st11 {
        fill: url(#linear-gradient13);
      }

      .st12 {
        fill: url(#linear-gradient12);
      }

      .st13 {
        fill: url(#linear-gradient15);
      }

      .st14 {
        fill: url(#linear-gradient16);
      }

      .st15 {
        fill: url(#linear-gradient11);
      }

      .st16 {
        fill: url(#linear-gradient10);
      }

      .st17 {
        fill: url(#linear-gradient17);
      }

      .st18 {
        fill: url(#linear-gradient14);
      }

      .st19 {
        fill: url(#linear-gradient19);
      }

      .st20 {
        fill: url(#linear-gradient23);
      }

      .st21 {
        fill: url(#linear-gradient22);
      }

      .st22 {
        fill: url(#linear-gradient24);
      }

      .st23 {
        fill: url(#linear-gradient25);
      }

      .st24 {
        fill: url(#linear-gradient21);
      }

      .st25 {
        fill: url(#linear-gradient20);
      }

      .st26 {
        fill: url(#linear-gradient27);
      }

      .st27 {
        fill: url(#linear-gradient26);
      }

      .st28 {
        fill: url(#linear-gradient);
      }
    </style>
    <linearGradient id="linear-gradient" x1="107.1" y1="-94.5" x2="162.1" y2="78.5" gradientUnits="userSpaceOnUse">
      <stop offset="0" stop-color="#cda288"/>
      <stop offset="1" stop-color="#e5cec1"/>
    </linearGradient>
    <linearGradient id="linear-gradient1" x1=".6" y1="-60.7" x2="55.6" y2="112.3" gradientUnits="userSpaceOnUse">
      <stop offset="0" stop-color="#cda288"/>
      <stop offset="1" stop-color="#e5cec1"/>
    </linearGradient>
    <linearGradient id="linear-gradient2" x1="155.1" y1="-109.8" x2="210.1" y2="63.2" gradientUnits="userSpaceOnUse">
      <stop offset="0" stop-color="#cda288"/>
      <stop offset="1" stop-color="#e5cec1"/>
    </linearGradient>
    <linearGradient id="linear-gradient3" x1="-30.2" y1="-50.9" x2="24.8" y2="122.1" gradientUnits="userSpaceOnUse">
      <stop offset="0" stop-color="#cda288"/>
      <stop offset="1" stop-color="#e5cec1"/>
    </linearGradient>
    <linearGradient id="linear-gradient4" x1="43.4" y1="-74.3" x2="98.4" y2="98.7" gradientUnits="userSpaceOnUse">
      <stop offset="0" stop-color="#cda288"/>
      <stop offset="1" stop-color="#e5cec1"/>
    </linearGradient>
    <linearGradient id="linear-gradient5" x1="9.7" y1="-63.6" x2="64.7" y2="109.4" gradientUnits="userSpaceOnUse">
      <stop offset="0" stop-color="#cda288"/>
      <stop offset="1" stop-color="#e5cec1"/>
    </linearGradient>
    <linearGradient id="linear-gradient6" x1="3.6" y1="-61.6" x2="58.6" y2="111.4" gradientUnits="userSpaceOnUse">
      <stop offset="0" stop-color="#cda288"/>
      <stop offset="1" stop-color="#e5cec1"/>
    </linearGradient>
    <linearGradient id="linear-gradient7" x1="-40.7" y1="-47.5" x2="14.3" y2="125.5" gradientUnits="userSpaceOnUse">
      <stop offset="0" stop-color="#cda288"/>
      <stop offset="1" stop-color="#e5cec1"/>
    </linearGradient>
    <linearGradient id="linear-gradient8" x1="-14.9" y1="-55.8" x2="40.1" y2="117.2" gradientUnits="userSpaceOnUse">
      <stop offset="0" stop-color="#cda288"/>
      <stop offset="1" stop-color="#e5cec1"/>
    </linearGradient>
    <linearGradient id="linear-gradient9" x1="17.6" y1="-66.1" x2="72.6" y2="106.9" gradientUnits="userSpaceOnUse">
      <stop offset="0" stop-color="#cda288"/>
      <stop offset="1" stop-color="#e5cec1"/>
    </linearGradient>
    <linearGradient id="linear-gradient10" x1="-4.6" y1="-59" x2="50.4" y2="114" gradientUnits="userSpaceOnUse">
      <stop offset="0" stop-color="#cda288"/>
      <stop offset="1" stop-color="#e5cec1"/>
    </linearGradient>
    <linearGradient id="linear-gradient11" x1="8.5" y1="-63.2" x2="63.5" y2="109.8" gradientUnits="userSpaceOnUse">
      <stop offset="0" stop-color="#cda288"/>
      <stop offset="1" stop-color="#e5cec1"/>
    </linearGradient>
    <linearGradient id="linear-gradient12" x1=".6" y1="-60.7" x2="55.6" y2="112.3" gradientUnits="userSpaceOnUse">
      <stop offset="0" stop-color="#cda288"/>
      <stop offset="1" stop-color="#e5cec1"/>
    </linearGradient>
    <linearGradient id="linear-gradient13" x1="-.7" y1="-60.3" x2="54.3" y2="112.7" gradientUnits="userSpaceOnUse">
      <stop offset="0" stop-color="#cda288"/>
      <stop offset="1" stop-color="#e5cec1"/>
    </linearGradient>
    <linearGradient id="linear-gradient14" x1="4.1" y1="-61.8" x2="59.1" y2="111.2" gradientUnits="userSpaceOnUse">
      <stop offset="0" stop-color="#cda288"/>
      <stop offset="1" stop-color="#e5cec1"/>
    </linearGradient>
    <linearGradient id="linear-gradient15" x1="80.7" y1="-86.2" x2="135.7" y2="86.8" gradientUnits="userSpaceOnUse">
      <stop offset="0" stop-color="#cda288"/>
      <stop offset="1" stop-color="#e5cec1"/>
    </linearGradient>
    <linearGradient id="linear-gradient16" x1="-2.9" y1="-59.6" x2="52.1" y2="113.4" gradientUnits="userSpaceOnUse">
      <stop offset="0" stop-color="#cda288"/>
      <stop offset="1" stop-color="#e5cec1"/>
    </linearGradient>
    <linearGradient id="linear-gradient17" x1="82" y1="-86.6" x2="137" y2="86.4" gradientUnits="userSpaceOnUse">
      <stop offset="0" stop-color="#cda288"/>
      <stop offset="1" stop-color="#e5cec1"/>
    </linearGradient>
    <linearGradient id="linear-gradient18" x1="6" y1="-62.4" x2="61" y2="110.6" gradientUnits="userSpaceOnUse">
      <stop offset="0" stop-color="#cda288"/>
      <stop offset="1" stop-color="#e5cec1"/>
    </linearGradient>
    <linearGradient id="linear-gradient19" x1="-5.1" y1="-58.9" x2="49.9" y2="114.1" gradientUnits="userSpaceOnUse">
      <stop offset="0" stop-color="#cda288"/>
      <stop offset="1" stop-color="#e5cec1"/>
    </linearGradient>
    <linearGradient id="linear-gradient20" x1="79.1" y1="-85.6" x2="134.1" y2="87.4" gradientUnits="userSpaceOnUse">
      <stop offset="0" stop-color="#cda288"/>
      <stop offset="1" stop-color="#e5cec1"/>
    </linearGradient>
    <linearGradient id="linear-gradient21" x1="86.8" y1="-88.1" x2="141.8" y2="84.9" gradientUnits="userSpaceOnUse">
      <stop offset="0" stop-color="#cda288"/>
      <stop offset="1" stop-color="#e5cec1"/>
    </linearGradient>
    <linearGradient id="linear-gradient22" x1="101" y1="-92.6" x2="156" y2="80.4" gradientUnits="userSpaceOnUse">
      <stop offset="0" stop-color="#cda288"/>
      <stop offset="1" stop-color="#e5cec1"/>
    </linearGradient>
    <linearGradient id="linear-gradient23" x1="98.4" y1="-91.8" x2="153.4" y2="81.2" gradientUnits="userSpaceOnUse">
      <stop offset="0" stop-color="#cda288"/>
      <stop offset="1" stop-color="#e5cec1"/>
    </linearGradient>
    <linearGradient id="linear-gradient24" x1="103.4" y1="-93.4" x2="158.4" y2="79.6" gradientUnits="userSpaceOnUse">
      <stop offset="0" stop-color="#cda288"/>
      <stop offset="1" stop-color="#e5cec1"/>
    </linearGradient>
    <linearGradient id="linear-gradient25" x1="101.3" y1="-92.7" x2="156.3" y2="80.3" gradientUnits="userSpaceOnUse">
      <stop offset="0" stop-color="#cda288"/>
      <stop offset="1" stop-color="#e5cec1"/>
    </linearGradient>
    <linearGradient id="linear-gradient26" x1="128.7" y1="-101.4" x2="183.7" y2="71.6" gradientUnits="userSpaceOnUse">
      <stop offset="0" stop-color="#cda288"/>
      <stop offset="1" stop-color="#e5cec1"/>
    </linearGradient>
    <linearGradient id="linear-gradient27" x1="96.8" y1="-91.2" x2="151.8" y2="81.8" gradientUnits="userSpaceOnUse">
      <stop offset="0" stop-color="#cda288"/>
      <stop offset="1" stop-color="#e5cec1"/>
    </linearGradient>
    <linearGradient id="linear-gradient28" x1="8" y1="-63" x2="63" y2="110" gradientUnits="userSpaceOnUse">
      <stop offset="0" stop-color="#cda288"/>
      <stop offset="1" stop-color="#e5cec1"/>
    </linearGradient>
  </defs>
  <g id="_x39_S0E56">
    <g>
      <path class="st28" d="M159.1,55.9c.2-.4.7-.5.8-1s.7-.8,1.1-1l.2-2.7c0-1,.4-2.4-.4-3.3-1.3-1.3-.8-1.1-2.4-2.5-.5-.4-1.6-.4-2.2-.7s-1.3-.7-2.3-.6-1.8,0-2.7,0h-2.3c-1.1,1.5-2.5.7-3.4,1.3s-.8.7-1.3.8-1,.4-1.5.8l-1.2.4c-.6.7-1.7,1.1-2.5.4l1.3-.7.4-.6,1.5-.7c1.3-1.7,1-.4,2.7-1.7s1.8-.5,2.7-.7,2.1-.7,3.3-.7h3.9c1,0,1.8.5,2.7.8s1.6.4,2.3,1.1,1.1.6,1.3,1l.7,1.5c.1.4.6.7.6,1.1-.2,1.1-.1,1.9,0,2.9s.1,2.1-.4,2.9-.6.5-.6.7c0,1-.6,1.3-1,1.9s-.7,1-1.3,1.3-1.5,1-2.3,1.3-2.4,1-3.7.4-3.6-1.5-3.9-.2c.2.7.6,1.8,1.1,2.3l1.6,1c1,.5,2.2,0,3.3.2,3.6.5,2.9-.7,5.8-1,.1-.2.5-.7.7-.8l1.5-.6c.4-.6.6-1,1.1-1.3s.7,0,1.1,0c-.2,1.2-.4,2.5-.8,3.7s-.6,1.1-.6,1.6c0,1.2-.7,1-1.7,2.1h-4.7l-2.3.2c-.4,0-.7-.6-1-.8-.4-.4-.8-.7-1.2-1.1s-1.5-.2-1.9-.6-.8-.5-1.2-.6c-.7-.2-1.1-.5-1.6-1.1s-.7-.8-.7-1.3l-.2-2.2c0-.5.2-1.3.4-1.9s.5-1,.7-1.3c.7-1.5,1.2-1.8,2.8-2.4s.6-.2,1.2,0c2.3,1,2.4,2.1,3.6,1,1.7-1.5,1.1-2.7.4-4.5-1.2-.4-2.3-.8-3.4-.8-2.4.8-1.8.1-4.8,1.2l-1.9.6c-.4,0-1,0-1.3.1-.8,1.2-2.1.8-2.8,1.3s-1.3.5-1.9,1l-1.1.6c-.6.4-1.5.2-1.9.7s-.7.6-1.2.7c-.7,0-1.1.5-1.7.8s-.8.6-1.1,1.2c-.6,1.7-2.1,2.7-3.3,3.9-1.2,1.2-1.1,1-1.8,1.3l-2.3,1.2c-2.4,1.3-2.5.2-4.5,1s-1.1.4-1.6.4c-1-1.2-3.1,0-4-1.2-1.3-1.9-2.4-1.9-1.8-4.6,0-.4,0-.2.2,0,0,.5,0,1.3.4,1.7.7.2.7.6,1.1,1.2s1.5.6,2.1.8c1.7.6,3.4.2,5.2,0s2.5-.8,3.7-1.7l1.2-.8c.8-.6,1.5-1.5,2.1-2.3s1-2.5,1.2-3.9.6-1.3.1-1.9c-1.1-1.6-.2-2.3-.8-3.1s-1.8-1.6-1.8-1.7l-1.5-.8c-.6-.4-1.3-.4-2.1-.7s-1.2-.7-1.8-.7h-4.8l-1.9.8c-1.2.5-2.8,0-4,.7s-2.1.6-3.1,1-.8.8-1.6.7-1,.4-1.3.7c-1.7,1.2-1.2,1.2-2.7,1.9-1.2,1.6-1.5.4-1.6,2.2v.4c0,.6,1.5-.6,1.1-.4.5-.2,1.2-.5,1.7-.6.4-.8,1.1-.7,1.8-1s1.2-1.1,2.2-1l.4-.7,1.8-.6c.5-.5,1-.8,1.6-1,1.2-.2,1.2-1.2,3.7-1.5s1,0,1.5,0c2.8-.7,2.4-.6,5.4.4s1.5.6,1.7,1.6,1.2.6,1.2,1.3-.4.4-.6.5-.5-.1-.5-.4l-.2-.6c-.6,0-1.1-.5-1.5-1.1-.6,0-1.3-.1-2.1-.1h-6.4c-.8,2.1-1.3.2-3.1,1.8s-1.5.2-1.9.5c-.5.5-.8,1-1.8,1s-.5.4-.8.7-.8.6-1.2,1l-1.6,1.1-2.2,2.2s-.2.4-.2.5c-.1.4,1.3.8,3.4-.6l1.3-1c.4-.2,1-.4,1.2-.7.5-.5,1-.8,1.6-1.2l1.2-1c.6-.5,1-.8,1.8-1.1s.6-.5.8-.6c.5-.4,1.2-.5,1.7-.7,1.2-.7,2.4-.7,3.7-.7,1.9,0,3,.2,4.4,1.8s.7.7.8,1.3c.2,1.7.5,3-.8,3.9s-.7.8-1.2,1.1c-1,.5-3.1.2-2.3,1l1.1,1,1.2,1c-.8,1.2-2.1.6-3.1,0s-1.2-.2-1.5-.6c-1.6-1.6-.2-3.4-1-4.8l-1.1.6c-.5.2-.8.5-1.3.8-.6-2.8.5-1.5.6-3.6h2.1l.7.8c2.1.8,1.7,2.1,4.8,1.1.5-1.8-.4-2.3-1.7-3.3s-.5-.6-.7-.6c-1.3-.2-2.8.2-3.9,1.1l-1.2.4c-.7.6-1.3,1-2.1,1.3l-1.3.7c-.5.7-1.2,1-1.9,1.3l-1.5,1-1.9,1.3c-.5.4-1,.8-1.7,1s-1.2.2-1.7.2h-2.1c-.6-.1-1.1-.5-1.1-1.1,0-1.1-.5-2.3-.5-3.4v-1c0-.8-1-3.5-2.1-4.7s-1.1-.5-1.3-1.1l-1.1-.4c-.5-.1-.8-.5-1.2-.8-.6-.6-1.6-.4-2.2-.7s-1.2-.7-2.1-.7h-2.5c-3.5.4-.8.5-3.1.8s-2.1.4-3,.4-1.1.5-1.7.6l-2.3.6c-.6.1-1.1.4-1.7.7s-1.7.2-2.3.6-.8.5-1.6.5c-2.7.4-2.5,1.2-4.7,1.5s-.7,0-.8-.4c-.1-1,.5-.4,1.5-1.6s1.7-1.7,2.2-2.7c.7-1.7,3.6-1.5,5-1.5,0-.4.2-.7.5-.8s.8-.2,1.2,0,.4.6.6,1l1-.2s.2,0,.4-.1-.1-.2-.2-.4l-.5-.6c-.5-.5,1.2-1.1,1.3-1.5-1-1.1-1.5.4-4.4-1s-1.5-.2-1.7-1,0-1.6-.1-2.3,0-1.7,0-2.5-.1-1.2,0-1.6c.2-.8.4-1.6.4-2.3s.4-1.6.6-2.4l.6-2.2c0-.4.5-.7.6-1.1,0-.8.8-2.4,1.1-2.2.8.5.7,2.3,1.1,3.3.2-.7,1.5-1.8,1.3-1.9l-.4-.5-1-1.7c-.2-.4-.7-.7-.6-1.1s.2-.8.6-1.2l1.3-2.2,1-1.3c.5-.7.8-1.6,1.3-2.2l1.1-1.7,1.5-2.3,1-1.5c.6-1,1.1-1.8,1.7-2.8s.5-1.9,1.8-1.9c.4.2.7.8,1,1.2l1,1.3c.6.7,1,1.5,1.5,2.2.2.2.8.7,1.1,1.1l1.1,1.3,1.7,1.8,1.3,1.9c.4.5.6.8,1.1,1.2l.5,1.2c1.2,1.5.5,1.3,1.7,3.4,1.2,2.1.2,2.1.6,3.1s1,2.7.4,4-.6,1.2-.6,1.8v6.4c.2.5.6.8,1,1.3l.8.8c.1,1.3.4,1.2-.5,2.2-.2,1.2-1.3,2.1-2.4,2.5l-2.1,1c-.5.2-2.2-.2-1.6.4,1.3,1.3.5,1,1.6,1.3s.7.5,1.1.7l1.3,1.2c.8.7,1.8,1.3,1.9,2.7,1.5.7,2.1,0,3-.8l1.3-1.1c.2-.2,1.1-.2,1.5-.5,1.3-1.6,1.9-.4,2.8-1.6l1.2-.7c0-3.4,1.1-2.9,1.8-3.6s1-.7,1.6-1c1.8-.7,4.1-1.5,6.2-1s1,.7,1.3,1.3.7,1.1,1,1.8.4.4.6.4c4,0,2.8.5,4.8,1.3s1,.6,1.3,1.1l.8,1.1c.6.2,1.1.5,1.1,1.2,2.1,1,2.2-.6,3.3-1.1l1-.5,1.9-1.2,1.2-1.1.7-1.3-1.2-.7c-2.5-1.5-1.7,0-3.5-1.8l-1.1-1c-1-1-.8.4-3.4,1s-2.1-.1-2.9-.8-.8-1-.8-1.8.4-1.2,1.1-1.6,1.6-.7,2.3-1.1c.7-1.1-1.8-2.3-2.5-1.9s-1,.4-1.2.6c-.8.6-1.8.7-2.8,1.1s-2.4,1-3.9,1-1.6.1-2.1.4c-1.1.4-1.7,0-2.7,0s-1.3.4-2.1.2-1.7,0-2.4-.4c-1.8-1.3-2.7.4-3.3-1.3s.1-1.5.7-2.1l1.6-2.2c1.3-1.7,2.1-2.3,3.4-4.2l1-1.6,1.2-2.2c1-1.9.8-.8,1.6-2.9.5-.5,1.1-1.2.8-1.9l-1.3-1c-.8-.2-1.8-.7-2.7-1.2s-1.5-.6-2.1-1.1l-1.8-1.5c-.5-.4-.8-.7-1.3-1.3s-1-.6-.7-1.5-.2-1-.7-1.2-.2-1.2,0-1.6c.8-1.1,1.9,0,3.3-1.1-.7-.6-.6-1.3-.6-2.2v-2.5s1-1.8,1.8-1.8,1.3.4,1.6.7.6.7,1.1.7c1.1-.2.8-1.9,1.6-2.4s1.6,0,2.3,0,1.3.4,2.1.7,1.3.6,2.1,1,.8.2,1,0c1-2.3-.4-3.9,1.1-6s.7-.7,1.2-.6.6.6,1,.8.7.7,1.1,1.2,1,.4,1.2.4c1.1,0,.2-1.3.8-2.1,1.1-1.2.2-2.1,1.5-3.3s.7-.2,1-.2c.8,0,1.5.5,1.6,1.3.4,1.7.4,1,1.1,2.5s.5.7.7.5c.4-.7.8-1.5,1.5-1.8s1.5,0,1.8.5.6,1,.6,1.5l.4,2.2c.1.8.4,1.7.6,2.5s0,1.2,0,1.8c0,2.8-.4,4.6.5,6.9l1.3.2,2.8.6c.4,0,.8,0,.8-.4.2-.7.7-.7,1.3-.7,1.5,0,2.8-.7,4.1-1.2s1.5-.4,2.1-.7,2.4-1.3,3-1.5,1.1.2,1.1.7v1.6c.1,1,0,1.8-.2,2.8l-.5,1.6c-.2.6-.4,1.6-.7,2.1-.4.6-.7.8-.7,1.6s-.5,1-.8,1.5c-1.3,1.9-2.1,2.1-2.8,3-1.2,1.5-1.5,1.6-3,2.5l-2.2,1.3c-.4.2-1,.8-1.2,1.1-.1,1.3-.7,2.4-.5,3.5,1.1.6,2.2,0,3.1-.5s1.5-.5,2.1-.5,1.3.2,2.1.4.5.4.6.5c.2.8-2.1.8-2.5.8s-1,.4-1.5.7c-1.2.8-3,.5-2.8,1,.5,1,2.7.7,3,.6.6-.2,1.1-.4,1.6-.6s1.1-.7,1.9,0c-.7.2-.7.7-1,1.1s-1.3.8-1.9,1.1-1,.2-1.6.4-1.3.2-1.9-.1l-.4-1.7c-1.3,1.2-2.1.8-3.4,1.5,1.6,1.5,1.5,1.2,2.4,2.9s.4,1.1.8,1.1c.8,0,1.3-.5,1.9-.8s1.7-.8,2.5-1.2c.5.4,1.2.6,1.5,1.1l1.1,1.3c.2.2.7.7,1,.7h4.2c1,0,1.7.5,2.5.8s1.3.1,1.8.5c2.3,1.3,1.5.4,3.5,1.8s1.5.2,1.9,0c1.5-1.1,2.2-.8,4.4-2.4s.6-.6,1-.8c1.1-.6,1.6-1.2,2.3-1.8l1.9-1.8c.4-.4.7-.6.8-1.1.2-1.1,1.3-.6,1.6-3.5l-1.2-1.2c2.3-3.1.4-2.2,1-4.5s0-1.3-.4-1.8l-1.1-1.7c0-.2-2.2-1.7-2.5-1.9h-1l-1-.6c-.2-.1-1,.2-1.3.4-1.1-.2-1.8-1.5-1.9-2.5s-.2-1.1-.7-1.7-.4-1.1-.6-1.5c-.5-.7-1.2-1.9-1-2.8s.6-.5.8-.7c.6-.6,1.1-.6,1.9-.7s2.1.2,3,.6,1.6.1,2.2.4,1.2.5,1.7.7,1.3.4,1.8.8.7.6,1.3.7,1.3.5,1.3,1.3v1.8c0,.4-.4.8-.6,1.1.2.2.6,1,.8,1.2l1.3.8c1.9,1.3.4,1.9.5,3.7l.2,2.4v1.5c0,.5,0,1.1.4,1.3.8-.2,1.6-.6,2.2-1.1l1.6,1.2c.4.2.7.6,1.2.7l1.8.5c.5,0,.6,1.5,3.6.2-.6-.5-.8-1-1.2-1.6s-.8-1.3-.4-2.2,1.2-.6,1.7-.7l1.9-.2,2.4.2c.7,0,1.3.2,2.1.4s1,.5,1.5.6,1.1.4,1.5.7.7.7,1.2,1.1l.6,1c1.3,0,1.7,1,2.2,1.9l1.1,2.3c.4.2.8.8,1.2,1l2.2.7c1.2.4,1.8,0,2.5,0,1.8.4,3.1-1.3,4-2.7s.6-1,.7-1.5.5-.8.8-1.2c0-.4.2-1.1.2-1.3,0-1,.5-1.5.7-2.3.4-1.6.7-3.3.7-5v-3c-.1-1.2,0-2.7-.6-3.5l-.5-.7c-.2-.4-.4-1.2-.7-1.3l-1.9-1.2c-.6-.4-2.1-.6-2.7,0l-1.1,1c-.1,1-.4,1.9-.4,2.9s-.4,1.1-.7,1.7-.4,1.6-.6,2.3c-.5,1.6-1.1.6-2.4,1.1-.6,1.9.6,2.2-.2,3.9-.4.4-.8.6-.8,1.2s-.8,1.7-1.7,1.5-.6-1-.6-1.5v-3.6c0-1.3.5-2.7-.2-3.9-.2-.2-.7.2-.8.5-1.3,1.7-.5,2.3-1.8,2.5s-1.5,0-2.1-.7c-1.2-1.2-.5-.7-1.5-2.4,0-.6.4-1.6.8-1.9,1.8-1.5,1.7-.6,2.8-1.9s.5-.5.5-.7c-1.8-.8-2.7.8-3.4,1.8s-.5.7-.7,1.1c-.1.1-.6.4-.8.5s-.6.7-.8.7-1.2,0-1.5-.5c-1.2-3.5,1.2-2.8.7-4.4s.5-1,.7-1.3c.4-.6,1-.7,1.3-1.1.8-.7,1.8-1.5,3.1-1.3.4-.5.8-1,1.6-.8s1.3-.2,1.9-.6c1.9-.8,4.2.1,4-1.6s.2-1.9.7-2.8c1.7-3,1.3-1.2,1.6-4.7.6-1.3,2.2-1.7,3.4-1.9s1-.2,1.3.2c.6.7-.6,1.6.4,2.4,1.6-.7-.4-1.8.8-2.4s3.4-.2,4.5.7.4,1.6,1.2,4,1.5,2.8.2,3.5c-2.9-3.6-3.7-1.9-5.1-2.9s-1.5.5-4.1.4-1.7,0-2.3.5l-.8,1.3c-.2.5-1.2,1.9-.5,2.5s.6,0,.8-.2c.7-.6,1.5-1,2.3-1.3,2.4-1,2.8-.8,4.7,0s1.5.5,1.9,1.1c.8,1,1.9,1.8,2.5,3l.8,1.7c.4.7.5,1.7.7,2.5s.7,1.3.7,2.1v3.1c0,1.2.1,2.2,0,3.4s0,2.9-.4,4.4-.6,1.1-.7,1.7c0,1.1-.4,1.9-1,2.9s-.2,1.6-.6,2.2-.8,1-.8,1.7-.5.8-.7,1.2l-1.1,1.6c-.5.7-.8,1.3-1.5,1.9s-1.3,1.1-2.4,1.3-1.2.7-1.8.6c-4.2,0-2.8-.7-5.3-1.1s-1.2-.5-1.8-.8-1.7-.5-2.5-.8-.6-.2-.8-.4l-3.1-.4-.7.6c.5,2.1.8,1,1.6,3.6.7.1,1.5.2,2.1.2,1,0,1.7.5,2.7.7s2.3.4,3.3,1.2,1.6.4,2.4.5c1.7.1,5,.5,6-1.1l1-.5c.6-1.6,1-.8,1.8-2.7l.7-.7c.5-1.8,1.5-.6,1.3-1.9s.4-1.1.7-1.5c.2-.5.2-1.2.6-1.7s.7-.8.7-1.5.6-1.2.8-1.8c.5-1.3.8-3,1.1-3.7.5-1.1.4-2.4.7-3.5.5-1.7.8-3.3.7-5.1,0-4.4-1.3-3.4-.8-6.4s.4-.5.5-.4c.5.2.6,1.1,1.1,1.9s.6.7.6,1.1l1,3.3c.4,1.2,1.5,4.6-.4,4.8l-.6.5c-.6.5-1.1,1-1.1,1.8l.5.6c.5-.2.8-.6,1.2-1.1,1,.4,1.1,1.3.8,2.3s-.5,2.5-1.3,3.6-1.3.8-1.8,1.3l-1.2,1.1c-.5.5-1.1,1.2-1.5,1.7l-1.3,2.1-.8,1.6-1.2,2.1c-.6,1.1-1.2,2.1-2.2,2.9-1.7,1.6-1.5,2.2-3.1,1.9s-2.7,0-4,0-1.2-.1-1.7,0c-2.3.2-2.5-1-6-1.1h-2.3l-.7,1.1c-1.3,2.3.2,1.2-1.7,4.7-1.9,3.5-.4,1-.8,1.2-1,.5-.2,1-1.5,2.2s-1.3,1-2.1,1.3c-1.1,1.5-1.2.7-2.8,1.2s-3,.5-4.6,0-2.1.1-3.9-1.2-1.7-1.5-2.2-2.1l-.5-.6c-.6-.8-1.8-5.3-.8-6.8s.5-.7.6-1.2c0-.6.6-1,.8-1.3.4-.6.7-1.3,1.6-1.3l1.2-.7,3.1-.5c-.5-.5-1-.4-1.6-.4s-1.9-.4-2.5,0-.8.8-1.5.8-1,.4-1.5.8-1,.5-1.2.7c-.4.5-1,.7-1.5,1.1.2-.2-3.9,3-3.1,2.7l-1.2.7-1.3,1.2c-.5.5-.8.8-1.6,1.1l-1.5,1.2-1.5,1.1-1.2,1.2c-.6.6-.7,1.6-1.7,1.8l-.5,1c-.7-1-.4-1.8.2-2.5,0-.5,0-1.5-.1-1.9-1-3.5-.7-3.1-2.4-6.3-.2-.4-.6-.8-1-1.2-1.6-1.9-1.7-1-2.3-2.3-1.2,0-2.2-.8-3.3-1.2-2.3-.7-4.8-.1-7.1.5s-1,0-1.2.2c-.7.4-2.1,1-2.5.6s0-1.6-.8-1.5l-1.3.4.6,2.3c-.7,1.2-1.2.5-2.7,1.7l-1.6,1.3c-1.3,1.1-1.8,1.2-2.5,1.7l-1.3,1.1c-.5.5-.8.7-1.5,1.1s-.6,1.1-1.6,1.1l1,.7s.4.4.2.5-.1.4-.2.5l-1.2,1.2c-.4.5-1.1.5-1,1.3l-1.2.5c.4.2,1.3.4,1.6,0,.5-.5.8-.7,1.3-1l2.3-1.2c.8-.5,1.6-.8,2.5-1.2s1.2-.8,1.9-.8,1-.4,1.5-.6,1.6-.4,2.1-.7c.6-.5,1.1-.7,1.9-.8,3.4-.2,1-.8,3.9-1s3.7-1,6.2.6c.4.2,1,.4,1.1.7.2.5.5,1,.8,1.3.6.8.2,1.9.2,2.9,0,1.9-1,2.2-2.2,2.9s-.8.7-1.3.8l-1.9.4c1.3.4,3.4.7,4.5-.1s.8-.7,1.2-1.2l.4-.2ZM144.2,12.5c.8-.6,2.2-.6,3.3-.6s.4-1.2,4-1.2l1-1c1.3.7,1.1,2.8.1,3.5s-.6-.8-1-1.1-.5,0-.7,0h-2.1c-.6,1.3-1.9,1.2-3.1,1.1s0,1.2-3.3,1.1-1.2,0-1.8.4c.8.7,1.6.4,2.5.4h1.6c1.3-.7,2.7-1,4.2-.8s.6-1.5,2.8-.5v2.2c-.4.6-1,1.2-.1,1.8.1-.5.2-.8.2-1.5h1c.5-1.5,0-1.8,1.1-2.5.5-1,0-2.8.6-3.5s1.3-2.4.4-2.7c-.2.1-.6.5-.8.7-.6.7-1.8.4-2.4.8s-.7.8-1.6.8h-1.9c-.5-.2-1,0-1.2.2-.6.7-1.5.2-2.2.4-1.7.2-3.4.6-5.1.7s-1,0-1.5.5-1.6.7-2.4.8h-.2c0,.2-.2,0-.2,0,.4,0,0-1.3,1.1-2.5s.4-1.7.5-2.4,0-1.9-1-2.3v-1.9c-1.5-.8-1.7.1-2.8-1.2s-1.7-.2-2.2.2l-1.3,1.2c-.4.2-1.1.5-1.7.7l-.4,1.9c-.7-.2-.2-1.3-1-2.9.2-1,1.8-.5,2.3-1l1-1c.7-.6,1.1-1.5,2.1-1.9.4.4.6.7,1,1.1,2.1,1.7,3.3,1.1,3.6,2.3l.5-.7c.7-1.2.2-1,0-3s-.1-1.9-.5-2.8l-1.2.4c-.2.5-.5,1.2-1,1.6s-1.2,0-1.6-.4c-1-.8-.4-2.1-.7-2.4-1.2-1.3-.2-1.2-1.3-2.3-.8,1.1-.8,2.3-1.1,3.5l-.5,1.9c-.2.8-.6,1.2-1.5,1.2s-1-.4-1.5-.7-1-.6-1.2-1.3h-1.2c-.6.1-.1.8-.2,1.3,0,.8.1,1.6.4,2.4s-.1,1.3.2,1.9.5,1.7.7,2.5.5.6.6,1,0,1-.5,1.2c-.4-.4-.7-.8-1-1.2l-1-1.1c-2.5-3-1.6-1.6-3.9-3.4s-1.3-.5-1.7-.8c-.6-.6-1.5-1-2.2-.5-.2,1.1.2,2.4-1,3-2.2,1.1-2.4-1.8-4.4-1.8-.7,1.3-.4,2.9.7,3.9l.6,2.1c-.2.4-.8.8-1.3,1h-2.9s-.5.1-.5.2c.4.7,0,1.5,1,1.7s.6.6.8.8c.5.4,1,.8,1.5,1.1s1,.6,1.5,1.1c.4.4,1.3.5,1.7.7,2.1,1.5.8-.1,2.9,1.5s1.1.2,1.7.2,1.6.2,2.3.2h2.9c.7-.1,1.1-.5,1.6-.8,1-.8,1.7-1.3,2.2-2.5.7-1.8-.5-1.3.7-2.4l.7.8c.6.2,1.1.6,1.5,1.2.4.1,1,.4,1.3.4.6,0,5.1-.4,3.7,1.1l-1,1.1s-.2.2-.4.2c-.6.1,0-1-1.8-1s-2.5.2-3.5,1.3c0,.6.2,1.3.6,1.8,1.7-.5,1.3-1.2,2.7-1.3s1.3-.2,1.9-.2,1,1.1.8,1.7-.2,1.1-.8,1.3c-.2-.2-.5-.7-.7-1-.4-.5-1.3-.4-1.7,0-.8,1-1.2.5-1.3,1.1s.2.6.5.6l1.3-.2c1.3.4,3.6-.2,4.6.6l.8.8c.8-1.1,1-1.5,1-2.4s.1-1.7.4-2.5.6-1,1.1-1.2l1.5-.7c1-1.8,1.5,0,3.9-1.7v-.5ZM222.6-1c0-.2,0-.8-.2-1l-1.1-.2c-.6.7-.7,1.5,0,2.2.5-.1,1.2-.5,1.3-.8h0ZM199.2,32.8c-.1,0-.5.2-.5.4,0,.2,2.2,1.5,1.8,1.2l1.9.8c.7.4,1.3.8,2.2,1s1.1.4,1,1.2h1.1c1.3-.4,2.3.2,3.5.7s2.3.2,3.4.5,1.6.2,2.4,0,1.1-.2,1.6-.6,1-.7,1.3-1.1l1.1-1.3c.5-.6,1-1.3,1.3-1.9l1.1-2.2.6-2.3c.1-.6.7-1.1.6-1.8s.2-3.7,1-4.2c.1-2.5.2-5.2,0-7.7-.6-.8-1-2.8-1.2-3.3s-.8-1-.8-1.7-.6-.5-.7-.8l-.8-1.5c-.6-.4-1-.7-1.5-1.1-.8-.6-2.4-.8-3.3-.2s-.8,1-1.2,1.1,0,.4,0,.4c1.1.6,1.1-1,4.2,0s1.1.8,1.6,1.2,1,1.1,1.1,1.8c.2,1.5,1.2-.2,1.2,2.8s.8,2.3.8,3.9v4.8c-.4.2-.7.5-.7,1v2.3c0,.6-.5,1.1-.8,1.5-.5.7-.2,1.8-.8,2.5s-.6.8-.7,1.3-.6,1-1,1.5c-.7,1.2-.8,1.6-2.2,2.5s-1.1.8-1.7.7h-5.3c-.7,0-1.5-.5-2.1-.7-1-.4-2.1-.4-3-.8s-1.2-.6-1.9-.7c-2.4-.2-.2-.8-4.2-1.2l-.2.2ZM205.3,10.7c.6.1.8.6.8,1.2l-.2,1.3c-.4,2.1,1.5.8,2.9,2.8.4.6,1.9,1.1,2.3.2l1-2.3c.2-2.3.1-2.4-.8-4.1s-.5-.8-.8-1.1-.4-.7-.6-.8c-.4-.1-1.1-.1-1.6,0-1,1-2.2,1.3-3.5,1.2s-.7.2-1.2.5c-1.1.8-1.9,0-2.7,1.1s-1.9.7-1.7,2.1.4.4.5.4.2-.4.2-.5c.2-1.5,1.2-.1,1.2-1.7h1.9c.8-.1,1.7-.2,2.4,0v-.2ZM94.6,24c0,.5-.4.8-.5,1.2.1.2.5.5.5.7,1.2,2.7,1.3,1.7,1.5,4.8v7.7l-.2,2.1c0,.1,0,.5.1.6s.5.2.6,0c.4-.5,1-1.1,1.6-1.2.5-3-1.3-1.1-1.3-5.3v-10.6c-.1-.5-.5-.6-.8-1-1.1-.8-1.1-1.3-1.6-2.5s.2-1,.5-1.3c-.6-1.8-.2-.5-1.9-2.3s-.6-.6-.7-1.1-.4-.7-.6-.7c-1-.2-1.2-1.2-1.7-1.9l-1.6-1.9c-.5-.6-1.5-.8-2.2-1.3-1.7,1.2-1.2,2.2-2.3,2.7-1.6.7.2,2.1-1.3,2.8s-1.1.7-1.5,1.2-.7.8-1,1.3-.6.8-.8,1.3l-.8,1.3c-.5.7-.7,1.3-.2,2.3,0-.7.8-.6,1.1-1.1l1.2-1.5c.2-.2.5-.6.7-.8s.7-.5.8-1,.7-.8,1-1.2.5-1,1-1.3c.8-1.8.8-.8,1.7-2.9s.8-.6,1.2-.6c1.6,0,1.5,2.1,2.3,2.5s.8.5,1.2,1l1.3,1.8c.4.5.7,1,.8,1.6s.7.8.8,1.3l.5,2.3c0,.2.7.6.6,1h.1ZM177.3,18.8c.8.8,1.6,2.3,1.9,3.5s.2.8.6,1c1-.5,0-1.1,1.2-2.2s.2-.2.2-.4-.1-.4-.2-.4c-.5-.2-.7-.8-1-1.3-.5-.7-1-1.3-1.1-2.3-1.5-1.2-1-2.7-1.3-4.4-4,0-2.7-1.1-5.3-1.3s-1.8-.4-2.7-.5-.8.6-.7.8l.5,1.3c.6,1.7.8.1,1.1,3.3.4.4,1.2,0,1.6-.1-.2-.1-.8-.5-.8-.7l-.4-2.7,1.1-.4c.5.5,1.1.7,1.7,1.1s.8.6,1.5.7c1.5.2,2.4,1.7,1.8,2.3s-.8.6-1.3.7l1.3.7c.2.1.4.6.6.8l-.2.2ZM148.8,16.5c.2,0,.7-.2,1.1-.4-.1-.2-.6-.6-1-.6s-.5.2-1,.6c0,.1.6.5.8.5h0ZM146.7,18.6l.7-1.5c-.6-1-3.6-.2-4.6,0-.1.6,0,1.2.2,1.8,1.7-.7,2.2-1.7,3.6-.4ZM88.7,20.4c-.5-.4-.8-.7-1.3-1.1s-1-.2-1.2-.7c0-.2.6-.5,1-.5s1.8,1.2,1.8,2.1c.2,0,.6.1.8.2s.2.6.2.8v1.8c.1.1.4.5.6.6.4-.4.5-.7.5-1.2.2-3.5-1.2-2.4-1.5-4l-.8-.6-.4-1.1c-2.5-.2-3.9.4-5.1,2.7s.2.5.4.4c.7-.1.4-.7,1.2-.8s.8.2,1,.5c-.4.4-.8.7-1.1,1.1l-1.1,1.6-.8,1.5c0,.2-.6.7-.4.8,1.8,1,2.9.2,2.7,1.8l1.9.2,1-1.2c.5-.6.7-1.1.7-2.1s0-2.1-.2-2.8h.1ZM113.7,28.8c.2-.4.6-1.2.8-1.6s.5,0,.5-.1c.4-.8,0-1.5,1.2-1.7l.4-1.3c0-.2.5-.6.7-.7,0-.6.1-1.2.8-1.3.5-.7,1.1-1.9,2.1-2.1s3.1.1,3.5.7c1-.8,2.7-.5,2.7-1.1s0-1-.1-1.5c-3.6-1.3-4.1,1.2-7.3,1l-.5,1c-.2,0-.8.4-.8.7s-.6.7-.7,1c-.4.6-.6,1.3-1.3,1.6l-.6,1.1-.7.6c-.1.5-.6.8-.8,1.2l-1.3,2.1c-.4.5-.5,1-1.1,1.2-.2.4-.5,1.1-.6,1.6s.5.4.6.4.4-.2.5-.4c1.2-1.3.8-.5,2.1-2.3h.1ZM147.7,21c.1,0,.5-.2.5-.4,0-.8-1.9-.4-2.4-.2-1.1.2-2.5,0-3.5-.6s-1.5-1.3-2.4-1.6l-.6,1.3c-.4.8.1,2.1.6,2.8l1.2.4,2.2-.4c.7-.1,1.8,0,2.4-.5s1.2-.7,2.1-.8h0ZM209,21.2c.2-.2.4-.7.4-1.1,0-.6-.6-1.1-1.1-.8-.2.7,0,1.6.2,2.5l.5-.6ZM121.4,28.2l.7.7c.1.1.6.2.7.1.5-.4.2-.6.7-1s.4,0,.5,0c.4.5-.2.7-.8,1.9s-1.6,1.5-2.5,1.7-1,1.2-3.6,1.1-.5,1.1-3.5.4-1.7-.1-2.5.1c-.8-.7-.5-1.3-1-1.9s-.2.8-1.3,1.6-.7,2.3,0,2.1,1.3-.1,2.2,0,1.5-.2,2.2-.2h2.1c4.1-.6,2.2,0,6.2-1.6s.8-.7,1.5-.8.8-.5,1.3-.7l.8-.6,1-1.2c1.5-1.8,1.2-.7,1.6-3.3s.5-1,.6-1.5c.4-1.2.4-2.5.1-3.9-1.1-.1-2.1-.1-3,0s-.7.6-.8,1c-.4,1.8,1,.8.7,2.4l-.4,2.9c-.2,0-.5-.2-.6-.5-.4-1.7-1.7-.1-1.2-3,0-.2-.5-.5-.7-.4s-.5.4-.8.6-1.1,0-1.5-.1c.8-1.3.2-1.6,1-2.2l.4-.2s0-.4-.2-.4c-1.9.1-.8.5-2.5,1l-.7,1c-1.5.4-.4,1.8-1.3,2.1s-.5.2-.5.6c0,.7-.4,1.1-1.1,1.1,0,.7,0,1.5.2,2.2.2.1.7,0,.8-.4.6-1.1,1.2-.6,1.3-1l.4-.7c.5.8-.1,1.5-.6,1.9s-.2.8-.6,1c-.6,0-1,.2-1.3.7.6.5,1.3.6,2.1.4s.7-.4,1.1-.6c1.1-.7,1.7-1,2.8-2.3h.5ZM140.9,24c-.2-.1-.8-.4-1.1-.4l-1.2.4,1.2.7,1.1-.8h0ZM181.1,27.8l.6-1.2c.1-.2-.4-1-.5-1.2l-1.2.5c-.2,0-.6.5-.7.6s.1.8.5,1.1,1.1.4,1.5.2h-.1ZM91.7,27.8l1.2.8c.2-.2.4-.6.4-.8s-.4-.6-.7-.7l-.5-.8c-.5-.2-1-.5-1.3-.7-.2.4-.6.6-1.1.7-1.1.4.1,1-1.5,1.5,1.2,1,1.9-1,3.6.2h-.1ZM140.8,29c.2,0,.5-.4.5-.5s-.4-.4-.6-.5c-1-.6,1.6-1.5.8-1.7l-1.7-.7c-.4,0-1.1.2-1.6.4s-.2,2.2.4,2.2h1.8c0,.2.1.8.4.8ZM140.2,29.8c-.8-1-3.3,0-3.4-.8-.4-1.7.6-3.1,0-3.4-1-.4-.8,1.7-.7,2.2s0,1.6.2,2.1c.7.8,3,.4,3.9,0ZM131.4,26.4c0-.1-.4-.5-.6-.5s-.4.2-.5.4,0,.8.2.7.6-.4.8-.7h0ZM87.2,34.9l1.2-.5c1.1,1.5,0,2.8,1.1,4.1,1.1-.1,2.3-.5,3.4-.7.6-.5.2-1.5.4-2.1s.1-1.5-.1-2.3l.5-1.6c-1.6-.7-.6-1.9-1.1-2.4s-1.3-.2-1.8-.8c-.6.6-1.1,0-1.6,1.2s-.5.8-.7,1.3-.2.8-.6.8c-1.3,0-.7-1.9-1.6-3.5s-.5-1-.6-1.6c-.2-1-1.5-1.1-2.3-.8s-.7.4-1.2.6-1.3.6-1.8.8c-.2,1.2-1.6,1-1.2,1.3l.2.2c.2.1.5.4.6.5.5.7-.6,2.4-.7,2.5-.4.7-.5,1.6-.6,2.4,1.2,2.1,2.2,1.1,3.5,2.2.6.7,1.2,1.2,2.3.7s.8-.4.8-.7c.1-1-.2-1.6-.5-2.4l-.7-2.5c0-.2-.7-.5-.7-.8s.2-.8.4-1.1l.8,1.2c.4.2.7.5,1,1,.5,1.3,1-.2,1.7,2.9ZM206.4,32.1c-1.5-1.8-1.6-1-2.3-2.5-.5-.4-1.5-.4-1.8-.8-.6-.7-1.1-1.3-1.9-1.6s-1.5-.6-2.2-.5c-2.1.5-1.9-1.2-4.2-.2.5.2.5,1,.8,1.3s.8.7,1.2,1l2.3,1.3,1.5.7c1.1.5,2.8.5,4.2,1.2s1.6.8,2.5.2h-.1ZM131.1,32.1c0-.1,0-.6.2-.7.7,0,1.8-.6,1.8-1.5s-.7-1.3-1-1.5-.8,0-1,.1c-.2.5-.4,1.5-.2,2.1v.5s-.5.1-.5,0l-.4-2.8c0-.5-.2-.7-.7-.8-.5,1.7-.5,2.3-.4,3.9s.1,1.6.8,2.2,1.9,1,2.9.5c.6,0,1.1,1.2,1.5,1.1.5-.2.2-2.4,0-3.1-.1.2-.4.7-.7.8-.6.2-1.9.2-2.3-.6h-.1ZM229.8,28.7l-.2-.4c-.2-.4-.6-.4-1-.1s-.2.6,0,1l.6,1,.6-1.5ZM187.1,30.4c.2,0,.1-.7,0-.8s-.5-.5-.8-.5c-.6,0-1,.2-1.2.6s0,1.1.6,1.1,1.1,0,1.3-.2h.1ZM94.1,29.6c-.6.4-.6,1.1-.1,1.8.5-.5.4-1.2.1-1.8ZM192.1,35.9c-.5-.4-.8-.8-1.6-.8h-4c-1.2,1.8-3,.1-3.1,1.7l-1.2.5-.7-.6c.6-.8,1.6-.4,1.7-.6l.2-.5c.2-.6,1.1-.8,1.8-.8,1.7-1.5,2.9-.7,5.2-1.1s1.9.4,2.8,1,1.8,1.5,2.3,2.5c1.1.6.7,1.5,1.2,2.7s.6.8.7,1.3l.2,1.9v1.9c0,1.1-.5,1.7-.8,2.5s-.5,1.5-1.2,2.2-.6.8-.8,1.1c-3.4,0-3,.5-5.9-1.3-.6-.7-.5-1.9-.2-2.8.6-2.3,3.1-.6,3.4-1.9s-.8-2.2-1.7-2.8c-4.2-.5-3.3.8-5.2,1.5s-1.3,1-1.2,1.7-.2,2.1-.1,3,.4,1.7.5,2.5l1.2,1.2c.2.2,1.9,1.3,2.4,1.8s1.2.4,1.7.4c.8,0,1.8.4,2.7.4,2.4,0,3-.1,5-1.5s1.7-1.9,2.3-2.3l.6-1.6c.1-.4.8-.7.7-3.3,0-1.5.1-4.7-.4-5.7s-.6-.8-.6-1.3c0-.7-.2-1.2-.6-1.8l-1-1.6c-.4-.5-.6-.8-1-1.3s-2.1-2.1-2.3-2.2l-2.3-1.1c-1.3-.6-3.6-.4-5.1,0s-.6.8-1.3.6-1.9.6-2.4,1.1-1.3.5-1.8.8l-1.3,1c-.8.6-1.7,1.3-2.5,1.9s-.7.4-1.1.7-1.1.5-1.5.8l-1.6,1c-.6.4-1,.8-1.7,1s-.6.4-1,.7l-.8.6c-.5.8-1.7,1.5-2.3,2.2l-1.1,1.3c-.2.2-.1.8,0,1.3h1.5c.4-.6,1-.7,1.5-1.1l2.8-1.8c.1,0,.6,0,.6.1.6.6-1.1.6-1,1.6l-.8.6c-.2.5-.6.8-1.1,1.2l-.5.7c-.5.2-.8.6-1.2,1.1l-.7.8c.1.1.5.4.6.4s.4-.2.5-.5c.5-.5,1.2-.7,1.8-1,1.7-1,1.5-1.1,3.1-2.3l1.5-1.1c.4-.2.7-.7,1.2-1.1l1.5-1,1.9-1.5,1.5-1,1.8-1.2c.5-.4,1-.7,1.7-.8s1.3-.4,2.1-.6l1.7-.5c1.1-.4,2.1.2,2.9.7s1.3.8,1.9,1.3.8.8,1,1.8,0,1.9,0,2.9-.4,1.2-1.1,1.7l-1.5,1c-1.6,1-1.6.5-2.3,1.3s0,.6.2.7c.6.2,1,.7,1.2,1.5.8,0,1.7-.1,2.5-.4.4-.5.7-.8,1.3-1.1l1-2.5c.5-1.5.8-3.9,0-5.3s-.6-1.6-1-2.5-2.4-1.9-3-2.4h-.1ZM179.7,32.5c.5.1,1.2.2,1.5,0s0-.7-.2-.7-.8,0-1.1.1-.2.6,0,.6h-.1ZM138.9,33.3c-.5-.6-1.3-.6-2.1-.2l-.5.2v.6c.1.2.8.4,1.1.2l1.5-.7h0ZM74.5,35.7c.5-.5.4-.8.4-1.6h-1c0,.1.7,1.6.7,1.6h-.1ZM134.6,39.7c.4,1.7,4.4,1,5.4.5.7-1.6.5,0,1.3-1.6s.5-1.7,0-2.7l-.4-.8c-.7,0-1.7,0-2.4.1-.4.5.7,1,.5,1.5s-2.4.8-2.8.2c0,.5,0,1.1-.6,1.3s-1.2,0-1.5-.6c-.4-.1-.8,0-1.2,0,.5.2.7.7.7,1.3l.7.6h.1ZM136.3,36.8c-1.1-.7-.6-1.5-1-1.6s-.5,0-.5.1v.5l.4,1.1h1.1ZM84.3,39.4c.7,0,1.3,0,2.2-.4l-2.8-.8h-1.5c-.6-.1-1.2-.2-1.8-.4s-1.7-.5-2.5-.4-.7.7-.7,1.3-.2,1.2,0,1.5c.4.7,1.1.6,1.7.5l1.7-.2c.5,0,.4-.7,3.9-1.1h-.1ZM150.1,39.6c.4-.2.1-1-.2-1.3s-.4-.8-.7-.8-1,0-1.2.2c-.1.5-.2,1-.4,1.5l1.6.6c.2,0,.8,0,1.1-.2h-.1ZM129.5,38.6c.2-.4.6-.7,1-.8-1.2-.7-4.1.7-3.5,1.5s1.8.8,2.5-.6ZM74.8,39l-.8-.5h-.7c-.1,0-.2.5-.1.6s.5.4.6.4l1.1-.4h0ZM87.5,42.8c1.3,0,4.5,0,5.4.8l1.1-1.1-.6-2.2c-.4-1.2-2.8,0-3.5.2s-1.2.2-1.8.4c-2.8.5-3.1,0-4.7.5.8.6,1.7.7,2.7.7.4.5.8.7,1.5.7h0ZM140.8,42.9c.1,0,.5-.2.5-.4s-.2-.4-.4-.4l-.6.2c.2.2.4.4.6.4h-.1ZM118.7,43.7c.2-.2.2-1.1,0-1.3-.5-.4-1.3-.2-1.7.2s-.4.7-.6,1.1c.7.2,1.6.2,2.3,0ZM113.3,44.8c.8,0,1.8-.6,2.1-1.3l-.7-1.3h-1.1l-.7,1.2c-.2.4.1,1.1.5,1.3h0ZM83.2,43.6c-1.1-.5-2.2-.4-3.3-.5s-1.3-.4-1.7.6c1.2.8,3.7.8,5,0h0ZM152.4,56.7c.1,0,.4-.4.2-.5s-.7,0-1.1,0l.7.5h.1ZM162.1,64.2c0-.4-.2-.8-.5-1.3-.6.5-1,.7-1.3,1.5.4.1.8.4,1.2.5s.6-.4.6-.6ZM156.4,65.4l-.2-.2h-.6c-.1,0,0,.4,0,.5s.5,0,.6,0c0,0,.2-.2.2-.2Z"/>
      <path class="st1" d="M49,100.8c.8.6,1,1.6,1.6,2.2s1.8,1.3,2.4,2.3l1,1.3c2.7,3.9,1.7,3.7,2.4,5.6l.7,1.7c.2.5,0,1.5-.7,1.6-1.8,0-2.4-1.8-4.6-1.5s-1.3-.4-2.1-.5c-3-.7-6.2-.6-9.2,0s-1.7.5-2.5.6-1.7.2-2.5.2-1.2.1-1.8.2l-2.4.2c-.7,0-1.6-.4-2.4-.4h-2.7c-.7,0-1.2-.6-1.7-.8-1.1-.2-1.8-.5-2.8-1.1s-1.6-.4-2.2-.8-1-.6-1.5-.6c-.8,0-1.2-.6-1.8-.8s-1.5-.2-2.1-.8-1.2-.5-1.7-.6c-3.1-.8-.4-1-5.4-1.3s-1.6-.1-2.2-1c-.5,0-1.2,0-1.5.2-1,.6-1.9.7-3.1.7h-4c-.6.1-1.5-.2-1.5-.8s.4-.6.6-.6c.5-.1,1-.7,1.3-.8.7-.2,1.7-.1,2.5-.4,1.7-.4,2.5,0,4.4,0s2.7,0,4,.5q1.3.5,2.1.6c1.1,0,1.9.5,2.9,1s1.2,0,1.7.2l2.8,1.1c1.3.5,4,1.3,5.1,2.1s1.7.4,2.4.5,0,.8,1,1h1.3v-.4c.2,0,0,0,0,0l-1.2-.4c-.5-.1-.7-.4-1.1-.7-.5-.4-1-.7-1.5-1.2s-1-.7-1-1.5c-.2-2.5.5-3.3,1.2-5s.5-1.1.8-1.7.4-1.1.5-1.7c.2-1.3.7-.5,1.3-3.7.2-1.3,1.1-.1,1.1-3.7s0-3.4-.5-5.1l-1.2-1.2-1,1.1c-1.2,0-1.9-.7-2.5-1.6-1.1-1.5-.5-1.1-1.1-2.5-1.3-2.9,0-2.8-.8-3.9-1.1-1.5.1-.8-1.1-3.7-.2-.6,0-1.5-.4-2.1l-.7-1.9-.7-.6c-.1-.5-.2-1.3-.2-1.8s.6-.2.7,0c.6,1,0,1.1,1.2,2.2l.5,1c.6.4,1,.6,1.6,1.1.1-.2.5-.8.5-1.2v-2.8c-.8-.1-1.1-.7-1.2-1.3-.2-1,.2-1.3,1-1.8s.8-.8,1.5-.8h3.4c1.1,0,1.3.5,1.9.7l4.5,1.1c1.7-.4,2.7.5,3.3-1.1l.6-.4c.2-.8,0-1.6-.4-2.4-.6-1.5-1.1-.7-2.3-1.8-.2,0-.8-.2-1.2-.2h-5.1c-2.3,0-3.9-.4-6.2.4s-1.7,0-2.5,0l-1.3.8c-.7,2.1-1.8,2.2-.8,3.6s.4,2.8,0,2.5c-.6-.2-.6-1.1-1.1-1.8s-.7-.6-.7-1.1v-2.4c0-.8.4-1.1.7-1.7,1-1.2,2.7-2.1,4.2-1.9h5.1c.6,0,1.1.1,1.7,0,.8-.1,1.7,0,2.7,0s1.7-.1,2.5-.2c1.6-.2,1.1,0,1.9-1.6-1-2.7-.4-2.3-.8-4.7s-.4-1.1-.6-1.7l-.7-2.2c-2.3,0-2.2,1.3-4.6,1.5s-1.2-.8-1.5-1.5-.6-1.5-.6-2.2c-.1-1.1.4-1.8,1-2.7l1.1-1.5,1.5-1.9c.4-.5.7-.8,1.1-1.3l1.1-1.2c1-1.2,1.3-1.3,2.5-2.1s1.7-1.6,3-1.8c3.3-.7,1.3,0,4.6,0h1.6c1.6,0,1.9,1.1,2.2.5.4-1,.5-2.3.1-3.3l.6-1.2-.7-2.1c0-.2-.4-.5-.6-.7-.4-.5-.5-1.5-.8-1.9-.4-.4-.8-.7-1.1-1.1s-1.1-.5-1.3-.2c-.4.6-.7,1.2-1.1,1.7s-.4,1.2-.7,1.6-.7.7-.7,1.2c-.1,1.2-1.2,1-1.2,1.8s-.5,1.1-.8,1.6-.5.8-1,1.1-.6.4-.8.7c-.5.5-1.3.6-1.9.7l-1.7.6c-.7.2-1.2.5-2.1.2s-1.3,0-1.8-.6-.2-1.3,0-1.7.6-.8.7-1.5.6-1.3,1-1.9.6-1.3,1.1-1.9c.1-.2.4-.8.5-1.2s-.6-.7-.8-.5c-.2.6-.7.8-1.1,1.3l-1.1,1.2-1.1,1.3-1,1.2-1,1.3c-.4.4-.2,1.2-.2,1.7v3.1l.7,1.8v1.7c.1,2.8-1.1,2.9-1.1,2.9v.6c0,.5-.2,1.2-.7,1-.5-.4-.4-1.5,0-1.9.8-1.9-.7-3.4-.6-7.4s-.1-.5-.2-.5h-.4v1.5c-.2.8-.2,1.7-.2,2.5v2.5c.1,1,.4,2.8-.7,3.5s-1-1.5-1-1.7v-1.2c.2-1,0-2.4,0-3.4s-.1-.4-.2-.4c-.2-.2-.5,1-1.2,1.5-.6,1.6-1,2.9.5,4.1,0,.5.1,1.2.1,1.6v1.9c-.1.2,0,.6.2.8s.6,0,.8,0c.6-.1.7-.4,1.1-.8s1.2-1,1.8-1.3c.2,0,.6.4.6.7s-.4.6-.5.8c-.6,1.1-1.3,1.9-2.3,2.8s-1,.7-1.8.8-1.9,0-2.2-1.1.1-1.7.7-2.3c-.1-.4-.5-.8-.4-1.1.6-1.5-.5-1.3-.5-3.6s.1-.7,0-1-.6-.4-.7-.4c-.4.6-.8,1-1.3,1.3s-.7.8-1,1.2-.7.8-1.1,1.2-.6.8-1.1,1.2c.6.5.7,1.1.7,1.8s-.5,1.1-1,1.6c0,1.8-.4,3.6-.5,5.4l-.2,3.3c0,1-.4,1.7-.6,2.7s-.5,1-.8,1.2c-1.3,1.3-1.1.2-2.7,1.7s-1.1.4-1.3.6-.8.6-1.3.7c-.8.2-1.7.6-2.4.7s-1.5-1.3-1.3-2.1v-.5l.5.2h.8c.7.4,1.5.4,1.9-.2.8-.8,1.2,0,2.7-1.6s1.8,0,2.4-.4v-5.2c0-.8-.4-1.9.2-2.7.6-.7.6-1,.7-1.6s.1-1.7.2-2.3-.4-.5-.4-.5c-.6.5.1,1.2-1.2,2.5s-.2,1.5-.2,2.2v3.6c0,.6-.4,1.5-.8,1.7-1.9,0,.1-8.1-1.2-7.7s-.6,1.7-.5,2.7v2.3c.1.7.1,1.7,0,2.4-.6.4-.8,1.2-1.3,1.6s-.8.7-1.2,1.1l-1.2,1.2c-.2.2-.5.5-.8.4-1.5-.4.4-2.5.6-3s.6-1,.8-1.5l1.2-2.2c.5-.8.4-1.7.2-2.5s.4-1.2-.1-1.5c-1.2-.7-3.5,1.6-4.5-.7.5-1.6.8-1,2.2-2.5s.7-.6.8-.8c.2-.7.5-2.3.2-1.9-.5.7-1.5.2-1.5.1l-.8-1c-1.7-2.1-.2-3.3-.6-5.8s0-1,.4-1.2c1-.5,2.1,0,2.7.6l1.7.4c1.7.5.5,1.1,3.9.6l1.1,1.2c.5-.8.8-1.3,1.3-1.9l1.1-1.3,1.1-1.3c.4-.5.7-.8,1.2-1.3s.6-.8.8-1.2c.8-1,1.1-1.7,1.9-2.8s1-1.1.8-1.7-.2-.2-.2-.1v.2c-.5,1-1.2.4-1.9.8s-1,.7-1.7,1-1.5.4-1.9.4-1-1.1-.8-1.6c.4-2.5.8-2.2,1.1-3s-2.3-.1-2.9-1.1l2.7-.7c.6-1.6,1.7-.8,2.3-1.5s1.2-.5,1.7-.8.5-1,1.1-1,1.1-.5,1.5-.8,1.2-.8,1.8-1.2,1.2-.5,1.7-1.1,1.1-.4,1.5-.6c2.1-1.6,1-.5,3.1-1.7s1.2-.5,1.8-.8c2.3-1.1,1.7-.6,4.5-1s.5-.2.5-.4c.2-1.2-2.4-.7-3.3-.5s-2.3.2-3.4.6-1.1.7-1.9.7-1.1.4-1.5.6c-1.1.8-1.3,0-2.8,1.2s-1,.5-1.5.7-.8.6-1.3.7-.8.4-1.2.8-1.1.5-1.6.7-.8.6-1.2.7c-.7.1-1.1.6-1.7.8l-1.5.6c-.6.2-1.1.7-1.7,1s-1.1.2-1.3.4c-1.2.6-2.4,1-3.7,1.2-.4.1-.8.6-1.3.6-2.3-.1-2.8.7-2.2,1l2.3.7h1.6c-1.1,1.5.2,1.3-1.6,2.3-.2.7-.4,1.8-.7,2.4-1.2,1.9-.2,1.2-1.9,3.3h-.1q0,.1.1.2c.2.4.8.5,1.1,0,1.5-1.7,1-.1,3-3.5l1-1.6c.4-.6.5-1.5.6-2.2l-.4-1.1c.7-.7,2.3-.6,3,0l-1.2,1.2c.1,3.9-.8,2.5-1.2,4.2s-1.1,1.9-1.8,2.5-.6.6-1,.7c-.6.2-.8.5-1.2.8s-1.6.2-2.3.4-1.7,0-2.5,0-2.9,0-2.4-1.2.6-1.5.7-2.3.6-1.2.8-1.8c.4-.8.5-1.7,1-2.5,0,0,.8-3,.7-3.4-.5-.7-2.5-2.1-3.1-2.3-.8-.4-1.3-.6-1.9-1.3s-.8-.8-1.1-1.5c-.4-1.2-1.2-1.1-.7-2.1l.7-1.5c.2-.6,1.6-.8,2.2-.7.6.1.8.4,1.1.5l3.3.4c.8,0,1.9,0,2.5.5s.7.7,1.3.6c1.7-.2,1.5,1,2.5,1.2s.7.5,1.1,1,.8,1.1,1.3,1.6l1.8-.4c.7-.6,1.3-1,2.3-1s.5-.8,2.8-1.3c.4-.8,1.2-.8,1.9-1.3s1.1-.7,1.7-1.1.7-.5,1-.6l1.6-.7c-.6-.8-2.5-.2-3.9-1s-.7-.6-1.2-.6c-.8,0-1.3-.4-2.1-.7s-.8-.7-1.2-1.1-1.2-.6-1.1-1.3c.4-2.3,1.7-1,3.3-2.4,2.4-.2,4.4-.2,6.8-.2s1,.7,1.3.7c.7,0,1.5.2,2.2.5l1.2.5c.1.6.2,1.5-.4,1.8s-.6.4-1,.5c0,.4.1.8.4,1.2,1.9-.6,1.3-.8,3.5-1.2v-.2c-.8-.7-.4-1.8-2.1-1.9v-1.6c-.5-.4-.8-.8-.8-1.5s-.2-1.2-.6-1.8,0-3.3,1.3-3c4,.6,3.7-.5,6.5,1s1.7,1.1,2.5,2.2c1.2,1.6.2,1.5,1.3,3.3s.2,1.2.4,1.9.4,1.5.8,1.6l2.8.8c1.3.4,2.8.8,4.2.4s1.9-2.2,3-2.9l1.8.7c1.6.6,3.9,0,4.7,1.7,1.2,2.3,1,3.5,1,6.2s-1,1.7-.6,2.4l1.1,1.1c.5.5,1,.7,1,1.6.1,1.3,0,4.4-1.6,4.7s-2.2-1.9-4-1.2c-.5,1.9-.1,3.9-.4,5.4s-.6,2.1-.1,3,2.4,1.7,3.5,2.9l1,1c.4.5.6,1.5.5,2.1-.2.8-1,1.2-1.6,1.8s.4.8.5,2.7.2,2.5-.2,3.9,0,1.5.5,1.5l4.4-1.1c1.1-.2,2.1-.8,3.4-.5s.8-.2,1.2-.6,3.1-.5,3,.1c-2.1.7-1.5,0-2.8,1.1s-1.8.7-2.7,1.1l-1.6.6-1.9.6c0,.5.2,1.1.4,1.5,2.2-1.5,3.4-.4,3.9-.7s.2-.5.2-.6c.5-.6,1.3-.6,1.9-.7s1.3-.5,1.9-.7,2.1-.2,2.9-.7,1-.7,1.6-.8,1.1,0,1.3-.2c.5-.5,1-.8,1.7-1l1.6-.2c.4-.4.8-.8,1.3-.8h1.5c.2-.6.6-1,1.2-1.1s2.8-.5,2.7.4-2.3,1.1-3,1c-.2.2-.7.7-1.1.7l-1.5.4c-1.5,1.7-2.3.4-3.7,1.7s-1.6.5-2.2.7-1.1.7-1.8.8-1,0-1.2.1c-1.6,1.6-3.4.6-4.1,1.2l-1.3,1.1c-.8-.1-1.7-.1-2.4,0,0,.2-.1.4,0,.4,1.2.7,1.9-.2,3.7.1.5-.7,1.1-.6,1.8-.7s1.8-.2,2.5-.5c1.7-1.7,3-.4,4-1.1s.7-.7,1.3-.7c3.3-.7,1.8-1.2,5-1.5.4-.4,1-.8,1.6-1h1.8c.2-.2.7-.6,1.1-.7,3.1-1,4-.7,7.4-.6s1.7.5,2.5,1.1,1.1,1.1,1.5,1.8,1.3,1.8,1.1,3,0,.8,0,1.5h.4v-1.6c0-1.3.2-2.5,0-3.9-1.1-.8-.7-1.1-1.5-2.1l-2.1-1.3c-.2-.1-.8-.4-1.2-.5s-1.2,0-1.8,0c-1.5.2-2.8-.1-4.2-.1h-2.2c-.1,0-.5-.2-.5-.4,0-.4,1.8-.8,2.5-.5.4,0,1-.4,1.2-.4h4.4c.8,0,1.6-.2,2.4,0s1,.1,1.2.4c1.6,1.5,1.7,1.2,2.8,3.5.6,1.2.4,4.8.5,4.8.2,1.8-.1,3.4-1,5-.8,1.6-.7,1.3-1.2,2.1l-.7,1.5c0,.2-.5.4-.7.5-.7.6-1.6,1-2.3,1.5-1.1.6-1.7.2-2.8-.1s-2.1-1-2.8-2.1-.6-1-.8-1.6-.7-1.2-.7-1.9.6-1,1.2-1.2v-.7c-.1-1.6,0-2.9-.6-4.4-.6,1.7-1.7.5-2.8,2.4s-.6.7-1.2,1.1c-.2.2-.4,1.6-.6,1.6h-.5v-2.3l.8-.6c.1-.4.4-.7.6-1,1.7-1.5.5-.8,3-1.8.1-.2-.2-1-.5-1-.5.2-.7.4-1.2.5-1.1.2-2.3.5-3.4.7s-1.5.6-2.2.6-1.2.4-1.8.8-1.5.1-1.9.5-1.1.8-1.9,1c-2.4.4-2.8,1.2-3.9,1.2h-2.4c-.7.6-1.5,1-2.3.8h-3.1c-.4,0-1-.5-1.5-.5-1.1-.2-1.8-.7-2.7-1.3l-1.3-.7c-.4-.2-1.2-1-1.7-.6l-1.1,1.3c-.4.5-.7.8-1.2,1.2l-1.1.8c-1.5,1.2-1.3,2.1-1.7,3.9l.7,1c1.1.5,2.2.6,3.4.6s1.3.5,2.1,1,1.7.7,2.2,1.5c1.1,1.5,1.1.8,2.3,2.4l.8,1.3c.2.5.4,1.2.7,1.7.5.8.6-.5,1.1,2.9.1,1.1.6.7,1,3.7s0,1.6.4,2.2.4,1.5.5,2.4c.1,1.6.2,3,.2,4.6s.4,1.7.4,2.5c0,1.8.2,3.1,1.3,4.7s.5,1.5,1,2.1.8.8.8,1.6.2,1,.6,1.3.4,1.2.7,1.7c.5.8.8,1.7,1.1,2.5s1,1.6,1,2.7.4,1,.5,1.3.2,1.1.4,1.6c.2.8.2,1.5.4,2.3s.7,1.6.7,2.4,0,1.1.1,1.6v6.4c0,1.7.8,2.2,1.2,2.9s.5.7.8,1.2.5,1,.8,1.3.6.7.8,1.3.6.7.8,1.1c.4.6.4,1.5.7,1.9.6.8,1,1.6.8,2.8.1.5.6,1.1.7,1.6.4,1.7,1.5,1.3,1.1,1.8s-1.7.4-1.9,0c-.4-.5-1-1.2-1.2-1.7-.5-1-.8-1.8-1.3-2.7l-1-1.8c-.4-.7-.5-1.6-1-2.2s-.6-1.2-1-1.6c-.6-.6-.7-1.2-1.1-1.9s-1.8-2.4-2.4-3.7-1.3.1-2.4-3c.8-1.6.2-2.5,1.3-3.3.7,1.2.4,1.1.7,2.9s0,1.5.4,1.9l.6,1.1c.1.2.8.1,1,0s.2-.6.2-1c-.2-1.5,0-2.7,0-4.1v-1.6c-.2-3-.2-1.2-1-3.5s-.1-1.9-.6-2.7-.8-1.1-1-1.9-.5-1.5-.8-2.1-.4-1.3-.6-1.9h-.7c0-.1-.4-2.3-.4-2.3-.8-.5-.5,1.8-.4,2.1.7.2.6.7.7,1.3,0,1,.2,1.9-.5,2.7-1.2-1.9,0-2.5-1.1-3.4s-.5-1.5-.8-1.9-.8-1.1-1-1.8-.2-.7-.6-1c-.5-.4-.5-1.1-.8-1.5-.6-.7-2.1-2.8-2.1-2.7-.6-.7-1.1-1.2-1.1-2.3s0-2.4.5-3.7-.2-1.1-.2-1.5c.1-1.2.1-2.3-.4-3.3s-.8-4-1.6-6-.8-1.3-.8-2.2-.6-.7-.7-1l-.7-1.5-1-1.1-1-1.1-1.1-.7c-.5-1.2-1.3-.6-2.7-1.3-.1.2-.2,1,0,1.1.6.4.7.8,1,1.5s.7.7.8,1.1c.4,1.5,1.2,1.1,1.1,2.2s-.4.5-.6.5c-.5,0-.6-.8-.8-1.1-1.6-1-.4-1.1-2.7-2.5-.6.2-.8.8-1.1,1.3-.8-.2-.6-1-.7-1.6,0-1-.2-1.8.1-2.7s0-1.3,0-1.9v-8.3c0-.8-.7-.5-.8-.4l-.8.6-.7-.7c-.6-.2-.8-.6-1.3-.8-.6-.4-1.2-.8-1.8-1.3s-.8-.6-1.3-.4-.7.5-.8,1.1-.5,1.7.2,2.1l1.9,1.2c.6.4,1.1.7,1.6,1.1,1.1.8.6,1,.6,2.9s-.1,1.1-.6,1.1c-.7-.1-.5-1.9-1.2-2.2-1.2.5-.2,1.6-1.6,1.8s-.4.5-.4.7l.4.7c.4.7,0,1.8-.7,2.3s-1,.4-1.6.5c0,.7-.2,1.7-.2,2.4s.5,1.7,0,2.5-.4,1-.2,1.5c.4,1.7,2.1.8,3.9,1.5l-1.7,1c-.4.2-.8.7-1.3.6-.5-.6-.8-1-1.5-1.3,0-.4-.2-1.1,0-1.3l.5-1.2-1-1.1c.2-.7.2-1.2,0-1.7-.4.7-.6,1.1-1.3,1.3-.6,1.7-1.2,1.3-1.6,2.8.2.5.7,1,1.1,1.3,1.1,1.1,1.2,2.4,1.2,3.7s-.2,1.3-1.1,1.6-.7.4-1.2,0-1-.2-1.1,0c-.1.6,0,1.5,0,2.1.2,1.3.2,2.5.2,3.9s0,1.9-.2,3c-.5,1.9.2,2.5-1,4.4-.6,2.1-.5,1.9-.2,4.1-.6.4-1.3.7-2.1,1l-.7,1.6-.8.6c0,.8-.1,1.8,0,2.5s1.5,1.2,2.1,1.7,1.5,1,2.1,1.5c1.7,1.2.7,0,2.2,1.3s1.6.5,2.2.1l-1-1.3-.8-.6c-.1-.6-.6-.8-1.1-1.1s-1-.7-1.5-1c-.8-.5-1.5-1.2-1.5-2.1s.4-1.6,1-2.2c.7-1.2-.2-1.9,1.1-2.5s.4-1.8,1-2.7.7-1.1.7-1.8.5-1.6.8-2.3.4-1.8.7-2.5.5-1.6.5-2.4v-2.7l-.6-.6c-.2-.2-.1-.7,0-1,.6-.6.7.4,2.1,1.2s.7.2,1.2,0,.8-.6,1.2-1.1l1.5-1.5c.5-.5,1.1-1,1.5-1.6l1-1.5,1.2-2.5c.1-.4.5-.7.8-.8s.8.2,1.1.5c.7,1.2,1.7.6,2.3,2.7s.5.6.7.8c.6.6.1,1.7.5,2.4s1,1.7.7,2.9c-.4,1.9,0,3-.5,3.7-.5-1.7,0-1.3-.6-4-.4-1.6-.6-.5-1.2-2.9s-.5-1-1.6-2.9c-.7-.2-1.3.5-1.7.8l-1,1.2-.8,1.1c-.2.2-.4.8-.6,1-.5.5-1.5,1.6-.7,2.2,1.2.8.4.8,1.7,2.4s.5,1.3.7,1.9c.6,1.5.5,2.8.6,4.4v8.6c0,.6,0,1.3.5,1.5l2.2.7,1.7,1.3c.4.4,1.6,1.8,1.7,2.1l1.7,1.6,1.9,1.5c.6.4,1.9.6,2.5,0s0-1.8-.4-2.4c-1.1-1.5.1-1.1-2.1-3.1s-.7-1-1.1-1.5l-1.1-1.2c-.4-.5-.8-.7-1.1-1.2-.7-1-1.1-1.5,0-3.3.4.2.5.8.7,1.1v.8ZM30.2,12.3c.7.2,1.6,1,2.3.4.4-.5,0-4.4-.2-4.6-.6-.2-1-.6-1.2-1.1l-2.1-1.3c-.5-.4-3.9-.8-4.5.1.5,2.1,0,2.1,1.3,3.6s1.1,1.1,1.7,1.6l1,.7,1.6.7h.1ZM15.1,14.7l2.1.5c.6.1,3.5.4,4-.6s.1-.8,0-1.3-.2-1-1-1c-1.7-.2-.7-1.5-3.9-.6l-1.2-.2c-1,1.3-2.4.2-2.4,1.2s.2.5.5.7l.7.8c.4.4,1,.6,1.3.6h-.1ZM49.7,21.8c-.4.2-.6.4-.6.8s.1.5.2.5.4-.2.5-.4,0-.5,0-.6.4-.1.6-.2c1-2.1,1.9-3,.8-5.3l-.8-1.8c-1.5,0-2.7,0-4.1-.4s-.6,0-.7,0-.4.5-.5.7c-.6,1-.8,2.1-.5,3.1.2-.2.8-.6,1.2-.5s.1,1.1.5,1.3c.6.5,1.6-.6,2.1,0l-.8.6c-.1.1-.2.6,0,.8.5.8,1.1.4,2.1.8v.4ZM37.5,16.3s-.2-.4-.4-.4l-2.1-.2c-.6,0-1.2-.1-1.5.6,1,.1,3.4.6,4,0h-.1ZM39.7,17.2c-.5-.4-1.2-.4-1.8-.1.6.2,1.2.6,1.8.1ZM23.1,25.3c.2-.6.6-.8,1.1-1.2l1.3-1c1.1-.8,2.2-1.5,3.4-2.1s.8-.7,1.5-1l1.2-.5c1-.4,1.8-.8,2.9-1.3-3.1-.7-1.6-.4-4.8,0s-1,.4-1.5.5c-.6.2-1.5.4-2.1.6-2.5,1.6-1.2-.4-4.1,2.3-2.9,2.7-.2,2.2-.6,3.3s.2.6.5.6.8-.2,1.1-.4h.1ZM5.6,48.8c2.2-.7,1.1-.4,2.5-1.9s1-.5,2.4-2.3l1.6-1.8c1-1.2,1.1-.8,1.9-2.3s.7-1,1.2-1.6.6-.8.8-1.2l1.5-1.8,1.1-1.5c.4-.5.6-.8,1-1.3l1.1-1.2c.4-.4.7-1,1.1-1.3l1.1-1.1,1.2-1.2c1.8-1.9,1-.8,3-2.4l1.2-1c.4-.2,1.1-.4,1.5-.7s.7-.7,1.3-.8l1.5-.4c.5-.4,1-.7,1.6-.7h3.7c1.5,0,2.9,0,4.4.5s1.9.2,2.7,1.2l.5-.8-.8-1.2c-.2-.4-.4-1-.6-1.5-.5,0-1,.4-1.3.7-1.6-1.2-3.3,0-5.8-.5l-1.7.6c-.7.2-.8-.2-4.4,1.2s-1.2.2-1.6.6-.7.6-1.2.7-.6.5-.8.7-1.1.5-1.3.8-.8.6-1.3,1l-1.3,1.1c-.2.2-.6.8-1,1.1l-1.3,1.2c-.4.4-.7,1-1.1,1.3l-1,1.2c-.4.4-.8.8-1.1,1.1-.5.6-.8,1.3-1.5,1.9l-1.1,1.3c-.4.4-.6,1-1,1.3l-1.3,1.8c-.4.5-.8,1-1.1,1.5s-.6.8-1,1.3c-.8.8-1.3,1.7-2.2,2.5-1.3,1.5-2.1,1.9-3.4,3.3s-.6.7-1.2.8-.5.2-.5.4.1.6.2.6l1.5-.6.6-.6h-.2ZM.4,23c1,.5,2.7.6,2.5,0s-1.3-1.3-1.6-1.3l-3.6-1.1h-2.3c0,.6,0,1.1.2,1.5l2.3.4c.8.1,1.6.2,2.3.5h.1ZM-4.8,23.4l-.4-.6-1.5-.4c-.1,0-.4.5-.4.6s.4.2.6.4c1.7.5.8,1.5,3.4.7,0,0-1.8-.7-1.8-.7ZM17.4,28.8c.6-2.2,3.7-2.7,2.2-5.9-.4.5-1,.8-1.2,1.2l-1.2,2.2c-.2.5-.5,1-.8,1.3s-.5.8-.4,1.5c.4,0,1.1-.1,1.5-.2ZM53.5,26.4l-.5-1.3c-.8-.5-1.6-.7-2.3-1-.4.8-.8,1.5-1.3,2.2.7.4,1.3.7,1.9,1.3.5.4,1.1.5,1.8.7.2-.6.4-1.2.5-1.9h-.1ZM30.1,33.7c.2-.8,1-1.3,1.7-1.2s1-.2,1.3-.6l1.2-1.1c.5-.4.7-1.1,1-1.6s.7-1.1,1-1.8.6-.6.8-.8c.4-.5,0-1.2-.2-1.8h-1.3c-.2,0-.2.6-.2.7.7,1.3-1,1.2-1.2,2.9s-.5,1-.8,1.3c-1.1,1.2-1.9,2.4-3.4,1.5s-1.1.2-1.3.5,0,1.1.2,1.2c.4.2.7.4,1.1.6l.2.2ZM33.2,25.6c.2,0,.5-.1.8-.2,0,0-.2-.4-.4-.4s-.5,0-1,.2c0,0,.4.5.5.4ZM46.6,32.1c0-.8-.2-1.7.4-2.4s.5-.7.6-1l.5-1.1-.8-1.1c-.2-.2-.7-.6-1.1-1l-.7.7v1.8c0,.6-.4,1.3-.2,1.8.1.8.4,1.6.5,2.3s.1,1.8.2,2.9c.5-.1.6-.5.6-1v-1.9h.1ZM31.1,28.8c.1,0,.2-.4.4-.6.8-1.9.7-.8,1.2-1.8s0-.7-.2-.8c-1,1.6-1.3,1.1-1.6,2.1l-.2,1.1s.4,0,.5.1ZM14.5,26.4s-.2-.4-.4-.4-.5,0-.5.2c0,.4-.1.8.1,1.3,0,0,.7-1.2.7-1.2ZM11.5,31c.2.4,1.9.7,1.8,0l-.2-3.1c0-1.1-.6.6-.7,1.1s0,1-.6,1.5-.4.5-.2.6ZM30.1,30.5c.2-.4.5-1.2,0-1.5-.5,0-.6,1.1-.2,1.5,0,.2.4.4.2,0ZM-4.1,36.3c0-.5.2-.7.8-.7l.7-1.9.6-1c.4-.5.5-1.2.7-1.7,0-.2-.7-.5-1-.4s-.5.5-.7.8c-1,1.2-.5,1.9-1.2,3.7-.5.2-.7,1.5-.4,2.1.2-.4.2-.6.4-.7v-.2ZM32.4,44l1.2-1.2,1.2-1.2,1.1-1.1,1.2-1.2c.4-.4.7-.7,1.2-1.1,1-.8,1.5-1.7,2.1-2.2s.5-.5.4-.7c0-.4-.4-.5-.8-.5-1.5,0-2.8.6-3.6,1.8s-1.8.8-3,1.5c-.2.6-.4,1.5-.8,1.8-.7.1-1.5,0-2.1.4s-.6,1.1-.4,1.5c.4.5.5.8.4,1.5s-1.7,1.3-2.4,1.7l1.5.2.7,1.1c1-1.1,1.6-1.2,2.5-2.3h-.2ZM40.9,47.3c0,.7-.1,1.5-1,1.7-.2,3.6-1.9,2.8-1,7,.4.6.6,1.1,1,1.8.4,0,1.1.2,1.5.2,2.7-1.1,1.2-1.1,2.4-2.9,1.3,1,0,1.9.7,2.5s.6.1.8,0l.7-.2c.8-1.9.6-1.9,2.4-2.2h1.1c-1.3-.7-1.8-1.8-1.9-3s.1-1.2.6-1.7.7-.7,1.1-.8l1.3-.2v-1.3l-1.3-1c-.8-.7-1.7-1.3-1.9-2.5l.8-.5,1.1.5c.2-.5.6-.7,1.2-1,.1-.2.2-.8.2-1.2-.7-.2-.8-.7-1.3-1.2l-1.2-1.2-1.1-1.1c-.4-.4-1-.5-1.3-1s-.8-.6-1.2-.8c-.5-.6-1.3-1-2.1-.2l-1.1,1.2c-.4.4-.8.7-1.2,1l-1.2,1.1c-.4.2-.8.6-1.1,1l-1.2,1.3-1.1,1.2-1,1.5c-.4.5-.5,1.1-.1,1.6.8-.4,1.5-.2,2.1.5s1.2,1.6.6,2.3-1.1,1.2-1.5,1.9.2,2.7.8,2.9.7-.2.7-.5c0-.8-.2-1.9.2-2.7s.8-.6.6-1.2,0-.8.2-1l1-.5c.2-.7.6-1.5,1.2-1.9v-1.8c0-.4-.5-.8-.8-1.2l1.2-1.1-.7-1.1,1.2-.8h4c.5,0,1.1.4,1.1.7.1,2.7-2.2,2.3-2.2,3.7s0,2.8-.7,3.1c-.8-1.1-.4-1.7-1.1-2.9-1,1.1-.2,1.6-1.7,2.2h0ZM5.1,43.6c-.8-.8-.8.1-2.5-1.2-.6-.5-1.1,0-2.3-1.3-.8.6-.6,1.6-.4,2.3s0,1.6.4,2.2l1.1,1.3c1.3-.4,2.4-1.2,3-2.7l.7-.6ZM35.9,48.6c.1,0,.4-.5.4-.6,0-.6-2.1-.5-2.9-1-.4.8-.4,1.7,0,2.4l1-.6,1.7-.2h-.1ZM2.7,50.7c.2,0,.6-.4.7-.4-.5-.5-1-.2-1.2,0,0,.1.4.4.5.4ZM89.8,59.8l.5-1.2c.5-1.1.4-2.4,0-3.5-2.3-2.1-2.4-1.2-3.6-1.8s-1-.2-1.7-.1l-1.5-.2c-.2.1-.4,1.1,0,1.2.6.2,1.3.4,1.9.7s.5.7.7.7c.5.1,1.2.2,1.5.7.4,1.1,0,2.3-.4,3.4.5.8,1.8,1.2,2.5.4v-.2ZM89.6,62.8c0-.8-1.2.5-3.1-1.3s-1.1-.8-1.1-1.7v-2.5c0-.2-1-.2-1,0-.2.8-.2,1.8-.4,2.7s0,1.9.6,2.8c1.3,1.6,5,.8,5,.1ZM61,99.1c.8.4,0-1.9,0-2.2-.4-.7-.7-1.3-.7-2.2s-.4-1.3-.7-1.9-.6-2.2-.7-3.1-1-5-1-5.8v-2.4l-.5-2.4c0-.4-.6-.8-.6-1.3,0-1.1,0-2.2-.5-3.1s-.7-1.2-.8-1.9-.2-.8-.5-1.3l-1-1.3-1.1-1.5c-.2-.4-1.2-.5-1.3-1s-.6-.4-.8-.5c-1.8-.6-.6-1.2-4.4-1s-.8.1-.7.4c0,.4.1,1,.1,1.2.7.4,1.1.7,1.7,1.2,1.3,1.1,3.6,1.5,4.6,2.9s.4.8.6,1.1c1.6,1.6.1.7,1.6,2.3s.5,1.2.8,1.8,1,1.5,1,2.3-.1,2.1.7,3l.2,1.3c-.4,1.7-.4,3.1-.5,4.8s0,1.1,0,1.7c.7,3,0,2.4,1.2,4.6,1,1.9.7,1,1.7,2.8,1.5.7.7,1.2,1.5,1.6h.1ZM29.4,72.7l1.6-2.2c.2-.2.5-.7.7-1l.8-.8-2.4-.5c-.8-.1-1.6-.4-2.4-.6-1.2-.4-2.4-.6-3.7-.8s-1.7.4-1.6,1c0,1.5.2,2.9.7,4.2s1,1.7,1.1,2.8l1.6,1c.5.4.8.1,1.3-.2.5-.4,1-.7,1.5-1.3l1-1.5h-.1ZM28.6,81.6c.4.5,1.5,0,1.9-.2.4-.1-1.7-2.5-1.6-2.4l-1.3-1.1c-1.7-1.3-1.6-.4-2.3-1.6-1.6-.1-3-1-4.2-.7s-.8.8-.8,1.2c0,.8,1.5-.2,1.3,3s.4,1.1.8,1c.8-.2,1.6,0,2.1.7.4-.6.7-1,1.3-1.2l1.1-.5,1.8,1.8h-.1ZM39.6,99.7l.7,1c.5-.7.6-1.5.5-2.3s0-2.3.2-3.4c-.4-.7-.7-1.3-1-2.1s-.4-2.1-.7-2.9l-1.1-2.2c-.2-.4-.5-.7-.8-1.2s-.8-.2-1.2-.1-.6.5-.7,1c-.4,1.1.2,1.8.7,2.7s.7,1.3,1.3,1.9.4,1,.6,1.3c.5.8.6,1.6.6,2.5v2.4c0,.5.7.8,1,1.2h-.1ZM33.4,110l1.2.7c1.1-.4,1.2-2.8,1.2-2.8l.4-1.3c.2-.7,0-1.6,0-2.3l.2-2.1v-2.3l-.2-2.5-.4-2.5c-.2-2.3-.4-1.2-1.2-3.6-.4-.1-1.2,0-1.5.5-.4.6-.2,1.3-.4,1.9s-.4,1.5-.7,2.2-.4,1.7-.7,2.4c-1.3,2.8-.2,2.3-1.6,4s-.4.8-.5,1.3-.5.7-.6,1,.2,1.1.5,1.3c.5.4,1,.8,1.5,1.2l.8.7c.4.5.6.8,1,1.3s.5,1,.8,1.2v-.4ZM61.9,99.4c-.6.6-.4,1.6,0,2.2s.8-1,0-2.2ZM45.5,110.4c.4,0,.8,0,1.1-.4-.1-.2-.5-.6-.8-.8-1.5-1.3-1.5,0-3.1-1.5-.6-.4-2.2-.2-2.7-1.1-.7-1.3-.4-2.9.6-3.9s-.2-1.6-.2-1.7h-.5c-.5.4-1.1.5-1.2,1.1-.2.8-.4,1.7-.5,2.5s-.4,1.8-.6,2.9-.2,3,.2,3c.7,0,3.9,0,4.6-.7,1.1.7,1.3.5,3,.7v-.2Z"/>
      <path class="st0" d="M186.9,19.3c-.2-.6-.7-1-.7-1.7s-.4-1.1-.7-1.6c.2-1.5.5-1.2,1.6-1.8.5-1,0-1.8-.5-2.7s0-1.2,0-1.7l-.5-2.8c0-.5-.4-1-.6-1.3l1-1.6c.1-.2.8-.2,1-.5.6-.4,1.2-.8,1.9-1.1s1-.8,1.3-1.1c1-.7,1.2-1.5,1.1-2.5s0-1.6-.7-2.3c.2-.6.5-1.3.8-1.9s1.1-1.2.6-1.8-1-1.2-.8-2.1c-1.1-1.2-1.2-2.9-.5-4.2l.7-.4c-.4-.7-.4-1.2.1-1.8s.6-.5,1.1-.4,1.6.2,1.9,1v1.6c-.1,1-.5,2.2,0,3s.8,1.9.8,3.1.1.8.4,1.2c.7,1.3.8,2.8.8,4.2.2.5.6,1,.7,1.5.2,1.1-.2,1.9-.6,2.9-.4,1-.1,1.6-.5,2.1l-1.3,1.6c-.1.1-.5.5-.6.7-.1.6,0,1.6.2,2.2s-.6,1-1,1.3-.6.8-1.1,1.2c-.7,2.2-.8,3.7-.6,6s0,1.3.6,2.1.7,1.5.6,2.3c-.1.8-.5.8-.6,1.1-.6,1-1.3,1.6-2.4,2.1-1.1-.6-1.6-1.6-1.8-2.7s-.5-.6-.6-1.1l-.8-1.9-.4-.2ZM194.7,2.5c.5.4.8-1.2.7-2.4s-.2-2.1-.5-3.1.4-1.6,0-2.4l-1.3.7-.4,2.4c0,.5-.2,3.1.2,3.5l1.3,1.2h-.1ZM192.3,7.4c.1,0,.4-.2.4-.4l.6-2.4c-.7-.8-.8-1.5-2.2-1.1l.7.4c.7.4-.6,3.6.6,3.5h-.1ZM189.1,7.9v-1c.1,0,.5-2.3.5-2.3,0-.2-.4-.6-.5-.6-.5,0-1.8,1-1.5,2.5l.2,1.2h1.2ZM190.7,11.2c.2-1.5.8.2,1-2.8.1-3,0-.8-.4-1l-.4,2.4c0,.4-.8.4-1.2.2-.6-.2-1.2-.4-1.7,0,.1.8.4,1.8.6,2.7s1.8-.4,2.1-1.5h0ZM189.8,21.8c0,.1.2.4.4.5s.6-.4.6-.5v-5.7c0-.1-.1-.5-.2-.5s-.4,0-.6.1c-.6.4-1.5.7-1.9,1.1s-.2.5-.2.6l.5.5c.5.5.6,1.2.8,1.9s.6,1.3.8,1.9h-.1Z"/>
      <path class="st3" d="M37.1,118.2c2.2-.4,3.3,0,5.2-.4,1.3.1,5.3.8,6.4.1-1.3-.6-3.7-.1-4.1-1.2-.8-.4-1.7-.4-2.7-.4h-6.4c-.7,0-1.3.5-1.9.7s-1.7,0-2.5,0c-1.8,0-2.5.5-4.4,0-.6-.7-1.6-.8-2.4-1.3s-1.6-.8-2.4-1.2c-1.9-1.3-1.5-.4-3.6-1.6s-2.1-.7-3-1.1c-2.7-1.1-2.1,0-3.4-1s-1.7-.5-2.5-.6-1.2-.1-1.8,0-1.1.2-1.3,0-.4-.7-.8-.7c-1.3-.1-2.7,0-4,.1s-1.1-.1-1.5,0c-2.3.8-3.5.2-3.7,1.2s.5,1,.8,1h1.3c0-.1,1.9-.4,1.9-.4,1.3-.1,2.7-.4,4-.4h1.9l2.3.4c1.1.2,1.8.2,2.8.6l2.8,1c.4,0,.7.6,1.1.7s1.1.2,1.5.5c.6.4,1.1.7,1.8.8,1.1.2,1,.8,2.9,1.3.6.6,1.3.7,2.2,1,2.3.8,4.5,1.5,7,1.2l2.9-.2c1.3,0,2.5-.2,3.9-.5v.2Z"/>
      <path class="st8" d="M97.7,70l-.5,1.1v1.2c-.8,1-2.2,1-3.3,1h-2.5c-.8,0-1.2-.5-1.9-1l-1.8-1.1c-.4-.2-.6-.6-1.1-.6-1.2-.1-2.3-.4-3.5-.6s-.8-.2-1.3-.4c-1.2-.2-2.2-.6-3.3-1.1s-1.1-.6-1.6-1.1-.7-.7-.7-1.1c-.1-1.1,0-1.9,0-3.1s0-2.7.6-3.4.5,0,.5,0c.6,1.8-.2,4.5.7,5.6s.7.8,1,1.1c.6.5,1.2.7,1.8,1.3s2.2-.2,2.8,1.6c1.8,0,3.5,0,5.2.4l2.1.4c.6-.7,1.3-.2,1.9-.4s1.3-.6,2.2-.5.6-.4.8-.7.7-.6.8-.8c.4-.5.5-1,.8-1.3s.6,0,.7-.2c.4-.8-.2-2.2.4-3.4.7.7.5,1.6.4,2.4-.1,1.9-.8,1.1-.7,2.7s-.1,1.5-.5,2.1h0ZM97,70.2s-.2-.4-.4-.5c-.2,0-.5,0-.6.1s.2.6.4.5.5-.1.5-.2h.1Z"/>
      <path class="st7" d="M86.1,152.3c1.9,2.8,1.3.5,2.3,2.5.5-2.2-.2-.8-.4-2.3s-.6-1.1-1-1.7-.8-1.1-1.2-1.6l-1.1-1.3c-.4-.4-.7-.6-1.2-1l-.6-.7c-1.9-.7-1.3-1.2-2.9-1.6-.6-1.3-1-.2-2.2-1.8s-.7-.4-1.1-.5c-1.1-1.7-1.6-.4-2.4-1.7s-.6-.5-.8-.5c-.7-.1-1-.6-1.3-1.1s-1.1-1.3-1.2-2.2-.4-1.1-.8-1.6-.2-.8-.4-1.3-.6-.8-.8-1.2c-.4-.7-.7-1.3-1.2-2.1l-1-1.3c-.5-.7-.8-1.2-1.6-1.8-1.3-1-2.5-2.7-4.4-4s-1-.8-1.5-.1c.2.2.6.5,1.1.5-.2.8.6,1,1,1.3s.8.7,1.3,1.1.7.8,1.1,1.1c.2.2.6.8.8,1.2.4.5.6,1.1,1.2,1.3l.6,1.5c1.5,1.1.4,1.1,1.6,2.2.2.7.2,1.7.7,2.3s.7,1.1.7,1.8.5,1,.7,1.5c1.1,1.6,1.6,1.6,3.1,2.2s1.1.7,1.7.7,1,.4,1.3.8l1.2.5c.1.2.4.8.7.8h1.5c-.1,1,.6,1,1.1,1.3.4.5.6.8,1.1,1.3l1.1,1.1,1.2,1.2c.4.4.8.7,1.1,1.1l1,1.3-.2.6Z"/>
      <path class="st4" d="M59.8,117.4c1.3-.6.5-3.9.2-5.1l.2-1.2-1-1.1c0-2.9-1-2.2-1.2-3.4s-.5-1-.8-1.5-.1-1-.4-1.2l-.8-1c-.5-.6-.7-1.1-1.1-1.7-.6-.8-.8-2.1-.8-3.1v-2.2c.1-.8.1-1.6,0-2.3-1.1-3.5.4-5.7-1-8.1s-1-1.2-1-1.9,0-1.5-.2-2.2c-.5.7-.2,1.5-.2,2.3v2.3c.4,1.6.8,5.2.6,6.8v5.3c0,1.5-.4,2.1,1,3.1l.5,1.2c.6.4.7.8,1.1,1.3s.7.7,1,1.3.6.8.8,1.3c.4.6.6,1.2,1.1,1.8.4,1.1.2,2.5.8,3.5s.8.8.7,1.7-.4,2.3-.4,3.5.6.6.8.6v-.2Z"/>
      <path class="st6" d="M21.3,123.4c.6.4-.5.2,1.9,1.3.2.2.5.8.8.8,1.9.2,3.6,0,5.4-.7-1.8-1.3-3.4-.4-5.1-1.2s-1.1,0-2.4-1.1-1.1-.5-1.6-.6c-.2-.5-.6-1-1.2-1s-.8-.4-1.3-.8-1.2-.6-1.8-.8c-.8-.5-1.7-.8-2.5-1-1.6-.2-3-.4-4.7-.2l-6,.6c-1.1,0-4.7.8-5.6,1.7,1.2.8,3.1,1,4.4,0s1-.7,1.9-.7h2.7c0,.1,6.5.2,6.5.2h1.7c1.5,1.8,2.5.4,3.9,1.9l1.5.5,1.8,1.1h-.2Z"/>
      <path class="st5" d="M54.9,130.1c.5.4.8.4,1.1.6s.2.4.4.2.2-.4.2-.5c-1-1.5-.4-1-1.8-1.8-.8-1.5-1.1-.4-2.2-1.7s-1.1-.5-1.5-.7c-.7-.6-1.3-.8-2.1-1.2s-1.3-1-2.3-1-1.2-.4-1.8-.6c-.8-.4-1.8-.5-2.7-.6l-2.1-.4c-.5,0-1.2-.2-1.7-.2-1.3.2-2.5.2-3.9.4s-3.1.6-4.8,1c.7.5,1.6.6,2.3.6h7.7c1.2,0,2.3.4,3.5.7s2.5.5,3.9.8.8.8,1.6.7,1,0,1.2.4c1.7,1.5,3.5,2.1,3.5,2.1l1.2.8v.4Z"/>
      <path class="st2" d="M91.2,153.2c.5,1.3.8.4,1.6,1.8,0,0,.4,0,.4-.2v-.6c0-.5-.2-.8-.6-1.1,0-1-.6-1.7-1-2.5s-.6-1.1-1.1-1.7c-1.9-2.5-1.2-2.3-3.5-4.4s-.7-.8-1.2-1.2l-1.2-1c-.5-.4-1-.8-1.6-1.2s-1.2-.8-2.1-1-.8-.2-1.1-.5c-.8-1-2.2-.4-2.3,0s.2.4.4.5l1.6.4c.4,1.5,1.3.8,1.9,1.5l1.1,1.1c.5.5.7.8,1.3,1.1l.6.8c.6.4,1.3.6,1.6,1.2s.7,1.1,1.1,1.6l1,1.3,1,1.3.8,1.3c.4.5.7.8,1,1.5h.4Z"/>
      <path class="st16" d="M36.5,76.1c1-.2.7,1.5,1.3,1.5s1.1-1.6,1.2-2.2.6-1.3.6-1.9c.2-1.5.1-3.1-.5-4.6-.7,1.7-1.1,3.5-.7,5.3s0,.4,0,.5-.4,0-.5,0l-1-.7-1.1-.8c-1.1.4-1.2,1.5-.8,2.4s.7,1.1,1.6.8v-.2Z"/>
      <path class="st15" d="M78.5,153.2l.7.8c.1-.2.4-.5.4-.6s-.4-.5-.5-.6l-.8-1.6c-.7-.2-.7-.8-1.2-1.2l-1.1-1.1c-.4-.4-1.6-1-1.9-.2s0,.5.1.6l.8.6c.2.5,1,.8,1.5,1.1,1.6.8,1,1.9,2.2,2.3h-.1Z"/>
      <path class="st12" d="M64.4,145.6c.1,0,5.3.7,4.6-.1l-2.1-.2c-.5,0-1.3,0-1.6-.4s-.5-.7-.8-.8c-1-.6-.5-1.5-1.1-2.8-.7.2-.7.8-.6,1.6.2,1.3-.2,1.9.6,2.2s.8.4,1.1.8v-.2Z"/>
      <path class="st11" d="M57.5,122.7l1.1.5c.1,0,.5-.2.4-.5,0-.2-.4-.5-.6-.5h-.8c.2-1.1-1.2-1.3-1.5-1.3s-.5.4-.5.5c.4.5,1.1.7,1.7.6v.6h.2Z"/>
      <path class="st18" d="M70.5,147.3c.6,0,1.1-.2,1-.7l-1-.5c-.4-.1-1.2-.1-1.3.4,0,.6.8.8,1.5.8h-.1Z"/>
      <path class="st13" d="M126.2,55.5c-.4.4-.8,1.9-.5,2.2s.5.2.6.2c.5-.1,1-2.1,0-2.4h-.1Z"/>
      <path class="st14" d="M53.1,120.3c.5.4,2.1.6,2.3.5s.2-.4,0-.5c-.2-.4-1.9-.8-2.4,0h.1Z"/>
      <path class="st17" d="M126.2,53.4c.4,0,1-.5.7-.8-.2-.5-.5-.7-.7-1.2-.5.5-.7,1.8,0,2.1Z"/>
      <path class="st10" d="M72,147.7c0,.6,1.9.4,1.8.1-.4-.7-1.8-.4-1.8-.1Z"/>
      <path class="st19" d="M50.7,119.2c.5.4,1.2.5,1.6,0-.2-.6-1.1-.5-1.6,0Z"/>
      <path class="st25" d="M125,59.1c.4,0,.5-.8.2-1s-.5.1-.6.4,0,.7.4.6Z"/>
      <path class="st24" d="M123.3,14.6c-1.6.6-4.5.1-6-.4-.2-.2-.7-.6-1-.7l-1.3-.8c-.5-.4-1.2-.6-1.6-1l-1.3-1.2c.2-1.5.7-.5,1.1-2.9s.7-1.3,1.6-1.3,1-.2,1.3-.7l1.2-1.3c.5-.6,1.1-.5,1.7,0s.5.7.4,1.2-.7.4-1.1.6c-.7.2-1.3.5-2.1.6-.7,1.2-1.1,1.2-2.1,2.4s.1.8.4,1c.7.4.6-.8,2.2-1.2,2.3-.5.6-1,2.9-1.6,0-.4,0-1-.1-1.3.6-.6,1.2,0,1.7.4.8.8,2.5,2.4,2.7,3.7.7,1,1.2,2.3.6,3.6s-.7,1-1.1,1.2v-.2ZM121.4,9.1l-1-.7c-.4.4-.7.5-1.1.7-1.8,1.1-1.9.2-3.3,1.6l-.5.5s0,.6.1.6l1.5.4c.2,0,.6.6.8.7l2.5.2c.7,0,1.6-.4,2.3-.6v-1.1"/>
      <path class="st21" d="M132.1,7c.4,0,.6.7,1,.8.2-.6.7-1.1.8-1.6.4-1.2-.8-2.8-2.2-2.5s-1.1.7-1.3,1.2c0,1.1.6,1.8,1.6,2.2h.1Z"/>
      <path class="st20" d="M130.6,11.5c.8.2,1.8.2,2.7,0l-1.8-.4c0-.4-.2-.7-.4-1s-.7-.2-1-.4,0-.7-.2-.8-.5-.2-.8-.2c-.4-.5,0-1.6-.5-2.1s-.7,0-.8,0l.4,1.6c0,.2.5.5.7.7l1,1.2c.2.4.6.8.8,1.3Z"/>
      <path class="st22" d="M135,6c-.7.6.2,1.9.2,3v-.7c.5-.6,1-1.8.4-2.3s-.5,0-.6,0Z"/>
      <path class="st23" d="M134,11.1c.1,0,.4-.2.5-.4s0-.6-.2-.7-.6.1-.6.4.1.8.4.7Z"/>
      <path class="st27" d="M173.7,42.5c.1.7,1.2.4,1.5-.2-.1-.1-.6-.4-.8-.4s-.7.4-.6.6Z"/>
      <path class="st26" d="M137.2,39.1c.7.2,1.3.2,2.1,0,0-.2-2.1-.6-2.1,0Z"/>
      <path class="st9" d="M43.7,50c.5-.5.5-1.2,0-1.7-.4.5-.5,1.1,0,1.7Z"/>
    </g>
  </g>
</svg>