<?xml version="1.0" encoding="UTF-8"?>
<svg id="Layer_1" xmlns="http://www.w3.org/2000/svg" width="205.7" height="146.9" xmlns:xlink="http://www.w3.org/1999/xlink" version="1.1" viewBox="0 0 205.7 146.9">
  <!-- Generator: Adobe Illustrator 30.1.0, SVG Export Plug-In . SVG Version: 2.1.1 Build 136)  -->
  <defs>
    <style>
      .st0 {
        fill: url(#linear-gradient2);
      }

      .st1 {
        fill: url(#linear-gradient1);
      }

      .st2 {
        fill: url(#linear-gradient);
      }
    </style>
    <linearGradient id="linear-gradient" x1="48.6" y1="137.6" x2="85.9" y2="50.6" gradientTransform="translate(0 148) scale(1 -1)" gradientUnits="userSpaceOnUse">
      <stop offset="0" stop-color="#cda288"/>
      <stop offset="1" stop-color="#e5cec1"/>
    </linearGradient>
    <linearGradient id="linear-gradient1" x1="43.3" y1="135.4" x2="80.6" y2="48.4" gradientTransform="translate(0 148) scale(1 -1)" gradientUnits="userSpaceOnUse">
      <stop offset="0" stop-color="#cda288"/>
      <stop offset="1" stop-color="#e5cec1"/>
    </linearGradient>
    <linearGradient id="linear-gradient2" x1="1.9" y1="117.7" x2="39.2" y2="30.6" gradientTransform="translate(0 148) scale(1 -1)" gradientUnits="userSpaceOnUse">
      <stop offset="0" stop-color="#cda288"/>
      <stop offset="1" stop-color="#e5cec1"/>
    </linearGradient>
  </defs>
  <g id="_x31_cwUiw">
    <g>
      <path class="st2" d="M108.9,43.6c3.1-2.4,6.7,1.8,8.3,0s-4-4.4-8.4-3.2-3.9,2.9-4.3,5c-.5,3.1,0,7.3,2.4,9.4,4.4,4,10.6,3.9,16.1,2.7s9-5.2,10.2-10.3c1-4.6,1.2-10-2.3-13.7-7.1-7.5-18.2-10.6-28-8.4-4.8,1.1-8.3,4.6-8.8,9.5s-.6,17.7,2.4,22.9,8.2,8.3,13.8,9.3,8.8,5,7.2,7.4c-1.6,2.4-10.1-3.1-12.1,3.8s.9,3.8,2.6,4.6c4.8,2.1,11.2,2.1,11.7,5.5s-.5,3.9-2.1,4.8c-3.5,1.9-8,1.3-10.6-1.7-4.8-5.4-11.2-8.3-18.4-8.5,2-1,3.9-1.6,4.6-2.8,2.1-3.6-2.3-6.4-3.1-9.4,11.8-4.4,2.7-21.6-3.3-27.2,2.3-1.7,3.6-3.9,3.3-6.6-.9-7-6.5-11.6-13.5-11.4s-3.8.8-5.4,2.1c-5.4-4-11.9-6.5-18.8-6.7-8.2-.2-16.1-.2-24.3.1-5.2.2-10,1.5-14.2,4.5-8,5.9-8.8,14.5-8.4,23.6l.9,17.9c.3,6,1,11.8,1.7,17.6.7,5.8,3.8,11.9,8.7,15.9,7.7,6.2,16.7,8.8,26.4,9.6,14.8,1.3,28.8-1.1,39.1-12.3,2.3-2.4,6.3-2,9.1-3.6s1.8-6.2.5-9.2c9.6,1.7,9.4,7,16.4,11,3,1.7,7.2,1.3,10.1,0s4.4-4.1,4.3-7-2.2-5.5-5.5-6.4l-7.5-2.1c-.4,0-1.2-1-1.4-1.5s1.1-1.7,1.7-1.6l4.9.6c1.5.2,3.5-.5,4.4-1.4s1.7-3.5,1.1-5.3c-1.1-3.7-4.4-6.3-8.4-7s-11.7-3.8-13.7-9.5-1.9-13.4-1.4-20c.6-9.6,18.6-9.2,28.3-2.1,2.7,1.9,5,5,5.4,8.3.6,4.3-1.5,9.9-5.1,12.4s-16.2,3.1-17.8-2.3-1.3-5.5,1-7.3h.2ZM58.2,34.4c7.6,1.4,10.5,6.4,11.5,4.7s0-1.5-.4-1.8c-4.6-3.7-10.1-5.3-16-5.8s-13.7-.9-20.5.4c-10.8,2-10.6,17.8-8.7,25.6s8.4,5.7,7.3,9.6-5.2,0-12.4,1.6-5.8-.2-7.6-3-2.2-6.6-2.4-10.2c-.3-6-1.2-12.1.1-17.9,1.5-6.2,6-11.1,12-12.9s8.8-1.4,13.3-1.5l.7,4.6c-4.8.5-9.8,1.6-12.2,6-3.6,6.4-4.7,18.5-1.6,25.5,1.4,3.2,3.9,7.1,8,6.4-2.8-2.1-5.2-3.5-6.5-6.3-3.1-7.2-2.3-18.9,1.7-25.3s5.1-4.2,8-4.3l12-.7c13.9-.8,22.3,5.8,24.5,5.1s.2-.9,0-1l-.9-.4c-6.1-2.9-12.2-4.7-18.9-5.2l-.6-4.3c6.8,0,12.8,1.2,18.4,4.6,5.6,3.4,3.8,3.7,5.4,5.8,3.6,4.9,8.3,8.4,12.8,12.4,6.8,5.9,10.4,19.6,5,20.9-2.2.6-4.2.9-6,1.9s-5.7,1.6-7.3-1-.7-2.9-.2-3.7c1.5-2.4,5.8-.2,5.8-2.6s-5.9-2.4-8,.8-1,7.7,2.3,9.5,7.1,1.1,10.1-1c1.3,4.4,6.5,7.5,2.3,8.4s-9.1,3.2-8.7,5.7,5.8-1.9,9.3,2.3.7,3.3.3,4.2c-13.1,2.6-9.7,7.2-19.7,11.6s-16.6,5-25.4,3.9l-7.6-.9c4.1-3.1,5.1-8,5.1-13.2,0-8.9,0-19.7-9.9-23.3,3.9-9-7-5.9-7.4-16-.3-7.5-.7-19,9.9-19.7,10.6-.7,15.2-.6,23,.8v-.3ZM43.2,27.5l-.7-4.2c1.6-.2,3.7-.3,4.4.5s.8,2.6.5,3.6h-4.2ZM36.7,27.8l-.8-4.5h5c0-.1.8,4.2.8,4.2l-4.9.4h0ZM76.1,28.1c5.8-.5,10.5,3,11.2,9,.7,6-1.6,4.5-3.5,3.4s-15.2-11.8-7.7-12.4ZM9.8,72.6l-.4-6.5,4.1,4-3.6,2.6h0ZM15.7,94.8c-3.7-4-4.4-9.3-5.1-14.7s0-6.2,3.4-7.7c7-3.1,21.1-3.9,24.5,5s2,9.6,1.9,14.8,0,7.7-2.8,10.7c-5.1,5.4-17.7-3.6-21.9-8.1Z"/>
      <path class="st1" d="M48,50.6c-2,.6,4,2,5.9,3.2,5.9,3.7,15.5,3.2,16-2.1l.4-4.5c-5.1-.7-9.9-.8-14.5,1.1s-2.7.7-7.8,2.3ZM54.3,51.4c4.4-2.6,9-2.7,13.4-2.2.3,1.1,0,3-.6,3.6-2.2,2.2-10.2,1.5-12.9-1.4h.1Z"/>
      <path class="st0" d="M23.2,83.2c-2.7,1.3-1.9,5.4,0,7.1s5.3,1.9,7-.6.3-4.1-.6-5.3c-1.3-1.7-4.1-2.2-6.4-1.1h0ZM24,84.5c1.1-.6,3.3-.3,4.1.4s1.4,2.8.9,3.7c-1,2-3.7,1.7-4.8.7s-1.8-3.7-.1-4.7h-.1Z"/>
    </g>
  </g>
</svg>