<?xml version="1.0" encoding="UTF-8"?>
<svg id="Layer_1" xmlns="http://www.w3.org/2000/svg" width="396.9" height="107.7" version="1.1" viewBox="0 0 396.9 107.7">
  <!-- Generator: Adobe Illustrator 30.1.0, SVG Export Plug-In . SVG Version: 2.1.1 Build 136)  -->
  <defs>
    <style>
      .st0 {
        fill-rule: evenodd;
      }

      .st0, .st1 {
        fill: #fff;
      }
    </style>
  </defs>
  <g>
    <path class="st1" d="M112.3,27.3h3.5v10.2c0,1.1.1,2,.4,2.5.4.9,1.3,1.4,2.7,1.4s2.3-.5,2.7-1.4c.3-.5.4-1.4.4-2.5v-10.2h3.5v10.2c0,1.8-.3,3.1-.8,4.1-1,1.8-3,2.7-5.8,2.7s-4.8-.9-5.8-2.7c-.5-1-.8-2.3-.8-4.1v-10.2h0Z"/>
    <path class="st1" d="M128.9,27.3h3.6l6.6,11.5v-11.5h3.2v16.5h-3.5l-6.7-11.7v11.7h-3.2v-16.5h0Z"/>
    <path class="st1" d="M148.7,43.8h-3.4v-16.5h3.4v16.5Z"/>
    <path class="st1" d="M161.6,27.3h3.6l-5.6,16.5h-3.3l-5.6-16.5h3.7l3.6,12.6s3.6-12.6,3.6-12.6Z"/>
    <path class="st1" d="M179.6,30.2h-8.7v3.5h8v2.9h-8v4.3h9.2v3h-12.5v-16.5h12.1v2.9h-.1Z"/>
    <path class="st1" d="M193.3,27.7c.6.3,1.1.6,1.5,1.2.4.4.6.9.8,1.4s.3,1.1.3,1.7-.2,1.6-.6,2.3-1.1,1.3-2,1.6c.8.3,1.3.7,1.6,1.3s.5,1.4.5,2.6v2.6c0,.4.3.7.6.9v.4h-3.8c-.1-.4-.2-.7-.2-.9,0-.5-.1-.9-.1-1.4v-1.5c0-1.1-.2-1.8-.6-2.1-.3-.4-1-.5-2-.5h-3.4v6.5h-3.4v-16.5h7.9c1.1,0,2,.2,2.6.4h.3ZM186.2,30.1v4.4h3.7c.7,0,1.3,0,1.7-.3.7-.3,1-.9,1-1.9s-.3-1.7-.9-2c-.4-.2-.9-.3-1.6-.3h-3.9Z"/>
    <path class="st1" d="M201.8,38.7c.1.8.3,1.3.6,1.7.6.7,1.6,1,2.9,1s1.5,0,2-.3c1-.3,1.5-1,1.5-1.9s-.2-1-.7-1.3-1.2-.5-2.3-.8l-1.8-.4c-1.8-.4-3-.8-3.6-1.3-1.1-.8-1.7-2-1.7-3.6s.5-2.7,1.6-3.7,2.7-1.5,4.8-1.5,3.3.5,4.5,1.4,1.9,2.3,2,4h-3.3c0-1-.5-1.7-1.3-2.1-.6-.3-1.2-.4-2.1-.4s-1.6.2-2.2.5c-.5.4-.8.9-.8,1.5s.3,1,.8,1.3c.3.2,1.1.4,2.2.7l2.9.7c1.3.3,2.2.7,2.9,1.2,1,.8,1.5,1.9,1.5,3.4s-.6,2.8-1.8,3.8-2.8,1.5-4.9,1.5-3.9-.5-5.1-1.5c-1.2-1-1.9-2.3-1.9-4.1h3.3v.2Z"/>
    <path class="st1" d="M217.9,43.8h-3.4v-16.5h3.4v16.5Z"/>
    <path class="st1" d="M230.8,27.6c1.2.4,2.1,1.1,2.8,2.1.6.8,1,1.7,1.2,2.7.2,1,.3,1.9.3,2.7,0,2.2-.4,4.1-1.3,5.6-1.2,2.1-3,3.1-5.5,3.1h-7.1v-16.5h7.1c1,0,1.9.1,2.6.4h-.1ZM224.5,30.1v10.8h3.2c1.6,0,2.8-.8,3.4-2.4.4-.9.5-1.9.5-3.2s-.3-3-.8-3.9-1.6-1.4-3.2-1.4h-3.2.1Z"/>
    <path class="st1" d="M242.4,27.3h3.9l5.9,16.5h-3.7l-1.1-3.4h-6.1l-1.1,3.4h-3.6l5.9-16.5h-.1ZM242.2,37.5h4.2l-2.1-6.5-2.1,6.5h0Z"/>
    <path class="st1" d="M264.1,27.6c1.2.4,2.1,1.1,2.8,2.1.6.8,1,1.7,1.2,2.7.2,1,.3,1.9.3,2.7,0,2.2-.4,4.1-1.3,5.6-1.2,2.1-3,3.1-5.5,3.1h-7.1v-16.5h7.1c1,0,1.9.1,2.6.4h-.1ZM257.7,30.1v10.8h3.2c1.6,0,2.8-.8,3.4-2.4.4-.9.5-1.9.5-3.2s-.3-3-.8-3.9-1.6-1.4-3.2-1.4h-3.2.1Z"/>
    <path class="st1" d="M277.3,27.3h3.6l6.6,11.5v-11.5h3.2v16.5h-3.5l-6.7-11.7v11.7h-3.2v-16.5Z"/>
    <path class="st1" d="M298.7,27.3h3.9l5.9,16.5h-3.7l-1.1-3.4h-6.1l-1.1,3.4h-3.6l5.9-16.5h-.1ZM298.5,37.5h4.2l-2.1-6.5-2.1,6.5Z"/>
    <path class="st1" d="M312.2,29c1.3-1.4,3-2,5.1-2s4.8.9,6,2.7c.7,1,1.1,2.1,1.1,3.1h-3.5c-.2-.8-.5-1.4-.8-1.8-.6-.7-1.5-1.1-2.7-1.1s-2.2.5-2.9,1.5c-.7,1-1.1,2.4-1.1,4.3s.4,3.2,1.1,4.2c.8.9,1.7,1.4,2.9,1.4s2.1-.4,2.7-1.2c.3-.4.6-1.1.9-1.9h3.4c-.3,1.8-1.1,3.3-2.3,4.4-1.2,1.1-2.8,1.7-4.7,1.7s-4.2-.8-5.5-2.3-2-3.6-2-6.3.8-5.1,2.3-6.7Z"/>
    <path class="st1" d="M330.4,43.8h-3.4v-16.5h3.4v16.5Z"/>
    <path class="st1" d="M346.4,42.3c-1.2,1.3-3.1,1.9-5.4,1.9s-4.2-.6-5.4-1.9c-1.7-1.6-2.5-3.9-2.5-6.8s.8-5.3,2.5-6.8c1.2-1.3,3.1-1.9,5.4-1.9s4.2.6,5.4,1.9c1.7,1.5,2.5,3.8,2.5,6.8s-.8,5.2-2.5,6.8ZM344.2,39.8c.8-1,1.2-2.4,1.2-4.3s-.4-3.3-1.2-4.3c-.8-1-1.9-1.5-3.3-1.5s-2.5.5-3.3,1.5-1.2,2.4-1.2,4.3.4,3.3,1.2,4.3c.8,1,1.9,1.5,3.3,1.5s2.5-.5,3.3-1.5Z"/>
    <path class="st1" d="M351.5,27.3h3.6l6.6,11.5v-11.5h3.2v16.5h-3.5l-6.7-11.7v11.7h-3.2v-16.5Z"/>
    <path class="st1" d="M372.9,27.3h3.9l5.9,16.5h-3.7l-1.1-3.4h-6.1l-1.1,3.4h-3.6l5.9-16.5h-.1ZM372.7,37.5h4.2l-2.1-6.5-2.1,6.5Z"/>
    <path class="st1" d="M384.8,27.3h3.5v13.6h8.3v3h-11.7v-16.5h-.1Z"/>
    <path class="st1" d="M117.1,54.9h3.9l5.9,16.5h-3.7l-1.1-3.4h-6.1l-1.1,3.4h-3.6l5.9-16.5h-.1ZM116.9,65.2h4.2l-2.1-6.5-2.1,6.5Z"/>
    <path class="st1" d="M130,54.9h3.5v10.2c0,1.1.1,2,.4,2.5.4.9,1.3,1.4,2.7,1.4s2.3-.5,2.7-1.4c.3-.5.4-1.4.4-2.5v-10.2h3.5v10.2c0,1.8-.3,3.1-.8,4.1-1,1.8-3,2.7-5.8,2.7s-4.8-.9-5.8-2.7c-.5-1-.8-2.3-.8-4.1v-10.2h0Z"/>
    <path class="st1" d="M159.6,54.9v2.9h-4.9v13.6h-3.5v-13.6h-5v-2.9s13.4,0,13.4,0Z"/>
    <path class="st1" d="M175.4,70c-1.2,1.3-3.1,1.9-5.4,1.9s-4.2-.6-5.4-1.9c-1.7-1.6-2.5-3.9-2.5-6.8s.8-5.3,2.5-6.8c1.2-1.3,3.1-1.9,5.4-1.9s4.2.6,5.4,1.9c1.7,1.5,2.5,3.8,2.5,6.8s-.8,5.2-2.5,6.8ZM173.3,67.5c.8-1,1.2-2.4,1.2-4.3s-.4-3.3-1.2-4.3-1.9-1.5-3.3-1.5-2.5.5-3.3,1.5-1.2,2.4-1.2,4.3.4,3.3,1.2,4.3,1.9,1.5,3.3,1.5,2.5-.5,3.3-1.5ZM173.8,49.6l-3.4,3.4h-2.3l2.2-3.4h3.6-.1Z"/>
    <path class="st1" d="M181.5,54.9h3.6l6.6,11.5v-11.5h3.2v16.5h-3.5l-6.7-11.7v11.7h-3.2v-16.5h0Z"/>
    <path class="st1" d="M211.9,70c-1.2,1.3-3.1,1.9-5.4,1.9s-4.2-.6-5.4-1.9c-1.7-1.6-2.5-3.9-2.5-6.8s.8-5.3,2.5-6.8c1.2-1.3,3.1-1.9,5.4-1.9s4.2.6,5.4,1.9c1.7,1.5,2.5,3.8,2.5,6.8s-.8,5.2-2.5,6.8ZM209.7,67.5c.8-1,1.2-2.4,1.2-4.3s-.4-3.3-1.2-4.3-1.9-1.5-3.3-1.5-2.5.5-3.3,1.5-1.2,2.4-1.2,4.3.4,3.3,1.2,4.3,1.9,1.5,3.3,1.5,2.5-.5,3.3-1.5Z"/>
    <path class="st1" d="M229,54.9h5v16.5h-3.2v-13.9l-3.1,13.9h-3.4l-3.1-13.9v13.9h-3.2v-16.5h5l3,13s3-13,3-13Z"/>
    <path class="st1" d="M242.9,54.9h3.9l5.9,16.5h-3.7l-1.1-3.4h-6.1l-1.1,3.4h-3.6l5.9-16.5h-.1ZM242.7,65.2h4.2l-2.1-6.5-2.1,6.5h0Z"/>
    <path class="st1" d="M272.1,55.3c1.2.4,2.1,1.1,2.8,2.1.6.8,1,1.7,1.2,2.7s.3,1.9.3,2.7c0,2.2-.4,4.1-1.3,5.6-1.2,2.1-3,3.1-5.5,3.1h-7.1v-16.5h7.1c1,0,1.9.1,2.6.4h-.1ZM265.8,57.8v10.8h3.2c1.6,0,2.8-.8,3.4-2.4.4-.9.5-1.9.5-3.2s-.3-3-.8-3.9-1.6-1.4-3.2-1.4h-3.2.1Z"/>
    <path class="st1" d="M292.2,57.9h-8.7v3.5h8v2.9h-8v4.3h9.2v3h-12.5v-16.5h12.1v2.9h-.1Z"/>
    <path class="st1" d="M314.7,54.9h5v16.5h-3.2v-13.9l-3.1,13.9h-3.4l-3.1-13.9v13.9h-3.2v-16.5h5l3,13,3-13h0Z"/>
    <path class="st1" d="M336.1,57.9h-8.7v3.5h8v2.9h-8v4.3h9.2v3h-12.5v-16.5h12.1v2.9h-.1ZM334,50.3l-3.4,3.4h-2.3l2.2-3.4h3.6-.1Z"/>
    <path class="st1" d="M342.8,71.5h-4l5.3-8.4-5.1-8.1h4.1l2.9,5.4,3-5.4h4l-5.1,8,5.4,8.6h-4.2l-3.1-5.6-3.3,5.6h.1Z"/>
    <path class="st1" d="M359.8,71.5h-3.4v-16.5h3.4v16.5Z"/>
    <path class="st1" d="M365.6,56.7c1.3-1.4,3-2,5.1-2s4.8.9,6,2.7c.7,1,1.1,2.1,1.1,3.1h-3.5c-.2-.8-.5-1.4-.8-1.8-.6-.7-1.5-1.1-2.7-1.1s-2.2.5-2.9,1.5c-.7,1-1.1,2.4-1.1,4.3s.4,3.2,1.1,4.2c.8.9,1.7,1.4,2.9,1.4s2.1-.4,2.7-1.2c.3-.4.6-1.1.9-1.9h3.4c-.3,1.8-1.1,3.3-2.3,4.4-1.2,1.1-2.8,1.7-4.7,1.7s-4.2-.8-5.5-2.3-2-3.6-2-6.3.8-5.1,2.3-6.7Z"/>
    <path class="st1" d="M394.3,70c-1.2,1.3-3.1,1.9-5.4,1.9s-4.2-.6-5.4-1.9c-1.7-1.6-2.5-3.9-2.5-6.8s.8-5.3,2.5-6.8c1.2-1.3,3.1-1.9,5.4-1.9s4.2.6,5.4,1.9c1.7,1.5,2.5,3.8,2.5,6.8s-.8,5.2-2.5,6.8ZM392.1,67.5c.8-1,1.2-2.4,1.2-4.3s-.4-3.3-1.2-4.3c-.8-1-1.9-1.5-3.3-1.5s-2.5.5-3.3,1.5-1.2,2.4-1.2,4.3.4,3.3,1.2,4.3c.8,1,1.9,1.5,3.3,1.5s2.5-.5,3.3-1.5Z"/>
  </g>
  <path class="st0" d="M68.2,52.1v-22.2s0-.1-.1-.1H25.1s-.1,0-.1.1v22.2h0c.2,7.8,2.4,15,6.4,21,3.9,5.8,9.2,9.9,15.1,11.6h0c5.9-1.6,11.2-5.7,15.1-11.6,4-6,6.2-13.2,6.4-21h0M67.3,52h0c-.4,15.4-8.9,28.5-20.7,32-11.8-3.4-20.3-16.5-20.7-31.8h0v-21.4h41.5v21.3h0Z"/>
  <path class="st0" d="M46.6,78.6h0c9.2-3.4,15.8-14.4,16.1-26.7v-16.4s0-.1-.1-.1H30.6s-.1,0-.1.1v16.4c.3,12.2,6.9,23.2,16.1,26.7M46.6,77.7c-8.7-3.4-14.9-14-15.2-25.8v-15.2c0,.2.2.4.3.5.2.4.8,1.4.8,1.4,0,0,0,.5-.1.6-.2,0,.2.3.4.5s.4.8.7.8.3-.2.1-.6-.5-1.1-.5-1.1c0,0,0-.4-.3-.9s-.4-1-.4-1c0,0,1,.3,1.1.8,0,.2.4,1.6.7,2.5.2.5.5.8.8,1.3s1,1.1,1.9,1.4c.9.2,1.8-.3,2.3,0s1.2,1.1,1.8,1.3,2,.5,2.3,1.1,1,.7,1.4.7,1.6.6,1.6,1.6l-1,2s-.7.8-.9,1.5c-.1.7-.5,1.2.2,2.3s1.2,2.4,1.3,3.4c0,1,1,1.1,1.6,1.5s0,.8-.4,1.8c-.4.9-.2,2.8-.6,4-.4,1.2-.8,1.6-.8,2.6s0,2-.3,2.9c-.4.8-.1,1.6-.2,2.6,0,.9.2,2,.8,2.8s2,1.2,1.8,0,0-2.8.8-3.6l.7-.8s-.1-1.2.6-1.6c.7-.5,1.2-.8.8-1s0-.6.4-.6.6.2,1.6-1,1.3-1.4,2.3-2,1.4-1.6,2-2.3c.6-.6,1.7-1.2,2.4-1.3s1-.8,1-1.6-.2-1.4.3-2.2.2-1,.7-1.4c-1.4,10.2-7.2,18.9-14.9,22M61.8,51.7v1.7c-.5-.4-1.2-.8-1.6-1.2-.5-.6-1.2-.9-1.4-1s-.4-.4-1-.2c-.7.1-1.2,0-1.4-.7-.1-.7,0-1.4-.7-1.7s-1.1-.8-1.6-1.2-1-1-1.2-1.1h-1.5s-.7-.7-1.8-.4c0,0-.7-1-1.4-.5s-1.4.9-1.8.4c-.4-.6-1.2-.3-1.6-.2-.5,0-.9-.8-1-1.2s0-.9-.2-.9-.9.2-1.4-.1-.2-.7,0-1,.4-1.5.3-1.8h-.6s-.7-.2-.8.3-1,1-1.6.8c-.7-.2-1.2-.6-1.4-1.3s-.2-1.1,0-1.5c.1-.4-.4-1-.6-1.2s-.2.1-.6-.5c-.2-.3-.5-.6-.7-.8h25.9v15.3s-.2,0-.2,0Z"/>
  <path class="st0" d="M34.7,12.1c-.8-.4-1.8-.2-2.1.2-.2.3-.4.3-.4.4-.2,0-1.4,0-1.9.6-.3.4-.3.8,0,1.4.7,2,.8,2.4.8,2.4h0s1.3,1.4.8,2.6c-.6,1.3-.5,1.6.2,2,.6.3.8.6.8,1.9h0c0,1,0,1.8.4,2.2s.5.3.9.3.5-.1.7-.4c.6-.7.4-2.4.2-3.2-.2-.7-.5-2.3,0-2.7.6-.4.8-.5,1.2-.2h.1c.3,0,.8-.2.7-.8,0-.2,0-.4-.1-.5h.2c.4,0,.7,0,.9-.3.2-.2.2-.6,0-.9-.3-.6-1.2-2.1-1.8-2.7l-.2-.2c-.3-.2-.4-.5-.4-.7,0-.6-.4-1.1-1.2-1.5M36.4,18.5h0c-.7-.2-1.3.3-1.7.6-.9.6-.6,2.1-.3,3.5.2,1,.2,2.2,0,2.6h-.5c-.2-.2-.2-.9-.2-1.6h0c0-1.5-.3-2.2-1.2-2.7-.1,0-.2-.1-.2-.1,0,0,0-.3.3-.9.6-1.4-.4-2.8-.8-3.2,0-.3-.3-.9-.8-2.3-.1-.3-.1-.6,0-.7.2-.3.9-.4,1.3-.3h.2c.2,0,.5-.2.8-.6,0-.1.6-.3,1.2,0s.8.6.8.8c0,.7.1.8.6,1.3l.2.2c.5.5,1.4,1.9,1.6,2.4h-.2c-.3,0-.7-.2-1,.2-.3.3-.1.7,0,.8"/>
  <path class="st0" d="M33.2,14.9c-.4,0-.6.3-.6.6s.3.6.6.6.7-.3.7-.6-.3-.6-.7-.6"/>
  <path class="st0" d="M26.3,15.2c-.1,0-2.9.8-2.9,2.6s1.8,2,1.8,2h.1c-.2-.4-.4-.7-.3-.9,0-.2.3-.4.6-.6.3-.2.7-.4.6-.8-.1-.8.2-2,.2-2h0c0-.1,0-.2-.1-.1M24.4,18.4c0-.2-.2-.4-.2-.6,0-.7.7-1.2,1.4-1.5v1s-.2.2-.3.2c-.3.2-.8.4-.9.9"/>
  <path class="st0" d="M27.9,18.4c-1.2.6-2,1.1-2,1.1h0c.4.1,3.6.9,4.2.8.3,0,1-.3,1.3-1,.2-.6.1-1.3-.4-2.2-1-1.8-1.5-3.2-1.5-3.2h-.1s-3,.7-2.6,3.6h1.2c.2,0,.4.2.4.3,0,0,0,.2-.5.4M29.1,17.9c0-.6-.8-.9-1-.9h-.6c0-1.2,1-1.8,1.6-2,.2.6.7,1.5,1.3,2.7h0c.3.5.6,1.1.4,1.6-.2.4-.6.5-.7.5s-1.1-.1-2.3-.4c.2,0,.3-.2.5-.3.2-.1,1-.5.9-1.2"/>
  <path class="st0" d="M33,26.1s0-.2-.2-.2l-.7-.4h0s-.4,0-.8.3l-3.2,2.4s-.4.3-.3.5c0,0,0,.2.3.2.5,0,1.9.2,2,.3,0,0,.7,0,1-.3s1.7-2,1.8-2.1c0,0,.2-.4.2-.6M30.5,28.3h-1.3c0-.1,2.6-2,2.6-2h.2c-.5.8-1.4,1.8-1.6,2"/>
  <path class="st0" d="M31.7,29.2c.5,0,1.2.1,1.3.1,0,0,.5,0,.9-.6l.9-1.6s.2-.3.1-.5c0,0-.1-.2-.3-.2-.5-.1-.6-.2-.6-.2,0,0-.5-.2-.8.2-.2.3-1.6,2-1.6,2,0,0-.2.3-.2.6s.2.2.4.2M33,28.6h-.6c.4-.4,1-1.2,1.2-1.6h.3c-.2.4-.7,1.4-.7,1.4,0,.1-.1.2-.1.2"/>
  <path class="st0" d="M35,29.4h1c.2,0,.6-.2.6-.8v-1.8h0s-.2-.4-.6-.4h-.6s-.4,0-.5.4c-.1.3-.7,1.6-.7,1.6,0,0-.2.3,0,.6.1.2.4.3.8.3M35.9,28.6h-.9c.2-.3.5-1,.6-1.4h.4v1.4h-.1Z"/>
  <path class="st0" d="M39.7,29.3h.9s.2,0,.2-.2v-.5c-.2-.5-1.3-2.8-1.4-2.9h0s-.2-.3-.5-.2h0l-.6.4c-.2,0-.4.3-.2.6.2.4.8,2.4.8,2.4h0c0,.2.2.5.8.4M39,26.4c.3.6.8,1.6,1,2.2h-.4c-.1-.4-.5-1.6-.7-2.2h.1Z"/>
  <path class="st0" d="M37.2,29.4h1.3s.2,0,.3-.2v-.4l-.8-2.3h0c0-.1-.3-.4-.6-.2-.2,0-.6.2-.6.2h0s-.2.1-.2.4v2.1c0,.2.1.5.4.5M37.5,28.7v-1.6h0l.6,1.6h-.6Z"/>
  <path class="st0" d="M41.6,29.1c.4,0,.9-.1,1-.2,0,0,.3,0,.5-.2.1-.2,0-.4,0-.8-.4-.8-2-3.3-2.1-3.4,0,0-.1-.2-.3-.2s-.2,0-.4.1l-.6.6c-.1,0-.3.4-.2.8.2.4,1.4,3,1.4,3h0c0,.2.3.4.6.4M40.2,25.4l.2-.2c.4.7,1.5,2.3,1.8,3-.2,0-.4,0-.6.1-.2-.4-1.2-2.4-1.4-2.9"/>
  <path class="st0" d="M22,55.8c-1.6-.8-3.1-.1-3.1,1.3,0,3.3,6.8,2.8,5.7-2.9-.6-3.3-2.6-7.5-3.1-13.8-.5-6.2,2.8-8.2,2.8-8.2v-1.6c-5.3,2.6-4.2,13.8-2.6,19.1s.4,6.1.4,6.1"/>
  <path class="st0" d="M74.4,57.1c0-1.4-1.5-2.1-3.1-1.3,0,0-1.2-.8.4-6.1s2.6-16.5-2.7-19.1v1.6s3.3,2,2.8,8.2-2.5,10.4-3.1,13.8c-1.1,5.8,5.7,6.3,5.7,2.9"/>
  <path class="st0" d="M19.9,60.5l-3.2,2.6c-3.7-2.9-5.4.5-5.4.5,1.4-.3,2.5.1,2.5.1-2.9.8-2.2,2.6-2.2,2.6,0,0,3-1.8,4.2.3,1.6,2.6-.4,4.7-.4,4.7,4.9,0,3.3-6.5,3.3-6.5l4.3-4.3h-3.1Z"/>
  <path class="st0" d="M81.3,63.6s-1.6-3.4-5.4-.5l-3.2-2.6h-3.1l4.3,4.3s-1.6,6.5,3.3,6.5c0,0-2-2-.4-4.7,1.2-2,4.2-.3,4.2-.3,0,0,.7-1.8-2.2-2.6,0,0,1.1-.4,2.5-.1"/>
  <path class="st0" d="M24.2,35.8v-2.6c0,.5-.5.9-.9,1.2-.5.3-.2.6-.2.6,1,0,1.2.8,1.2.8"/>
  <path class="st0" d="M23.7,42.6c.2,1.8.6,1.1.6,1.1,0,0-.1-2.9-.2-3.5,0-.6-1.8-.3-1.8.3s.3,3.1.3,3.1h.5v-2.3s.4-.6.6,1.2"/>
  <path class="st0" d="M24,48.7c.4.6.5-2.4.4-2.9,0,0-1.3-.4-1.2.3s.3,1.9.8,2.6"/>
  <path class="st0" d="M22.3,37.4c0,.6,1.8.4,1.8.4v-.9s-1.8-.3-1.8.6"/>
  <path class="st0" d="M24.1,39.2v-.9s-1.8-.3-1.8.6,1.8.4,1.8.4"/>
  <path class="st0" d="M28.9,71.4c0-.3-.2-.6-.6-.6s-.6.2-.6.6.2.6.6.6.6-.2.6-.6"/>
  <path class="st0" d="M70.5,65.5c-.3,0-.6.2-.6.6s.2.6.6.6.6-.2.6-.6-.2-.6-.6-.6"/>
  <path class="st0" d="M69.1,66.3c0-.3-.2-.6-.6-.6s-.6.2-.6.6.2.6.6.6.6-.2.6-.6"/>
  <path class="st0" d="M67.4,66.5c0-.3-.2-.6-.6-.6s-.5.2-.5.6.2.5.5.5.6-.2.6-.5"/>
  <path class="st0" d="M23.4,76.1l.3-3.3s-.3-.6-1.2-.2l-.2,2.5s-.6.9-1.8-.1l.2-2.5s-.4-.5-1.2-.2l-.2,3.3s1.6,2.1,4,.4"/>
  <path class="st0" d="M21.3,74.8c.2,0,.4-.1.4-.3v-1.1c0-.2,0-.4-.2-.4s-.4.1-.4.3v1.1c0,.2,0,.4.2.4"/>
  <path class="st0" d="M27.9,76.8l.3-3.1s-.3-.6-1.2-.2l-.2,2.4s-.5.9-1.7-.1l.2-2.4s-.4-.5-1.1-.2l-.2,3.2s1.5,2,3.9.4"/>
  <path class="st0" d="M26.1,75.5c.2,0,.3-.1.4-.3v-1c0-.2,0-.3-.2-.4-.2,0-.3.1-.4.3v1c0,.2,0,.3.2.4"/>
  <path class="st0" d="M32,77.1v-1.6c.1,0,0-.8-.8-.2v.7c-.1,0-.6.6-.5-.4v-1s-.2-.3-.4.1v1.3s-.2.2-.6,0l.2-1.8s-.2-.8-1-.2l-.2,2.9s1.1,2,3.4.4"/>
  <path class="st0" d="M21.4,70.2c0-.3-.2-.6-.6-.6s-.6.2-.6.6.2.6.6.6.6-.2.6-.6"/>
  <path class="st0" d="M24.2,70.6c0-.3-.2-.6-.6-.6s-.6.2-.6.6.2.5.6.5.6-.2.6-.5"/>
  <path class="st0" d="M26.3,70.9c0-.3-.2-.6-.6-.6s-.6.2-.6.6.2.5.6.5.6-.2.6-.5"/>
  <path class="st0" d="M23.6,61.6v1.9l1.3,1s.6-2.4-1.3-3"/>
  <path class="st0" d="M25.5,66.6c-.2.2-.4.6-.5-.1-.2-.6-.7-.6-1-.6s-.7,1.2-1,.4c-.2-.8-.4-1.3-1.4-1.1v2l5,1.1s0-1.3-.2-1.6c-.2-.2-.8-.3-1-.1"/>
  <path class="st0" d="M26.8,69.1s-3.4-1-5.1-1.2v.8l5.2,1.2s.2-.2-.1-.9"/>
  <path class="st0" d="M73.6,75.6l-.2-3.3c-.8-.4-1.2.2-1.2.2l.2,2.5c-1.2,1-1.8.1-1.8.1l-.2-2.5c-1-.5-1.2.2-1.2.2l.3,3.3c2.5,1.7,4-.4,4-.4"/>
  <path class="st0" d="M71.2,74.5c0,.2.2.3.4.3s.3-.2.3-.4v-1.1c0-.2-.2-.3-.4-.3s-.3.2-.3.4v1.1Z"/>
  <path class="st0" d="M68.8,76.4l-.2-3.2c-.7-.4-1.1.2-1.1.2l.2,2.4c-1.1,1-1.7.1-1.7.1l-.2-2.4c-.9-.4-1.2.2-1.2.2l.3,3.1c2.4,1.6,3.9-.4,3.9-.4"/>
  <path class="st0" d="M66.7,73.9c-.2,0-.3.2-.3.4v1c0,.2.2.3.4.3s.3-.2.3-.4v-1c0-.2-.2-.3-.4-.3"/>
  <path class="st0" d="M61.8,75.9v-.7c-.9-.6-1.1.2-1.1.2v1.6c2.4,1.6,3.5-.4,3.5-.4l-.2-2.9c-.8-.6-1,.2-1,.2l.2,1.8c-.4.3-.6,0-.6,0v-1.3c-.3-.4-.6-.1-.6-.1v1c.2,1-.3.4-.3.4"/>
  <path class="st0" d="M6.8,12.8c.4-.2.7-.4.5-1l-1.6-4.1-.4.2,1.6,4c.1.4,0,.5-.2.6-.2,0-.4,0-.5-.3l-1.6-4-.4.2,1.6,4.1c.2.5.7.5,1,.4"/>
  <polygon class="st0" points="8.7 12 7.4 7.7 7.4 7.7 9.3 11.9 9.9 11.7 8.5 6.8 8.1 6.9 9.3 11.1 9.3 11.1 7.5 7.1 6.8 7.3 8.3 12.2 8.7 12"/>
  <polygon class="st0" points="11.2 11.4 9.9 6.4 9.5 6.5 10.7 11.5 11.2 11.4"/>
  <polygon class="st0" points="13 10.9 12.5 5.8 12 5.9 12.5 10.6 12.5 10.6 11.1 6.1 10.6 6.2 12.3 11.1 13 10.9"/>
  <polygon class="st0" points="15.3 10.4 15.2 10.1 14.5 10.2 14.1 8.2 14.8 8.1 14.8 7.7 14 7.8 13.6 5.9 14.4 5.8 14.3 5.4 13.1 5.7 14.1 10.7 15.3 10.4"/>
  <path class="st0" d="M16.6,10.2l-.4-2.4h.3c.2,0,.4,0,.4.2l.4,2.1h.5l-.4-2.2c0-.4-.3-.4-.6-.4h0c.4,0,.5-.2.4-.6l-.2-1.3c0-.5-.4-.5-.8-.5l-.9.2.9,5.1h.5c0-.1-.1-.2-.1-.2ZM15.7,5.6h.2c.2,0,.4,0,.4.2l.2,1.2c0,.3,0,.4-.3.4h-.3l-.3-1.8h.1Z"/>
  <path class="st0" d="M17.9,6.1c0,.2.1.4.3.6l.9,1.1c.1.2.2.3.2.5v.7c.1.2.1.4-.1.4s-.3,0-.4-.3v-.7h-.6v.7c.2.5.5.7,1,.6.5,0,.7-.4.6-.9v-.8c-.1-.2-.2-.4-.4-.6l-.9-1.2c0-.1-.2-.3-.2-.4v-.5c0-.2,0-.4.1-.4.2,0,.3.1.3.3v.6h.6v-.6c-.2-.5-.4-.7-1-.6-.5,0-.7.4-.6.9v.6h.2Z"/>
  <polygon class="st0" points="21.1 9.5 20.5 4.4 20 4.5 20.7 9.6 21.1 9.5"/>
  <path class="st0" d="M22.9,9.3c.6,0,.8-.4.7-.9l-.4-3.4c0-.5-.3-.8-.9-.7h-.8l.6,5.2h.8v-.2ZM22.2,4.6c.3,0,.4,0,.5.4l.4,3.5c0,.3,0,.4-.4.4h-.2l-.6-4.3h.3Z"/>
  <path class="st0" d="M24.8,7.7h.8l.4,1.3h.5l-1.3-5.1h-.6l-.2,5.3h.5v-1.5h-.1ZM24.9,4.3h0l.7,2.9h-.7v-2.9h0Z"/>
  <path class="st0" d="M27.9,8.7c.6,0,.8-.4.7-.9l-.3-3.5c0-.5-.2-.8-.9-.8h-.8l.5,5.2h.8,0ZM27.4,4c.3,0,.4,0,.4.4l.3,3.5c0,.3,0,.4-.4.4h-.2l-.4-4.3h.3Z"/>
  <polygon class="st0" points="31.2 8.5 30.8 3.9 30.8 3.9 31.8 8.4 32.4 8.4 32 3.2 31.6 3.2 32 7.7 32 7.7 31 3.2 30.4 3.4 30.8 8.5 31.2 8.5"/>
  <path class="st0" d="M33.6,6.9h.8l.3,1.4h.5l-1.1-5.1h-.6l-.4,5.2h.5v-1.5c.1,0,0,0,0,0ZM33.8,3.5h0l.5,2.9h-.7l.2-2.9h0Z"/>
  <path class="st0" d="M36.5,8.2c.5,0,.7-.3.7-.8v-.7h-.5v.7c0,.2,0,.3-.2.4-.2,0-.3,0-.3-.3l-.2-3.7c0-.2,0-.3.2-.4.2,0,.3,0,.3.3v.6h.5v-.7c0-.4-.3-.7-.8-.7s-.7.3-.7.8l.2,3.8c0,.4.3.7.8.7"/>
  <polygon class="st0" points="38.4 8.1 38.2 2.8 37.7 2.9 37.9 8.1 38.4 8.1"/>
  <path class="st0" d="M40.1,8.1c.6,0,.8-.4.8-.9v-3.5c-.1-.5-.3-.9-1-.8-.6,0-.8.4-.8.9v3.5c.1.5.3.9,1,.8M40,3.1c.3,0,.4.2.4.5v3.5c.1.3,0,.5-.2.5s-.4-.2-.4-.5v-3.5c-.1-.3,0-.5.2-.5"/>
  <polygon class="st0" points="42.2 7.9 42.1 3.4 42.2 3.4 42.8 7.9 43.5 7.9 43.4 2.7 43 2.7 43.1 7.2 43 7.2 42.4 2.7 41.7 2.7 41.8 7.9 42.2 7.9"/>
  <path class="st0" d="M44.8,6.5h.8l.2,1.4h.5l-.8-5.1h-.6l-.7,5.1h.5l.2-1.4h-.1ZM45.2,3h0l.4,3h-.7l.3-3h0Z"/>
  <polygon class="st0" points="48.1 7.5 47.4 7.5 47.4 2.7 47 2.7 46.9 7.9 48.1 7.9 48.1 7.5"/>
  <path class="st0" d="M50.3,6.5h.8l.2,1.4h.5l-.6-5.1h-.6l-.9,5.1h.5l.2-1.4h-.1ZM50.8,3.1h0l.3,3h-.7l.4-3Z"/>
  <path class="st0" d="M53.2,8.1c.4,0,.8-.1.9-.7V2.8c.1,0-.4,0-.4,0l-.2,4.3c0,.4-.1.5-.4.5s-.4-.1-.4-.5V2.7c.1,0-.4,0-.4,0l-.2,4.4c0,.6.4.8.8.8"/>
  <polygon class="st0" points="55.2 8.1 55.7 8.1 55.9 3.4 56.4 3.4 56.4 2.9 54.9 2.8 54.9 3.2 55.4 3.4 55.2 8.1"/>
  <path class="st0" d="M57.7,8.3c.6,0,.8-.3.9-.8l.2-3.5c0-.5-.2-.9-.8-.9s-.8.3-.9.8l-.2,3.5c0,.5.2.9.8.9M57.4,7.3l.2-3.4c0-.3,0-.5.4-.5s.4.2.3.5l-.2,3.4c0,.3,0,.5-.4.5s-.4-.2-.3-.5"/>
  <polygon class="st0" points="60.1 3.7 60.1 3.7 60.4 8.4 61.1 8.4 61.5 3.2 61 3.2 60.7 7.7 60.7 7.7 60.4 3.1 59.8 3.1 59.4 8.3 59.8 8.3 60.1 3.7"/>
  <path class="st0" d="M62.8,8.6c.6,0,.8-.3.9-.8l.3-3.5c0-.5-.1-.9-.8-.9s-.8.3-.9.8l-.3,3.5c0,.5.1.9.8.9M62.5,7.7l.3-3.4c0-.3,0-.5.4-.4.3,0,.3.2.3.5l-.3,3.4c0,.3,0,.5-.4.4-.3,0-.3-.2-.3-.5"/>
  <polygon class="st0" points="65.3 4 65.3 4 65.4 8.8 66 8.8 67 4.1 67 4.1 66.5 8.9 67 8.9 67.4 3.8 66.7 3.7 65.8 8.3 65.7 8.3 65.7 3.6 64.9 3.6 64.5 8.7 64.9 8.7 65.3 4"/>
  <path class="st0" d="M68.4,7.7h.8v1.5h.5l-.2-5.1h-.6l-1.4,4.9h.5l.4-1.4h0ZM69.2,4.3h0v3h-.7l.7-3h0Z"/>
  <polygon class="st0" points="76.4 5.4 76.4 5.4 76.1 10.2 76.6 10.2 78 5.7 78 5.7 77.2 10.4 77.6 10.4 78.5 5.3 77.7 5.2 76.4 9.6 76.4 9.6 76.7 5.1 76 4.9 75.1 10 75.5 10 76.4 5.4"/>
  <polygon class="st0" points="79.6 10.8 79.7 10.4 78.9 10.3 79.4 8.3 80.1 8.4 80.2 8 79.4 7.9 79.8 6 80.6 6.2 80.7 5.8 79.4 5.5 78.4 10.6 79.6 10.8"/>
  <polygon class="st0" points="80.1 10.9 80.5 11 81.5 9 81.5 9 81.4 11.2 81.9 11.3 81.8 8.7 83 6.3 82.5 6.2 81.7 8.2 81.7 8.2 81.7 6 81.3 5.9 81.3 8.6 80.1 10.9"/>
  <polygon class="st0" points="82.9 11.6 84.2 6.7 83.7 6.5 82.4 11.5 82.9 11.6"/>
  <path class="st0" d="M84.4,12.1c.5.2.8,0,.9-.5l.2-.7-.4-.2-.2.7c0,.2-.2.3-.4.2-.2,0-.2-.2-.2-.4l1.1-3.6c0-.2.2-.3.4-.2.2,0,.2.2.2.4l-.2.6.4.2.2-.6c.1-.4,0-.8-.5-.9-.5-.2-.8,0-.9.5l-1.1,3.6c-.1.4,0,.8.5.9"/>
  <path class="st0" d="M86.4,12.8c.6.2.9,0,1.1-.5l1.3-3.2c.2-.5.2-.9-.4-1.1s-.9,0-1.1.5l-1.3,3.2c-.2.5-.2.9.4,1.1M86.4,11.8l1.3-3.2c.1-.3.2-.4.5-.3s.2.3.2.6l-1.3,3.2c-.1.3-.2.4-.5.3-.3-.1-.2-.3-.2-.6"/>
  <path class="st0" d="M1.8,11.5c.9,1.2,1.1,1.6,1.1,2.6v.3c0,.8,0,1.7.6,2.3.5.5,1.3.8,2.5.8s2.2-.2,3.6-.5c2.2-.4,5-1,7.5-.7-.6.6-2.5,2.1-6.4,1.7-3.8-.4-7.9-.6-9.4,1.4-.8,1.1-.6,2.7.4,4.8h.2s3-1,2.3-4.3c1.2,0,2.3.5,3.5.9.2,0,.5.2.8.2-2.4.7-4.3,1.7-4.3,2.8s.7.9,2.5,1.7c1.8.8,3.5,1.4,5.1,2.2,4.4,2.2,7.7,4.1,8.1,3.6.6-.6-10-4.8-7.5-8.5,1.4-2,3.7.7,1.8,1.1-1.9.4,2.8,5.1,8.2,6.8,0,0,1-1,1.7-1.4,0,0,.8-.6-.4-.9-1.2-.3-8.7-2.6-5.6-5.5.9-.8,1-1.4.6-1.9,1.1-.4,2-1,2.6-1.6s1-1.4,1-2c0-2-2.5-4.7-3.3-5.6,7.1-1.1,16.6-2,27.6-2s21,.9,28.4,2.1c-.9.9-3.4,3.7-3.4,5.6s.3,1.4,1,2c.4.4,1,.8,1.7,1.2-.8.5-1.2,1-1.2,1.4,0,1.7,1.5,2.2,1.5,2.2.2,2-4.4,4-5.7,4.5.3.1.9.4,1.6.8,4.4-1.3,5.6-3.6,6.5-4.7,1-1.3-1.6-.6-1.6-1.9s3.8-2.2,3,1.3c-.7,3.2-5.3,5.2-7.2,5.9.3.2.5.5.8.7.1.2.4.6.6.5.2,0,0-.8.4-.7.4,0,.6.2.8-.1.2-.4.1-.8.4-.5.3.2.4.4.7.3s-.3-1,.4-.8c.7.2.8-.2.6-.5s.3-.2.7.1c.4.3.5-.3.3-.6s0-.6.5-.2,1.2.3.6-.3c-.5-.6,0-1.1.7-.6.6.4.5.2.2-.4s0-.8.7-.3,1.2.3.4-.3c-.8-.6-.5-1,.4-.6.8.5,1.8.7.9-.1-.9-.8-1.2-1.4-.1-.8s2,.4.3-.6c-1.6-1,.9,0,1.4.4.6.5.7-.3-.4-.9s-.4-.8,1,0c1.5.8,1.5,0,.2-.4-1.2-.5-1.7-1.4-.2-.6s3,.9,1.5,0c-.7-.4-1.2-.6-1.4-.8.4-.2,1,0,2.1.7,2,1.4,0,3-1.6,3.6-2.6,1-3.5,2-6.3,3.9-1.6,1.2-3.7,1.5-5.2,1.6.2.3.3.6.4.9,2.4,0,5.1-.9,6.7-1.9,2.2-1.3,5.9-3.5,8.7-4.1,2.1-.5,4.1-1.6.9-3.9-1.1-.8-2.2-1.4-3.3-1.9h.2c1.2-.4,2.3-.8,3.5-.9-.6,3.3,2.3,4.3,2.3,4.3h.2c1-2.1,1.2-3.7.4-4.8-1.4-2-5.5-1.9-9.4-1.4-4.3.5-6.2-1.4-6.5-1.8h1.6c1.2,0,2.6.3,3.9.6,3.1.5,6.4,1.1,7.9,0,.5-.4.7-.9.8-1.5.2-1.4.8-2.6,1.5-3.6.6-1.1,1.2-2,.9-2.9-.2-.6-.8-1-1.7-1.4-4.2-1.8-10.7-3.5-18.1-4.7-8.3-1.4-17.6-2.1-27-2.1C28.4.5,11.7,2.8,2.8,6.5c0,0-1.8.6-2.2,1.9-.2.6,0,1.2.4,1.9.4.5.6.9.9,1.3M3.1,7.2h0C11.9,3.6,28.5,1.3,46.3,1.3s37.8,3.5,44.8,6.6c.7.3,1.2.6,1.3,1,.2.5-.3,1.3-.9,2.3-.7,1.1-1.4,2.4-1.6,3.9,0,.4-.2.8-.5,1h0c0-.2-.2-.5-.4-.7-3-3-21.1-6.3-42.4-6.3s-21.6.8-30.3,2.4c-3.8.7-7,1.5-9.2,2.3-1.8.7-3,1.4-3.3,2-.2-.4-.2-.9-.2-1.4v-.3c0-1.2-.3-1.7-1.2-3-.2-.3-.5-.8-.8-1.3s-.4-.8-.3-1.2c.2-.8,1.4-1.3,1.8-1.4M82.1,16c-1.4-.2-2.8-.5-4-.6-3.1-.2-4.9.9-5.9,1.8.2-1.5,2.3-3.9,3.6-5.2,6.9,1.2,11.3,2.7,12.5,3.9.2.2.2.3.2.4v.2c-1.5.4-4.1,0-6.5-.5M75.6,16.5l.3.2c.4.5,2.5,2.6,7.2,2.1,2-.2,6.3-.7,8.1.6-1.9-.3-3.6.3-5.4.8-.3.1-.7.2-1,.3-4.1-1.6-7.7-1.1-9.8-.2-.9-.4-1.6-.8-2-1.3-.3-.3-.5-.6-.6-.8.5-.6,1.5-1.5,3.1-1.9h0M90.3,20c.5,0,1.1,0,1.7.2.3.8.2,1.8-.4,3.1-.7-.4-1.7-1.4-1.3-3.4M21.4,16.7c-3.5-2.1-8.3-1.2-11.9-.5-1.4.3-2.6.5-3.5.5s-1.1,0-1.5-.2v-.2c0-.1,0-.2.2-.4,1.2-1.2,5.9-2.8,13.2-4,1.2,1.2,3,3.3,3.5,4.7M17.8,20.5c-1.5-.5-4.1-.4-5.6-.2-.8,0-1.6.2-2.3.4-.7-.2-1.3-.4-2-.6-1.8-.6-3.5-1.2-5.4-.8,1.8-1.3,6.2-.8,8.1-.6,4.7.5,6.8-1.6,7.2-2.1l.3-.2h0c1.2.2,2.4.6,3.3,1.4-.2,1.1-1.5,2.2-3.7,2.9M2.2,23.2c-.6-1.3-.7-2.4-.4-3.1.6-.2,1.1-.2,1.7-.2.4,1.9-.6,2.9-1.3,3.4"/>
  <path class="st0" d="M49.2,26.6h0s.2,2.6,3,2.6,4.6-2,5.1-2.5c.3.6,1.6,2.5,2.8,2.4.5,0,.9-.5,1.2-1.2.4.4,1.4,1.3,2.6,1.2,1,0,2-.8,2.8-2.1h0c0-.1,0-.2-.1-.2,0,0-2.4.7-3.8-.4-.8-.6-1.2-1.6-1.2-3,0-2.1.1-3.3.4-4.1.7.4,1.5.6,2.4.7,2.6,0,3.1-1.5,3.1-1.6h0c0-.1,0-.2-.1-.1-.9.2-1.5,0-1.9,0,1.2-.4,2.1-.4,2.5,0,.5.4.3,1.2.3,1.2h0c0,.1.2.1.2.1.9-1,1.3-1.9,1-2.6-.4-1.2-2.4-1.7-4.3-2.1-2.7-.6-3.6-3.5-3.7-3.5h-.1c-.6.4-1.2.8-1.5,1.2l-1.8-2h0s-.7,1-.3,2.4c-.4-.4-.8-1-.8-1.7s0,0,0-.1h-.1s-1.8,1.7,0,4.2c-.4.2-1.8.6-4.6-.2h0s-.2,1,.4,1.8c.5.7,1.5,1.1,2.9,1.1-.4.3-1.7,1-4.2.2h-.1c0,.1.8,3.1,4.6,2.6-.7.7-2.9,2.3-5.7,1.5h-.1c0,.2,0,1.9,1.3,2.5,1.1.6,2.8.3,4.9-1-.3.8-1.5,3-6.3,2.5M55.8,18.4c.2-.2.2-.4,0-.7-.1-.2-.3-.4-.6-.4-1.2,0-2.2-.3-2.6-.8-.1-.2-.2-.3-.2-.5,3,.7,4.3,0,4.5,0s.3-.2.3-.4,0-.4-.1-.5c-.8-1-.8-1.8-.7-2.4.4.7,1,1.1,1,1.2.2.2.6.2.8,0s.3-.5.2-.8c-.2-.4-.3-.9-.2-1.3l1.2,1.4c0,.1-.1.2-.1.4-.2.8,0,1.5.2,1.8-2.1,1.4-2.2,2.6-2.1,3.2-.3.4-1.1,1.5-2.6,1.8-1.6.2-2.5-.4-3-.9,2.7.4,3.8-.9,3.8-1M61.1,12.3c.2.4.5.9.9,1.4h-1l-.7-.7c.2-.3.4-.5.8-.8M68.6,18c0-.1-.2-.2-.2-.3-.7-.6-1.9-.6-3.6,0-.2,0-.4.3-.4.6s.1.5.4.6c0,0,.4.2,1,.3-.4.2-.9.2-1.4.2-.8,0-1.5-.3-2.1-.6.2-.4.6-.6.9-.8.1,0,.2-.2.4-.2.6-.4,1.1-1.4,1.4-2.1h.2c1,.2,3.4.7,3.7,1.6,0,.2,0,.5-.1.8M65,27.7c-.4.4-.8.5-1.2.6-1.1,0-2.1-1.1-2.1-1.1,0-.1-.2-.2-.3-.2-.2-.4-.4-.9-.5-1.6h.2c.2.7.6,1.2,1.2,1.6.9.6,1.9.8,2.8.7M60,13.8l.5.6c.1.1.3.2.5.2h.8c0,.3-.2.5-.4.6-.3.2-.8.1-1.1,0h0c0-.1-.3-.6-.2-1.3M62.9,17.1c-.1,0-.2.2-.3.2-.4.3-.8.6-1.1,1.1-.1,0-.2-.2-.3-.2.3-.5.8-.9,1.5-1.2.8-.4.9-1.3.9-1.8.2,0,.4.2.6.3-.3.7-.7,1.4-1.2,1.8M58,26.3c-.2,0-.4-.4-.4-1.8.5-.3.9-.8,1.2-1.1,0,.7,0,1.2.4,1.6,0,0,.2.2.3.2-.5.6-1.2,1.2-1.5,1.1M57.9,21.5h0s.8-.3,1.2-.8v.6c-1,1.8-2,2.5-2.5,2.5,0-.2.5-1.4,1.2-2.4M60.8,24.6c-.4,0-.7,0-.9-.2-.4-.5-.2-1.7,0-2.5.2,0,.5-.2.8-.3v2.9M60.1,15.9c.5.2,1.1.2,1.6,0,.3-.2.8-.6.9-1.4h.1v.2h0s.3,1.1-.4,1.5-1.3.9-1.7,1.4c-.2-.2-.4-.4-.4-.4-.2-.2-.4-.3-.7-.2-.2,0-.3.2-.4.4,0,0-.2.3-1,.5,0-.4.4-1.2,1.8-2.1h0M60.1,25.9c.1.4.3,1,.5,1.4v.2c-.2.6-.4.9-.6.9-.4,0-1-.6-1.6-1.3.7-.2,1.3-.6,1.8-1.2M60,21c0-.3-.3-1.2-.2-2h0c0-.1-.2-.1-.2-.1,0,0-.8.8-1.4,1.2,0-.2-.3-.6-.2-1.3h0c1.2-.3,1.6-.7,1.8-.9.2.2.7.7,1.4,1.1-.2.4-.2.9-.3,1.6-.2.1-.5.3-.8.4M56,21.3c.1-.1.2-.3.2-.4.3-.1.6-.3,1.1-.8,0,.2.1.4.2.7-.6,1-1.3,2-1.8,2.4h-.3c-2,1.2-3.5,1.6-4.4,1.1-.4-.2-.6-.6-.8-1,3.4.4,5.7-2.1,5.8-2.2M56.1,24.6c.2.1.5.2.7.1,0,.2,0,.7.2,1.2,0,0-.2,0-.2.1,0,0-2.4,2.4-4.7,2.4s-1.8-.5-2-1c4.1.1,5.5-1.7,6-2.8"/>
  <path class="st0" d="M8.1,74c0-.4,0-.8-.2-.9-.2,0-.4.2-.5.3h0s-.3.7-1.4.6c-.7,0-1.4.3-1.7.8-.2.4-.3.7-.2,1.1.3.6.8,1,1,.9,0,0,.2,0,.2-.4h0v-.5h.2c.4.2.8.2,1,0,0,0,.2-.2.1-.6s-.1-.3-.2-.4v-.2h.5c.9,0,1.2-.1,1.3-.9M5.5,75.1h-.2.1"/>
  <path class="st0" d="M93.9,73c-.2,0-.4-.2-.5-.3-.2-.2-.5-.4-1.1-.4s-.5,0-.6.3c-.2.3-.1.9.3,1.7,0,.2.1.4.1.4-.4-.1-.9-.3-1.3-.4-.3-.1-.5-.1-.7,0-.5.3-.6,1.4-.5,2.4-1.2,0-2.2.9-2.8,1.6,0-.4,0-.9-.3-1.2-.2-.2-.5-.2-.9-.2s-.9.2-1.4.4v-.7c0-.2-.2-.3-.5-.4-.3,0-.8,0-1.2.3-.2.2-.2.4-.2.6,0,.4.6.8,1,1,0,0-.1.2-.2.2-.2.3-.3.6-.2.9.2.6,1,.9,1.8,1.2-1,1-2.2,1.8-3.5,1.5-.2-.2-1.5-1.6-4.1-1h-.3c-2.6.7-4.6,1.2-5.6,3.7-.3.8-.6,1.1-.8,1.5-.6.8-1.1,1.4-1.5,6.1-.4.1-2.3.7-3.5,1.4-.2.1-.5.1-.8.2-.6,0-1.4,0-2.3,1.2-.6.4-.8.4-1.2.3-.3,0-.7-.1-1.2.3-.4.2-.7.2-.9.2.2-.4.7-1.5,1.7-1.8s3.4-1,4.4-2.3h0c.4-.8.9-1.2,1.3-1.5.5-.4,1-.8.7-1.5-.2-.5,0-1.2.2-1.7.2-.6.4-1.2,0-1.6.4-.1,1.4-.4,1.6-.9,0-.2.1-.3,0-.4,0-.2,0-.6.1-1,.1-.6.3-1.3,0-1.7-.2-.2-.4-.3-.7-.3,0-.2-.3-.6-.8-.7-.4,0-.8,0-1.2.4-.2,0-.8-.2-1.2,0-.2.2-.4.5-.3,1l-.8,1.3c-.3,0-1.2-.2-2.8.9l-.7.4c-1.6,1-2.9,1.8-3.3,3.7-.2,1-.4,1.5-.5,1.8,0,0-.2-.2-.4-.2-.4-.2-.8-.4-1.2-.6-.7-.3-1.4-.6-1.8-1.1-.8-1.1-2-1.2-3.5-.2-1.7,1.1-3.1.9-4.9.2-.3-.1-.7-.3-1-.4-2-.8-4.7-1.8-5.6-3.1-.2-.3-.4-.5-.5-.8-.8-1.3-1.5-2.3-3.3-2.4-.2,0-1.3-.5-2.6.4h-.1c-.1,0-.2,0-.2-.2-.4-.4-.8-.5-1.7,0,0,0-1.5,1.2-2,2.2,0,0-.1,0-.2-.2-.6-1.5-1.4-2.4-2.2-2.6-.6-.2-1.1-.8-1.6-1.4-.3-.4-.6-.8-1-1.1-.3-.3-.6-.4-.9-.4-.6,0-1,.6-1.5,1.2l-.2.2c-.5.6-1.4,1.3-2.1,1.9-.3.2-.6.5-.9.7h0c-.4-.2-.6-.4-.6-.6-.4-1.1-1.3-2.3-1.8-2.9.1-.7,0-1.4-.4-1.9.5,0,.9-.3,1.3-1,.2-.3.2-.6,0-.8-.2-.4-.8-.6-1.8-.6s-1.5.6-1.9,1c-.5,0-1,0-1.7.3,0-.4,0-.7-.3-.9-1.1-.9-2.9.8-3.7,1.6-.6.6-.7,1.3-.6,1.7h-.4c-.2,0-.6-.1-1-.2-.2-.7-.6-2-1.6-1.9h-.4v-.3c0-.3-.1-.6-.4-.8s-.5-.4-.8-.4c-.6,0-1.2.5-1.2,1.2s.1.6.4.8c0,0,.1.1.2.2-.2.2-.4.4-.5.6,0,.2-.1.6.3,1,.3.3.7.7,1.2,1.1-.2.3-.2.7-.3,1.2h0c-.2.1-.6.3-.6.7s.3.6.6.8c0,.6,0,1.2.1,1.7-.2.2-.3.5,0,.7.1,0,.2.2.4.2,0,0,.1.2.2.2.3.3.5.5.7.8,0,0,0,.1.2.2,0,.4-.2.9.2,1h.8c.2.2.4.3.7.5l1,.6c0,.4,0,.9.4.8.2,0,.5,0,.6-.1.8.7,1.5,1.3,1.5,1.5-.3.4-1.4,1.5-1.9,1.5s-.4,0-.5.3c-.2.3-.2,1,0,1.6-.2.2-.9.8-.7,1.4,0,.2.2.3.4.5.2.2.4.4.4.6,0,0-.1.2-.3.2-.6.2-1.4.6-1.6,1.3-.1.5,0,1.1.6,1.7h0l-.3.4s-1.1.2-.7,1.1c.4.8,1.7.9,1.5-.4l.3-.3c.6.4,1.2.6,1.8.4.6-.2.9-.7,1-1.4.6.2,2.7,1,4.7,1,.2.2.6.5,1,.3.3-.1.4-.3.5-.5h2.5c.1.2.4.4.8.4s.5-.3.4-.5c.2,0,.4-.1.6-.2.4-.2,1.4-.4,2.9-.4,0,0,0,.2.1.2.5.8.7,1.1.8,1.2v.9c0,.2.4.3.8.4h0c.8.1,1.4.2,1.8.8h0c.2.4.4.6.6.7.2,0,.5,0,1.1-.4.9-.6,1.8,0,1.9,0,0,.2.5.8,1,.8s.5-.3.7-.8c.3-.1.5-.2.8-.2s1,0,1.9-.5c0,0,1.9-1.3,3-1.9.2.3.2.6.3,1,.2,1-4,2.9-2.4,5.5.2.3.4.2.4.2,0,0-.3-.8.2-1.4.4-.5,2.7.2,3.8-1.2.4,1.5,1.9,1.6,1.9,1.6,0,0,.1,0,.1-.1l.5-3.7c.2.5.5.8.9,1,.5.2.9.2,1.1.2,1.2,1.9,2.7,1.4,2.9,1.3.7,0,1.1-.1,1.2-.4,0-.1.1-.4-1.1-1.2-.1,0-.2-.2-.2-.2,0,0,.1-.1.2-.1.5,0,1.5.2,2.3,1.8,1.2,2.2,3.5,1.5,3.5,1.5h0v-.2c-.5-.2-.7-.8-.8-1.1,1.4,1,2.6,1.5,3.8,1.4,1.3-.2,1.9-1,2-1h0q0-.2-.1-.2c-1.4.4-2.1-.2-2.8-1,.6-.1,1.6-.6,2.9-2.3.3,0,2.2-.6,4,0,.2,0,.4.1.6.2,2.3.8,7.1,2.4,10.3-.1,2.2-1.7,2.7-2.8,2.7-3.3v-.4h.7c.7.1,1.7.3,2.5.6.2,0,.4.1.6.2-.2.2-.5.8,0,1.1.6.3,2.1-.6,2.1.2s.7.7,2,.2c0,0,.6-.2.7.2s.4.7.9.6c.2,0,.6-.4.9-.8.4,0,.8,0,1.3-.1.4.3.8.4,1,.2.2-.1.2-.4.3-.6.6-.3,1-.7,1.2-1.2.4-.7.3-1.5.2-1.9.2-.2.4-.5.5-.9.1-.6-.6-.5-1-1.1-.2-.3-.4-.6-.7-.9,0-.2-.2-.4-.2-.8,0-.9-1-1.2-1.2-.2-2.3-1.1-5.3-1-7.4-.5-.6.2-1.2.3-1.8.5-1.8.5-3.5,1-4.3.2,0-.3.6-1.6,3.1-2.5,1.8-.6,6.1-2.5,7-5.1.9,0,7.1.3,8.6-1.8,1.4-1.9,2.5-3.6,1.2-5.2.6-.5,1.1-1,1.4-1.5.2-.4.3-.7.2-.9,0-.3-.4-.5-.7-.6.1-.2.4-.4,1-.5.5-.1.6-.4.6-.6,0-.4-.5-.9-1-1M13.8,75.4c.6,0,.9.1,1,.2-.3.6-.4.7-1.1.4-.2,0-.4-.2-.6-.3.2-.2.5-.2.6-.2M83.3,77.2s-.2-.1-.2-.2h.2v.2M87.6,96.1v.3s.3.9,0,1.6c-.2.5-.8.8-1.5,1.1-2.5.7-5.8-.6-7.6-1.3-.2,0-.5-.2-.7-.3-1.6-.6-3.6-.8-3.7-.8h-.2c-1.2-.3-1.4-.6-1.4-1.6s.5-1,.8-1.2c1.1.1,2.4-.3,3.7-.7.6-.2,1.2-.4,1.7-.5,2.1-.5,5.2-.6,7.3.6,1.6,1,1.6,2.4,1.6,2.5M73.4,98c0,.1,0,1-2.4,2.8-2.9,2.2-7.2.8-9.5,0h0c-.2,0-.4-.2-.6-.2-2-.6-3.9-.2-4.4,0,0-.6,0-1.4-.1-2-.2-.6.4-1.2.8-1.4.7,0,1.3-.2,1.7-.4.2,0,.8,0,1.3-.2-.2.3-.5,1-.1,1.2.5.2,1.6.4,1.2-1.4.4,0,.9,0,1.6-.5h.1c.7-.9,1.2-.9,1.7-1,.3,0,.7,0,1.1-.2h0c1.3-.8,3.3-1.4,3.4-1.4h0c.5.3,1.6.8,2.6.3h0c.2.2.4.3.6.4-.4.4-.6.9-.7,1.6,0,.5,0,.9.4,1.3.3.4.8.6,1.3.8,0,.2,0,.3.1.4M50.2,103.6c-.2.1-.4.4-.4.7s0,.5.1.8c-.5-.2-.9-.5-1.2-1.1-1-1.9-2.3-2.4-3.2-2.2-.2,0-.3,0-.4.1.1-.2.2-.5.3-.8.4,0,1.7.2,2.3-.4,0,0,.1,0,.2.1h.2c.7.4,3.1,1.7,3.9,2.6s.4.4.6.6c.3.4.6.7,1,1-.8-.1-1.7-.6-2.6-1.4-.2-.2-.5-.2-.8,0M37.5,103.8h0ZM37.6,103.5h0ZM38.9,103.8v-.3c.2-.7.4-1.9.4-2.5s-.2-.5-.3-.6c-.3-.1-.5.1-.6.2,0,0,.4,3-1.4,3.6-.5.2-1.2.2-1.8.3-.4,0-.8.3-.9.3.2-1.5,2.7-2,2.7-3.5s-1.2-2.5-1.5-2.7c0,0-1.6-1.6-1.9-3.3h0v-1.1c.4-1.7,1.6-3.5,3.7-3.1.1.1.6.2,1.1.6.2.3.4.7.4.8,0,.8-1.1,1.1-1.1,1.1,0,0,0-1.7-.9-1.7s-1.6.8-1.8,1.6c-.2.9.2,1.6,1.2,2,.3.1.6.2.9.4.5.2.9.4,1.3.5h-.2v.4c.2.3.6.5,1.4.6,1.5.2,3,.6,3,2.1s-.6,1.7-.9,1.8c-.2-.5-.8-2.1-2.9-2.9-2.5-.9-3.5-1.8-3.8-3.5h0s-.4-.2-.7,0c-.2.1-.2.3-.2.6,0,0,.5,2,2.3,2.9.3.2.7.3,1,.4,1.2.6,2.4,1.1,3,2.1-.2.1-.4.3-.4.6l-.5,3.4c-.3-.2-.5-.5-.5-.9M29.1,102.6h0c0-.1-.1-.3-.2-.3s-1.4-1-2.9-.1c-.2.1-.3.2-.4.2h0c-.6-1.1-1.6-1.3-2.4-1.4h-.1c0-.4,0-.6-.2-1-.1-.1-.3-.4-.8-1.1-.7-1.2.4-3,.8-3.5.4-.6,2.5-1.9,4.4-1.8,1.6,0,4.4,1,5.6,1.5.1,2.2,2.1,4.1,2.2,4.2,0,0,.2.2.4.4-1.1.6-2.8,1.7-3,1.8-.7.4-1.1.4-1.5.4s-.8,0-1.2.3c-.2,0-.3.2-.4.4h0M13.4,99c-2.3.7-5.5-.8-5.5-.8-.2-.1-.5,0-.7,0s-.3.4-.4.6c0,.2,0,.7-.4.8-.4.1-1,0-1.6-.9s-.5-.8-.4-1c0-.2.2-.4,1-.7.5-.2.8-.4.8-.8.2-.6-.3-1-.6-1.3l-.2-.2c0-.1.2-.3.4-.5.2-.2.4-.6.2-.8-.2-.4-.2-.6-.1-.8,1-.2,2.4-1.8,2.4-1.8.2-.2.2-.4.1-.7-.2-1.1-3.8-3.3-3.8-3.3-.8-.5-1.2-1-1.7-1.5-.2-.3-.5-.6-.8-.8-.3-.3-.4-2.1-.2-3.7.1-.8.4-1.4.8-1.7.7-.5,1.8-.2,2.2,0,.2,0,.4.1.6,0h.5q0,0,0,0c.2.2.2.3.2.4,0,.2.1.4.3.6.2.4.7,1,1.2,1.8.4.6.8,1.1,1.1,1.5.4.6,1.1,2,2.1,4,.1.3,0,1.5-.2,2.6v.4c-.2.5-.3,1.1,0,1.2.3.2.7,0,1.1-.8.1,0,.2-.1.3-.2h0s.2-.2,2,.1h0c.7.2,1.8.6,2.2,1,.2.2.4.4.8.8.8.8,1.8,1.8,2.6,2.4.6.4,1.1.6,1.6.8-.4.7-.7,1.6-.6,2.5-1.6,0-2.7.2-3.2.6-.5.3-2.4.4-3.9.3h-.2M3.3,78c-.4,0-.7.2-1,.4-.2.1-.3.2-.4.4-.4-.4-.8-.7-1.1-1h0c.2-.3,1.1-.8,1.9-.8s.5.5.6,1.1M6.9,77.1c1.8-1.7,2.4-1.7,2.6-1.5,0,0,0,.4-.6,1.3-.3.6-.6,1.1-.6,1.6-.4.2-.8.3-1.1.4,0-.1-.1-.3-.3-.5-.1-.2-.2-.2-.4-.3,0-.2,0-.6.4-1M20.8,80.4l.2-.2c.2-.3.7-.9.9-.9,0,0,.1,0,.3.2.3.3.6.6.9,1,.6.7,1.2,1.4,2.1,1.7.1,0,.8.3,1.6,2.2.2.3.4.6.8.7,0,.2.2.4.4.6.9.8,1.8.9,2.5,1,.6,0,1.1.1,1.4.5,1.1,1.1,2.1,1.8,3,2.2.4.2,1,.6,1.4,1-1.7.2-3.1,1.6-3.5,3.8h0c-.6-.2-1.5-.4-2.4-.7,0-.2,0-.4-.2-.8-.2-.7-1.2-1.4-1-.8v1.4c-.7-.2-1.3-.3-1.9-.3,0-.2,0-.3-.2-.5-.4-.5-.5-.4-.5-.2,0,0-.2.4,0,.7-.8,0-1.7.3-2.4.6v-.9c-.1-.4-.2-.9-.4-.6,0,0-.4.4-.4,1s.2.6.3.7c-.9.4-1.6,1-1.8,1.4h0c-.4,0-1-.2-1.5-.7-.5-.4-1.2-1-1.8-1.7,0-.4.2-1.2,0-1.4-.2-.2-.6,0-.8.6-.3-.3-.6-.6-.7-.7-.1,0-.2-.2-.4-.3,0-.3,0-.9-.2-.9s-.4.3-.5.6c-.6-.2-1.2-.5-1.6-.6h-.3c.1-.3.3-.9,0-.8-.2,0-.6.4-.8.7-.6,0-1.2,0-1.6.1.1-.5.3-1.5.2-2.2h0c1.2-1,4.9-3.9,5.7-4.5.2-.2.5-.4.8-.6.8-.6,1.7-1.3,2.3-2M28.5,84.4h0c.3-.8,1.1-1.5,1.7-1.9.3-.2.4-.2.5-.2h0c.4.4.7.4,1,.4s.4-.1.6-.3c.9-.6,1.7-.3,1.7-.3h.3c1.4,0,1.8.7,2.6,2,.2.2.3.5.5.8.9,1.2,2.8,2.2,4.6,2.9h0s-.3.3,0,.7,1.1,1.5,1.2,1.2c.1-.3-.2-1.2-.3-1.5.2,0,.4.2.6.2.4.1.7.3,1,.4,2,.8,3.6,1.1,5.7-.2,1.4-.9,2-.5,2.4,0,.5.7,1.3,1,2.1,1.4.4.2.8.3,1.1.5.4.2.4.4.4.4h0s-.4,1.5-.9,3.3c-.3,1-.9,1.1-1.2,1.1-3.2-1.3-5.2.2-6.6,1.3-.5.4-1,.8-1.3.8s-.5,0-.7-.2c0,0,0-.1-.2-.2-.1-.2-.2-.3-.4-.5,0-.1-.2-.3-.2-.4-.2-.4-.5-1-.8-1.4-.8-1.2-3.6-2.8-5.2-3.6-.3-.3-.7-.6-1.2-.7-.6-.6-1.7-1.6-2.5-1.9s-1.7-1-2.7-2c-.4-.4-.7-.5-1.1-.6,0-.5-.2-1.2-.5-1.2s-.5.7-.6,1.1c-.6,0-1.1-.2-1.8-.7,0,0,0,0,0-.2v-.3h0l.2-.2ZM63.7,83.9h.2c0,.2-.2.7.3.6.7,0,1.2-.4.6-1.2.2-.4.7-1.1.7-1.1,0-.1.1-.3.1-.4v-.2h.4c.3.1.6,0,.8-.2s.4-.3.4-.3c0,0,.2.1.2.3.1.3.4.5.7.5s0,0,0,0c0,.1,0,.4-.1.9,0,.4-.2.8-.1,1.2-.2.2-.7.4-1.3.5-.3,0-.5.3-.6.6,0,.3,0,.6.3.7,0,.2-.2.6-.2.7-.2.7-.6,1.5-.2,2.4,0,.1-.1.3-.4.5-.4.3-1.1.8-1.5,1.7-.6.8-2.1,1.5-3.9,2-1.7.4-2.3,2.4-2.3,2.5v.5c-.7.2-2.4.6-2.7-.4.4-.2.8-.6,1-1.4.5-1.7.9-3.1.9-3.2v-.5c.2-.3.5-1,.8-2.4.3-1.6,1.4-2.2,3-3.2l.7-.4c1.5-1,2.2-.8,2.2-.8h-.1.1ZM39.5,92.3v-.2c1.5.8,3.3,2,3.9,2.8h0c-.5-.1-1.1-.2-1.8,0-2.2.7-3,.4-4.3-.2-.3-.1-.6-.2-.9-.4-.6-.2-.8-.6-.7-1,.1-.5.6-.9.8-.9,0,0,.6.2.3,1.2,0,.4,1.3.4,1.9,0,.4-.3.8-.8.7-1.6M9.7,82.8c-.3-.4-.7-1-1.1-1.5-.4-.6-.9-1.2-1.1-1.6,1.7-.8,3.3-1.2,3.8-.9h0c.6.3.9.6,1,.9,0,.3-.2,1.2-2.5,3.3v-.2M41.8,95.9c1.4-.4,2,.1,2.6.9.2.3.4.6.6.8.5.7,1,1.3,1.9,1.4.4,0,.6.1.7.2v.2h0v.2c-.5.3-1.5.7-3.1.2h-.1s-.3.2-.2.9v.4c-.1.2-.5.2-.8.2h-.5c.4-.4.6-1.1.6-2,0-2-1.3-2.8-3.4-3.1.5,0,1.1-.2,1.8-.4M11.7,86.7c-.5-1-1-2.1-1.5-3,1-.9,1.7-1.6,2.2-2.3.4,0,1.3,0,1.8-1,0-.2.2-.4.2-.6.4.6,1,1.4,1.2,2.1.1.4.4.7.8,1-1.3,1-3.8,3-4.7,3.7M13.4,80.1c-.1.2-.3.4-.5.4.2-.4.2-.7.2-1,0-.8-.8-1.2-1.4-1.5h0c-.6-.3-1.6-.2-2.6.1,0-.2.3-.6.4-.8,0-.1.2-.2.2-.4.1,0,.2,0,.4-.2,2-.8,2.5-.3,3.4.6.5.5.4,1.4-.2,2.8M44.6,102.4v.2c0,.2,0,.7.6,1.1h0c-.2,0-1.1.2-1.8-1,.4,0,.9,0,1.3-.3M53.1,102.9h-.4c-.5-.5-1.4-1.1-2.3-1.6v-.8c-.2-.3-.8,0-1.1,0-.5-.3-.8-.4-1-.5h0c0-.3.2-.7,0-1s-.6-.5-1.3-.6c-.1,0-.2,0-.4-.1.5-.1,1-.5,1.5-.9,1.4-1,3-2.3,5.8-1.1h.4c.1.4.5.9,1.5,1-.5.5-.5,1-.4,1.8v2.1c-1.5,2-2.5,1.8-2.5,1.8M71.6,92.5c-.5,0-1.4.1-2-.2.4-4.4.8-5,1.4-5.6.3-.4.6-.8,1-1.7.8-2.1,2.5-2.5,5-3.1h.3c1.7-.5,2.7.1,3.1.4-.2.4-.6,1.2-.4,2,.2.6.7,1,1.5,1.2-.8,1.4-3.1,2.8-6.1,3.9-2.7,1-3.4,2.4-3.6,3M81.7,84.9c-.6-.2-1-.4-1.1-.7-.2-.4.1-1,.3-1.3,2.3.5,4.2-1.7,5.5-3.1.3-.3.5-.6.7-.8,1.3-1.2,2.4-2.1,4-.8,1.6,1.2,1.1,2.2-.7,4.7-.9,1.3-5.2,1.6-7.9,1.5-.3,0-.6.2-.8.5M83.7,78.9c.8-1.1,1.8-1.2,2.1-1.2v1.5l-.6.6c-1.2-.4-1.6-.7-1.6-.8v-.2M91.6,77.5c-.4-.4-.9-.6-1.3-.7,0-.8,0-1.5.1-1.8.4.2.9.3,1.3.4.3,0,1.2.4,1.3.5v.2c-.3.5-.8.9-1.3,1.4h0M92.7,73.9c-.2-.4-.2-.6-.3-.8.2,0,.3,0,.4.2.2.2.4.4.8.5h0c-.4.1-.6.3-.9.5,0-.2-.1-.3-.2-.4M.8,75.6h.4v.2c0,.2-.2.3-.3.3h-.2v-.4"/>
  <path class="st0" d="M17.9,83.7c-.4.1-1.3,1.3-.7,1.4,0,0,1.1-.6,1.3-1s-.2-.5-.6-.4"/>
  <path class="st0" d="M18.8,85.5c.5.2.8-.2,1-.7.3-.4,0-1.1-.4-.6,0,0-1.1,1.1-.6,1.2"/>
  <path class="st0" d="M20.8,86.2c.3-.4.6-1.1.5-1.5s-.4-.2-.4-.2c0,0-.9,1-.8,1.4,0,.3.4.8.7.4"/>
  <path class="st0" d="M23.1,86.6c.5-.1.3-.7.2-1.2-.2-.5-.3-.9-.5-.7,0,0-.3.4-.3.9s.2,1.2.6,1"/>
  <path class="st0" d="M35.8,20.7s-.5.2-.4.8c0,.6.2,1,1.1,1,.9-.1.2-1.6,0-1.8s-.7,0-.7,0M36.1,21.8v-.6h.1c0,.2.2.5.1.6h-.2"/>
  <path class="st0" d="M35.8,22.8s-.3.2-.2.7c0,.4,0,.9.7.9s.8-.5.7-1.1-.8-.8-1.2-.5M36.3,23.8h-.1v-.5h.1v.4"/>
  <path class="st0" d="M35.8,24.8s-.8.9-.2,1.2,1,.4,1.2-.4-.3-1.3-1-.8M36.2,25.4v.2h-.1s.1-.2.2-.3h0v.2"/>
  <path class="st0" d="M37.1,19.8s-.5,0-.4.6.4,1.3,1,1.1.6-.7.3-1.4-.6-.4-1-.3M37.6,20.9h0s-.1-.2-.2-.6h0c0,.2.2.5.2.6h0"/>
  <path class="st0" d="M37.1,22.4s-.2,1.2.4,1.2,1-.1,1-1-1.3-1.3-1.4-.2M37.9,22.9h-.2v-.4h0v-.2h0s0,.1.1.3v.3"/>
  <path class="st0" d="M37.8,23.8s-.6.2-.6.6-.3,1.3.4,1.2c.7-.1,1.3-.3,1.1-1.2-.2-1-.5-.7-1-.6M38.1,24.8l-.4.2v-.5h.3v.5"/>
  <path class="st0" d="M38.5,18.3s-.6.4-.3,1.2c.2.8.7.9,1.1.7.3-.2.6-.4.3-1.2s-.7-1.1-1-.7M38.9,18.9h0ZM39.1,19.6h-.1s0-.1-.2-.3v-.5s0,.2.1.3v.4"/>
  <path class="st0" d="M38.7,21.3c.2.6,0,1.4.7,1s.8-.6.6-1.4c-.2-1-1.5-.2-1.3.4M39.5,21.6h0v-.3h.1v.4"/>
  <path class="st0" d="M39,23.4c0,.7,0,1.4.7,1.2.6-.2.9-.5.8-1.4-.2-1.2-1.5-.6-1.4.2M39.6,24v-.6h0q0-.1.1-.1h0c0,.6,0,.8-.2.8"/>
  <path class="st0" d="M57.2,27.1c-.2,0-.4.1-.7.4l-.2.2c-.4.4-1.4,1.4-1.6,1.4,0,0-.1,0-.1.1,0,0,0,.1.1.1h4c-.3-.6-1.2-1.7-1.3-2,0,0-.1-.2-.2-.3M56.8,28.5c.1-.1.2-.2.2-.2h0s.1.1.2.2h-.5.1Z"/>
  <path class="st0" d="M3,65.9c2.4,7.8,4.1,9.3,3.5,4.8s-1.4-7.9-.9-8.7.2-1.9,0-3c-.2-1.2.4-1.4-.5-4.2s.1-2.1,0-3.5c0-1.4-.6-1.4-.4-3.1s.2-4.3.2-4.3c0,0-1.5,0-1.7,1s-.2,12.9.6,17.1-1.4.1-1.7-5.1c-.3-5.2-.1-11.1-.1-11.1,0,0,.2-1.4-1.4-1.8,0,0,0,14,2.4,21.8"/>
  <path class="st0" d="M9.9,62.4c0-2.9-1.1-4.2-.6-6s.8-2.4-.1-3.9c-.9-1.4-.6-1.3-.3-3.1s-.2-4.5,0-5.9c0,0-.8-.7-1,.1s.2,10.6.8,14.5c.6,3.9-.5,2.3-.8-1-.2-2.3-.8-13.1-.8-13.1,0,0-1.1-.8-1.3,0,0,0-.2,13.1,2.2,18.1,2.5,5,2,3.2,2,.3"/>
  <path class="st0" d="M13.3,59.3c-.4-1.6-.4-1.9-.3-3.3s-.5-2.5-.7-4.3c-.2-1.9-.4-6.4-.4-8.9,0,0-.4-.4-1,0,0,0,0,6.5.4,9,.3,2.4-1-.2-1-4.3s0-5-.8-4.2c0,0-.2,12.7,3.3,16.7,0,0,1,.8.6-.7"/>
  <path class="st0" d="M12.7,41.9s-.4,11.7,2.8,14.9c3.2,3.2.8.2.8-3.5s-.9-3.4-1-4.5c0,0-.2-4.4-.4-5.7s-1.2-1.9-.8.2c.3,2.1.9,7.7.1,7.7s-.7-3.5-.7-5.6.2-3.3-.8-3.4"/>
  <path class="st0" d="M17.2,41.5s-.6-.5-.4,1.6c.2,2,.6,4-.1,4s-.4-2.6-.6-3.6c-.1-1-.3-2.3-.7-1.5,0,0,.1,7.9,2.3,11.1,2.2,3.3,2.2.8,1.2-1.2-1-1.9-1.2-4.3-1.2-6.1s-.5-4.3-.5-4.3"/>
  <path class="st0" d="M19.3,49.2c1.4,1.9,1,.3.7-1.7s-.3-5.1-.2-6.5c0,0-.4-.4-.8,0,0,0,.4,3.5,0,3.5s-.5-1.3-.6-2.6-.2-.9-.6-.7c0,0,.1,6.1,1.5,8"/>
  <path class="st0" d="M1.6,31.7s-.4,2.5-.6,6.2c-.2,3.7,0,4.3,1.5,4.3s2.2-1.2,2.5-4.1c.3-3.2.4-4.8.4-5.3s-1-1.8-1.2.2,0,8-1.3,7.7c-1.2-.2-.9-3.3-.6-5.4.2-2.1.9-4.6,0-4.8-.8-.2-.8,1-.8,1"/>
  <path class="st0" d="M6.1,32.9s-1.6,8.9,0,9c2.4,0,2-2.5,2.3-5.3.2-2.8.5-3.6,0-3.6s-.8,2.7-.8,4.1,0,3.3-.7,3.2c-.7,0-.6-2.2-.4-3.9.6-4,.3-4.5-.3-3.7"/>
  <path class="st0" d="M9.8,33.9s-.2-.4-.5-.4c0,0-.3,3.1-.4,5-.1,1.8.2,2.7,1.4,2.7s1.1-2.2,1.2-3.9.5-3.3,0-3.4c-.5-.2-.6,1.2-.6,2.3s-.2,3.7-.6,3.7-.8-.6-.7-2.4c0-1.9.2-3.5.2-3.5"/>
  <path class="st0" d="M44.7,41.4c.4-.1.4-.4.7,0q.4.4.8.4c.4,0,1,.1,1.2.4s.6.2.6.4-.4.5.5.7c1,.2,1.3.3,1.6,0,.3-.4.7-.4-.1-.8s-1.1-.4-1.7-1q-.6-.6-1-.8c-.4-.2-.9-.4-1.6-.2s-1.5.2-1.5.2c0,0-.3.2,0,.4s.1.4.5.4"/>
  <path class="st0" d="M48.9,43.8c-.3,0-.5-.3-.8-.3,0,0-.5,0-.2.4s.5.5.8.4.5-.5.2-.5"/>
  <path class="st0" d="M51.3,44.1s.6,0,1-.2.6,0,.9.1c.3,0,.6,0,.8-.3s0-.6-.3-.9-.7-.2-1,0-.2.3-.6.3-1.2.9-.8,1"/>
  <path class="st0" d="M55.1,44.3h.7c.2,0,.4,0,.2-.5-.3-.4-.2-.6-.7-.5-.5,0-.4.3-.4.3,0,0,.1.7.2.6"/>
  <path class="st0" d="M57,50.2s.3.3.4,0c0-.3,0-.8-.6-.6,0,0-.2.2,0,.4s.2.3.3.4"/>
  <path class="st0" d="M18.2,35.8c-.7,5.4,1.4,3.5,1.4,3.5,0-1.4.3-3.2.3-3.2-.2-.3-.4-.2-.5.5,0,.7,0,2.3-.6,2.2-.5-.2,0-3-.4-3.1h-.3"/>
  <path class="st0" d="M15.6,35.1s-.4,2.7-.4,3.5.4,1.4,1.5,1.4.8-1.5.9-2.7c0-1.2.2-1.8.2-1.8-.5-.2-.5,0-.7,1.4-.2,1.5-.2,2.2-.9,2.2s-.4-2.8-.2-3.5c0-.7-.4-.5-.4-.5"/>
  <path class="st0" d="M12.5,34.4s-.4,2.6-.4,4.7,2.3,1.5,2.4,0c0-1.5.5-4.2.5-4.2-.8-.6-.8,1-1,2.3-.1,1.4-.2,2.2-.9,2s-.2-3.8-.2-4.5-.4-.3-.4-.3"/>
  <path class="st0" d="M11.5,82.7c-.4.7-.2.9.2.9s.5-1.1.5-1.1c-.1-.5-.4-.5-.8.2"/>
  <path class="st0" d="M13,82.4s-.5,0-.4.8.5.9.8.8c.2-.2.1-.9.1-1.1s-.2-.7-.4-.4"/>
  <path class="st0" d="M14.2,82.2s-.1.7.2,1.1.9.7.7-.2c-.2-.9-.4-1.2-.9-.8"/>
  <path class="st0" d="M5.6,80.7c-.2-.1-.4-.2-.6.2,0,0-.2.5.3.5s.4-.6.2-.7"/>
  <path class="st0" d="M3.4,82h0s0,.5.2.5.3-.1.3-.3-.4-.4-.6-.1"/>
  <path class="st0" d="M4.2,84.7s-.3.3,0,.6c.4.2.5.2.4-.3s-.2-.5-.5-.3"/>
  <path class="st0" d="M6.6,84.7s.3.2.4,0v-.3s-.5-.1-.3.3"/>
  <path class="st0" d="M7,86.7s-.2.5.2.5.4-.4.3-.5c-.2-.2-.5-.1-.5,0"/>
  <path class="st0" d="M9.1,87.3h.4v-.4c-.1-.1-.5,0-.3.4"/>
  <path class="st0" d="M8.7,94.8s.8-1.8-.3-1.4c0,0-.5.4-.4,1.2,0,0-.5-.2-.2.5.3.7.6,1.4,1.3.7.7-.7-.4-1-.4-1"/>
  <path class="st0" d="M11.3,96s-.6.5-.4.7,1,.3,1,0-.3-1-.6-.8"/>
  <path class="st0" d="M13.9,96.5s-.7.2-.4.6,1,.4,1,.3c0,0,.4-1.1-.7-.9"/>
  <path class="st0" d="M11.9,93.4s-.8.4-.5.8c.3.3.9-.3.9-.3,0,0,.2-.6-.4-.5"/>
  <path class="st0" d="M14.3,92.6c.5.2.8-.2.8-.2,0,0-.4-1-.9-.6,0,0-.4.6,0,.8"/>
  <path class="st0" d="M17.5,96.1c.5.2.8,0,.8,0,0,0,.4-.6-1-.8,0,0-.3.6.2.8"/>
  <path class="st0" d="M25.3,95.8c0-.6-.6-.3-.6-.3,0,0-.4,0-.4.3s.5.3.5.3c0,0,.5.2.5-.3"/>
  <path class="st0" d="M25.3,99c-.3-.2-.6.2-.6.2,0,0-.2.7.5.7s.6-.5.6-.5c0,0,0-.1-.5-.4"/>
  <path class="st0" d="M28.9,98c0-.4-.4-.6-.8-.6,0,0-.7,0-.8.6s.9.6.9.6c0,0,.6-.2.6-.6"/>
  <path class="st0" d="M28.1,100.1s0,.5.6.5.5-.4.5-.4c0,0-1-.6-1.2-.1"/>
  <path class="st0" d="M31.6,98.1c.7,0,.5-.5.5-.5,0,0-.2-.3-.6-.2-.4,0-.5,0-.5.4,0,0,0,.4.7.4"/>
  <path class="st0" d="M25.1,86.9c.4,0,0-1.3,0-1.3,0,0-.3-.7-.5-.7,0,0-.6,0-.4,1s.4,1.1.8,1"/>
  <path class="st0" d="M26.6,86.3c.2.4.5.4.8.2s-.6-1.6-.6-1.6c0,0-.9-.5-.8,0,0,0,.4,1,.6,1.4"/>
  <path class="st0" d="M15,86.1c-.3,0-1.3.7-.9.8,0,0,.5.2.9-.2s.3-.6,0-.6"/>
  <path class="st0" d="M16.6,86.8s-1.2,1.1-.7,1.4c.4.2.8-.4,1-.9s0-.7-.3-.5"/>
  <path class="st0" d="M17.8,88.6c.1.4.4.8.8,0,.3-.9.2-1,0-.7,0,0-.8.4-.7.8"/>
  <path class="st0" d="M20.6,88.9c.2-1.1,0-1-.2-.7,0,0-.7.6-.6.9.2.3.6.9.8-.2"/>
  <path class="st0" d="M22.7,90.4c.6,0,.4-.9.2-1.5s-.3-.7-.5-.7c0,0-.4,0-.3.7,0,.8,0,1.4.6,1.5"/>
  <path class="st0" d="M24.8,88.6s-.6,1.2.2,1.8c.8.5.5-.4.4-1-.2-.6-.4-1.1-.5-.8"/>
  <path class="st0" d="M27.1,88.5s-.4,0-.3.6.4,1.3,1,1.2-.4-1.5-.8-1.8"/>
  <path class="st0" d="M30.6,90.1c.4-.7-1.4-2-1.6-1.8,0,0-.5.3,0,.8.5.6,1.3,1.6,1.6,1"/>
  <path class="st0" d="M32.7,89.7c.4-.2-.6-1.3-.6-1.3,0,0-.8-.8-1-.6,0,0-.4.5.2,1.1s1,1,1.4.8"/>
  <path class="st0" d="M20.9,91.6s-1.1,1.6-.4,1.8c.7.3.8-1.1.7-1.7,0-.6-.3-.2-.3-.2"/>
  <path class="st0" d="M31.4,91.2s.4.8.5,1.1.4.9.8.4.1-.7-.2-1.2c-.4-.4-1.2-.8-1-.3"/>
  <path class="st0" d="M8.3,28.3s-1.1-.2-1.6,1c-.4,1.2-.1,1.7.1,1.7s.4-1.2.7-1.1c.3.1-.4,1.2,0,1.3.4.1.6-1.2.9-1s-.3,1.2.2,1.3c.5.1,1.2-2.6-.4-3"/>
  <path class="st0" d="M11.5,29.4s-1-.2-1.4.9,0,1.6.2,1.5.3-1.1.6-1c.3,0-.3,1.1.1,1.2.4,0,.5-1.1.8-1s-.3,1.1.2,1.2c.4.1,1-2.4-.5-2.8"/>
  <path class="st0" d="M5.1,30c.6.2,1.7-3-.3-3.7,0,0-1.4-.4-2.1,1-.6,1.4-.3,2,0,2s.6-1.4,1-1.3-.6,1.4,0,1.5c.6.2.8-1.4,1.3-1.2.4.2-.5,1.4,0,1.6"/>
  <path class="st0" d="M14.4,30.5s-.9-.2-1.2.8-.1,1.4,0,1.3.3-1,.6-.9c.2,0-.3.9,0,1,.3,0,.5-.9.7-.8.3,0-.3.9.1,1,.4.1.9-2.1-.4-2.4"/>
  <path class="st0" d="M17.3,33.4c.3,0,.8-1.7-.3-2,0,0-.7-.2-1,.6s0,1.1,0,1.1c.2,0,.2-.8.4-.7s-.2.8,0,.8c.3,0,.4-.8.6-.7.2,0-.2.8.1.8"/>
  <path class="st0" d="M19.9,34c.3,0,.5-1.8-.6-1.9,0,0-.8,0-.9.8-.2.8,0,1.1.2,1.1s.2-.8.4-.8-.1.8.2.8.3-.8.5-.8-.1.8.2.8"/>
  <path class="st0" d="M3.3,32.3c-.2,1-1,7.2-.5,7.3.6.1.5-2.7.6-4.1.2-1.4.4-3.6.4-3.6,0,0-.4-.7-.5.4"/>
  <path class="st0" d="M7.1,33.6c-.1.8-.8,5.7-.4,5.7s.4-2.1.5-3.2c.1-1.1.3-2.8.3-2.8,0,0-.3-.6-.4.3"/>
  <path class="st0" d="M10.3,34.5c0,.6-.5,4.5,0,4.5s.2-1.7.3-2.6c0-.9.2-2.2.2-2.2,0,0-.3-.4-.4.2"/>
  <path class="st0" d="M13.4,34.9c-.1.5-.6,3.4-.2,3.5.4,0,.3-1.3.4-2,0-.7.2-1.7.2-1.7,0,0-.3-.3-.4.2"/>
  <path class="st0" d="M16.8,35.4s-.3-.2-.4.2-.4,2.7,0,2.7.2-1,.2-1.5.1-1.4.1-1.4"/>
  <path class="st0" d="M19.3,35.8s-.2-.2-.3.2c0,.3-.3,2.3,0,2.3s.2-.9.2-1.3.1-1.2.1-1.2"/>
  <path class="st0" d="M69.1,33.3v1.9s1,0,1-.3.4.1.4.1c0,0-.2-1.1-1.4-1.7"/>
  <path class="st0" d="M70.6,38.7c-.4,0-.7.1-.6-.8,0-.9.2-1.6-.7-1.3v3s1.3.9,2.1,0c0,0,.3-1.8-.2-3.1,0,0-.1-.1-.4.2,0,0,.3,2,0,2"/>
  <path class="st0" d="M69.2,40.9s-.2,2.2,0,2.2.8,0,.8-1.4-.5-1.2-.8-.8"/>
  <path class="st0" d="M70.9,40.6s-.3,0-.3.9-.2,1.6,0,1.6.5-.8.7-1.6,0-1-.5-.8"/>
  <path class="st0" d="M69.4,45.1c.5,0,1.3,0,1.4-.9s-.9-.6-1.6,0c0,0-.3.8.2.8"/>
  <path class="st0" d="M69.1,46.2s-.1,2.5,0,2.4c.2-.1.9-1.7,1.1-2.3s-1-.6-1.2-.1"/>
  <path class="st0" d="M68.7,62.5c.4,1.5,0,1.4-.3,1.4s-.7-2.1-1.2-.7c-.3.8-.8,2,.2,1.9s3.4,0,2.6-1.8-1.6-2.3-1.3-.8"/>
  <path class="st0" d="M71,68.6s.3-.3.2-.8-1.7-.2-1.7-.2l-3.5.2s-.4.8-.3.9h5.4"/>
  <path class="st0" d="M67.7,71.7c0-1.4-.3-2.6-1.4-2.6,0,0-1.5,0-1.6.9,0,1-.2,2.5.3,2.5s.1-1.8.5-1.8.4.7.4,1.2.7.7.6,0c0-.8-.4-1.4,0-1.2.4.1.5.2.4.9,0,.7.8,1.5.8.1"/>
  <path class="st0" d="M69.2,70.5c.4,0,.4.6.4,1.1s.6.6.6,0-.4-1.2,0-1.2.5.2.4.8c0,.6.7,1.4.7.1s-.3-2.4-1.3-2.3c0,0-1.4,0-1.4.8s-.2,2.3.3,2.3.1-1.7.4-1.7"/>
  <path class="st0" d="M33.1,86.6c.6,0,.3-2.7-.4-2.2,0,0-.3.2-.4.9,0,.6.1,1.3.7,1.3"/>
  <path class="st0" d="M35.3,86.3c-.2-1-.6-1.5-.7-1.1,0,0-.2.6,0,1.3.2.7.8.8.7-.2"/>
  <path class="st0" d="M37.5,86.6c.2-.2-.7-1.8-1-1.3,0,0-.4.2,0,.8.5.6.8.6,1,.5"/>
  <path class="st0" d="M39.7,89.8c0-.2-.5-.6-.6-.5,0,0-.4.2,0,.6s.8.2.7,0"/>
  <path class="st0" d="M41.6,89.9c.5-.2-.5-1.2-1.1-1.1,0,0-.4,0,0,.5s.6.8,1.1.6"/>
  <path class="st0" d="M43.9,93c.6.5,1,.5.7-.1s-.6-1.1-.9-.8c0,0-.4.4.2.9"/>
  <path class="st0" d="M46.8,92.5c.2-.4-.8-1.8-1.2-1.7,0,0-.5,0,0,.9.5.8,1.2,1.2,1.3.8"/>
  <path class="st0" d="M48.3,92c0-.4-.8-1.9-.8-1.4,0,0-.3,1,.2,1.5.4.5.7.4.7,0"/>
  <path class="st0" d="M50.3,91.4c0-.6-.6-1.5-.8-1.3,0,0-.5.2,0,.9.4.7,1,1,.9.4"/>
  <path class="st0" d="M51.7,90.6c1,0-.2-.8-.3-.9,0-.2-.5-.2-.5,0,0,0-.2.9.8.9"/>
  <path class="st0" d="M51.7,93.8c0-.3-.3-.6-.6-.6,0,0-.6,0-.2.5.4.5.8.4.8,0"/>
  <path class="st0" d="M53.5,93.5c-.4-.9-.6-1.4-1-1.2,0,0-.3.4.2,1,.4.6,1.2,1.1.8.2"/>
  <path class="st0" d="M54.7,92.3c-.1-.8-1.4-2.6-1.4-1.9,0,0-.1.6.3,1.2s1.2,1.5,1.1.7"/>
  <path class="st0" d="M50.7,96.3c-.2.3-.4,1.2.1,1,0,0,.9-.5.8-.8-.2-.3-.7-.4-.9-.1"/>
  <path class="st0" d="M52.5,98.3c-.5.1-1,.6-.7.9,0,0,.3.5.9,0s.3-1-.2-.9"/>
  <path class="st0" d="M60.5,99.3s-1.1.9-.2,1c.9,0,1.1-.2.8-.7-.3-.4-.3-.5-.6-.3"/>
  <path class="st0" d="M66.6,100.1c-.2,0-1.2.5-.8.9,0,0,.8.3,1.1-.2.4-.5,0-.7-.4-.7"/>
  <path class="st0" d="M69,98.3c-.4.2-.7.6,0,.9,0,0,.5,0,.8-.4s-.3-.7-.8-.5"/>
  <path class="st0" d="M65,97.8s-.9,1.2,0,1.2.5-.8.5-.8c0,0-.4-.7-.5-.4"/>
  <path class="st0" d="M65.1,95.8c-.5-.4-.7-.2-.9,0,0,0-.6,1.1.1,1.1s1.3-.8.8-1.2"/>
  <path class="st0" d="M68.6,95.5c-.1-.4-.2-.6-.6-.4,0,0-.8.6-.3.8s1,0,.9-.4"/>
  <path class="st0" d="M57.8,93s-.2.5.3.6c.6,0,.6-.3.6-.5s-.6-.4-.9,0"/>
  <path class="st0" d="M58.6,89.4s-.2.7.4.9.4-.4.4-.6-.8-.7-.8-.4"/>
  <path class="st0" d="M61.7,90.8s-.5.6-.2.7c.4.1,1.1-.5.2-.7"/>
  <path class="st0" d="M63.9,89.3c.5,0,.8-.5.1-.6,0,0-.6.6-.1.6"/>
  <path class="st0" d="M61.1,89.1s-.7,0-.3.4.5.4.7,0c.2-.5,0-.4-.4-.4"/>
  <path class="st0" d="M62.3,86.7s-.2.5.2.7.4,0,.4-.2c0-.3-.7-.8-.7-.5"/>
  <path class="st0" d="M61.6,85.7s.4.1.6,0c.3-.2-.7-.5-.6,0"/>
  <path class="st0" d="M67.2,82.8c.3-.3-.4-.6-.6-.2,0,0,.2.5.6.2"/>
  <path class="st0" d="M85.4,98.4c.7-.2,1.2-1.5,0-1.2,0,0-.6.6-.6.8s0,.6.7.4"/>
  <path class="st0" d="M80.7,96.3s-.2.8,0,.7c.3,0,.9-.2.5-.6s-.5-.3-.6-.1"/>
  <path class="st0" d="M78.5,95.3s-.6.3-.7.5c0,.2,0,.7.6.3.6-.4,1-1.2,0-.8"/>
  <path class="st0" d="M76.1,94.5s-.8.2-.5.5c.2.3.8.8,1,.2s0-1-.4-.8"/>
  <path class="st0" d="M81.5,93.5s-.6.2-.5.5c.1.2.4.5.8.2.3-.3.3-.9-.2-.7"/>
  <path class="st0" d="M83.3,95.9c.5-.1,1.2-1.3.1-1.2,0,0-.4.1-.5.5-.2.4,0,.8.4.6"/>
  <path class="st0" d="M72.1,86.2s0,.8.6.6c.5-.2.3-.6.3-.6,0,0-1-.6-.8,0"/>
  <path class="st0" d="M72,89.7c-.5-.2-.5-.3-.6-.1,0,0-.4.8,0,.8s1.1-.4.6-.6"/>
  <path class="st0" d="M74.2,87.5c0-.3-1.6.4-1,.7,0,0,.6.3.8.1.3-.2,0-.5.1-.8"/>
  <path class="st0" d="M75.8,84.2c.4,0,.4-.4.3-.7-.2-.2-.9-.3-.8.2,0,0,.1.5.6.5"/>
  <path class="st0" d="M76,85.6c1,.6.6-1,.2-.7,0,0-.6.5-.2.7"/>
  <path class="st0" d="M77.5,84.5c1,0,.5-1,0-.8,0,0-.5.4-.5.5,0,0-.4.4.4.4"/>
  <path class="st0" d="M76.3,87.3c0,.2.2.4.7.2.4-.1.4-.7,0-.6,0,0-.6.1-.6.4"/>
  <path class="st0" d="M78.6,86.7c.2,0,.2-.5.2-.8s-.1-.5-.5-.2c0,0-.2,0-.2.4s.3.8.6.7"/>
  <path class="st0" d="M87.4,81.4c.4-.3.6-.9,0-1,0,0-.4,0-.4.5s.1.8.5.5"/>
  <path class="st0" d="M88.5,81.9s.5.2.8.2.2-.5,0-.6-1.1.4-.7.5"/>
  <path class="st0" d="M90.2,79.9c.8.2.9-.8.6-.7,0,0-1.4.6-.6.7"/>
  <path class="st0" d="M88.6,79.7c.4,0,.7-.2.4-.4-.2-.2-.6-.6-.6-.4,0,0-.2.8.2.7"/>
  <path class="st0" d="M85.9,30.1c0-.8-.2-1-.3-.9,0,0-.2,2.2,0,2.3s.3-.6.3-1.4"/>
  <path class="st0" d="M74.9,35.1c-.4,0-.6-.6-.6-1.1s-.4-.7-.6-.2c0,0,0,1.9,1,1.8,1.2,0,1.4-.7,1-2.2,0,0-.2-.4-.6-.1-.4.3.3,1.6-.1,1.7"/>
  <path class="st0" d="M76.4,33.1s-.2,2.1.7,2.1,1.5-.5,1.3-2.2c0,0-.2-.5-.6-.2s0,1.8-.4,1.8-.5-.8-.5-1.2-.3-.8-.6-.2"/>
  <path class="st0" d="M79,32.5s-.2,2.2.6,2.2,1.4-.6,1.2-2.3c0,0-.2-.5-.5-.2-.4.3,0,1.9-.4,1.9s-.4-.8-.4-1.3-.3-.9-.6-.2"/>
  <path class="st0" d="M81.6,31.3v1.8s-.2,1.2,1.2,1.3c1.3,0,1-1.7,1-2.4s0-1.8-.4-1.8-.4.4-.4,1.2.2,1.7-.2,1.7-.4-.6-.4-1.4-.6-1.4-.7-.5"/>
  <path class="st0" d="M85.2,29.5s-.8-.7-.8.4-.3,4.1,1.4,4.1,1.5-2.2,1.5-3.6.3-2.9-.3-2.5c-.6.4-.6.8-.7,1.8,0,1,.2,2.7-.3,2.8-.5,0-.9,0-.8-1.6v-1.4"/>
  <path class="st0" d="M89,30.5c0-1.7,0-2.9-.3-2.9,0,0-.6,0-.6.8s-.4,4.1.8,4.7c1.1.5,2.7.2,2.7-1v-4.7c0-.7-.7-1.1-.9,0-.2,1,.4,5-.5,4.9s-1.1,0-1.2-1.8"/>
  <path class="st0" d="M89.7,27.9s-.3,3,0,3.1c.4.2.2-2,.2-2.7s-.3-1-.3-.4"/>
  <path class="st0" d="M85.4,74.6c.7,0,3-5,3.5-8.3.6-3.3.8-4.1,1.4-5.5.6-1.5,1.6-7.5,1.6-10.6s.2-5.8,0-6.3-.4-.6-.8-.3c-.5.4-1.2.2-1.1,1.6,0,1.4.2,9.8-.3,11.2s-.9,3.5-1.3,4.9-.8,3-.6,0c.3-2.9.9-3,1-4.7,0-1.8.5-3.8.4-6.4,0-2.5.1-5.7.1-5.7,0,0-1.3-1.7-1.3-.2v10.5c-.1,1.1-.5,2.7-.4,3.7.1,1.1-.4,1.4-.5,3.1s-.6,8.4-1.4,10.2-1,2.5-.3,2.6"/>
  <path class="st0" d="M84.2,66.6c.6-.4,2.7-5.5,2.9-13.4.1-7.9.4-8.7,0-9.3s-1.1-.8-1,.8-.3,12.9-.8,13c-.5.4.4-9.6.2-13.6h0s-.7-1.9-.8-.5c0,1.4,0,7.6-.2,8.1s-.8,3.1-.6,5,.4,6.7.1,7.9c-.2,1.2-.4,2.3.2,1.9"/>
  <path class="st0" d="M83.7,48.8c.1-1.7.6-5,.4-5.8,0,0-.9-.3-1,.7,0,.6,0,3.2-.2,4.1-.1.9-.1,4.8-.7,4.7s-.2-1.9,0-3.6c.2-1.7.8-3.3.4-5.7,0,0-.8-.8-.8,0s0,2.8-.2,3.1c-.2.4-.5,1.4-.4,2.7,0,1.2.2,3.2-.2,4-.5.8-.3,1.8-.5,2.8s-.4,3.3-1.3,4.8c-.9,1.4,1,1.8,3-3.6,1.9-5.5,1.5-6.5,1.7-8.1"/>
  <path class="st0" d="M78.6,43.2c0,.8,0,6.4-.5,7.3-.4,1-.6,2.9-.8,3.4s-1.2,3-1.7,3.7c-.5.8-.4,1.7.5,1.1.8-.6,3.5-4.1,3.9-7.1s.8-4.9,1-5.7c.1-.8.4-3,.1-3.1-.2-.2-.8-.4-.8.5s-.2,3.6-.7,5c-.4,1.4-.5,1.9-.5.2s.3-5.1,0-5.9c0,0-.6-.1-.6.7"/>
  <path class="st0" d="M75.8,42.3v3.1c0,2.3-1.6,6-2.4,7.9s.3,1.4,1,.8,2-2.9,2.6-4.2,1.2-7.5,1.2-7.5c0-.2-.7-.4-.9,0-.2.4-.5.5-.6,0-.2-.4-.8-.1-.8-.1"/>
  <path class="st0" d="M74.6,48.1c.4-1,.5-5.6.5-5.6,0-.7-.4-1.2-.4,0s-.5.7-.7-.4c-.2-1.1-.6,2.2-.4,3.3s-1,4.1-1.4,6,2-2.4,2.4-3.3"/>
  <path class="st0" d="M75.2,37.2c-.2,1.5,0,2-.4,1.9s0-2.4-.4-2.4-.3.9-.4,1.5c0,.6-.2,2.4.7,2.4,1.5,0,1.2-2.9,1.2-3.4s-.6-1.4-.7,0"/>
  <path class="st0" d="M78.2,36.2c-.4,0-.6.1-.5.9,0,.8.1,1.7-.3,1.6-.4-.1-.3-1-.2-1.8,0-.8-.3-.7-.3-.7,0,0-.4-.1-.4.7s-.2,3.5.7,3.5,1.3-.7,1.4-2.4c0-1.2,0-1.8-.3-1.8"/>
  <path class="st0" d="M79.9,41c1.4.1,1.2-2.4,1.2-3s.2-2.1-.2-2.1-.3.4-.3,1.1,0,2.3-.5,2.4c-.4,0-.5-.8-.4-2s.1-1.4-.1-1.4c0,0-.5,0-.5.9s-.6,4,.8,4.1"/>
  <path class="st0" d="M84,35.6c-.4-.1-.7,0-.7.8s.1,3.4-.4,3.4-.6-.7-.6-2,.4-2.1.1-2.2c0,0-.7-.4-.7.9s-.2,4.7.8,4.9,1.7-1.2,1.6-2.8.4-3,0-3.1"/>
  <path class="st0" d="M85.4,35.3s-.6,0-.6,1v3.9c0,.9.1,1.8,1,1.9.9.1,1.6-1.4,1.6-2.9s.4-4-.2-4.1-.4.4-.4,1,0,4.5-.7,4.3c-.7-.1-.8-1.8-.6-3.4.2-2-.1-1.7-.1-1.7"/>
  <path class="st0" d="M86,36s-.2-.2-.2.8-.2,2.7.1,2.7.1-.9.2-1.8c.1-.9.1-1.8-.2-1.8"/>
  <path class="st0" d="M91.7,34.6c-.5,0-.7-.2-.8.9,0,1.1-.1,4.5-.1,4.5,0,0,.1,1.3-.8,1.3s-.9-.6-.9-1.8.3-4.4-.4-4.5c0,0-.6,0-.6,1.1v4.8c0,.6.2,1.9,1.8,2.1,1.5.2,2-2,2-4.1s.4-4.2-.1-4.3"/>
  <path class="st0" d="M90,35.7s-.4-.2-.4.8-.2,3.8.1,3.8.4-.2.4-1c0-2.3.2-3.6-.1-3.7"/>
  <path class="st0" d="M73.2,8.9l.5-3.4c0-.5,0-.8-.7-.9h-.8c0-.1-.7,5-.7,5h.8c.6.2.8,0,.9-.6M72,9.1l.3-1.9h.5v-.4h-.4l.3-2h.2c.3,0,.4.2.4.5l-.5,3.5c0,.3-.2.4-.5.3h-.3Z"/>
  <path class="st0" d="M32.6,34.3s-.7,0-.7-.6v-.6h1.4c.6,0,1-.4,1-1s-.4-1-1-1h-2.6v.5s.4,0,.4.4v2s0,.3-.4.3v.4h1.9v-.4h0ZM32.8,31.5c.3,0,.5.2.5.5s-.2.5-.5.5h-.9v-1h.9Z"/>
  <path class="st0" d="M27.3,55.8h2s.4,0,.4.4h.4v-1.9h-.4s0,.7-.6.7h-.6v-1.4c0-.6-.4-1-1-1s-1,.5-1,1v2.5h.5s-.1-.4.4-.4M26.7,54.1c0-.3.2-.5.5-.5s.5.2.5.5v.9h-1v-.9h0Z"/>
  <path class="st0" d="M60.9,71.2s-.2.4-.6.1-1.6-1.2-1.6-1.2c0,0-.2-.3,0-.6l-.3-.2-1.2,1.7-.4.6c-.4.5-.3,1.2.2,1.5.3.2.7.2,1.1,0,0,.3.1.5.4.7.4.3,1,.2,1.4-.3l.8-1.1v-.2c.1,0,.4-.3.4-.3l.4-.6-.4-.3h0l-.2.2ZM57.7,72.4c-.2-.2-.3-.5-.1-.7l.5-.7c.1,0,.2,0,.4.1.1,0,.3.2.5.4l-.6.8c-.2.2-.5.3-.7.1M59.7,73.1c-.2.2-.5.3-.7.1s-.3-.5-.1-.7l.5-.7c.3.2.6.4.8.6l-.5.7Z"/>
  <path class="st0" d="M37.4,31.1c-1.1,0-2,.8-2,1.8s.9,1.8,2,1.8,2-.8,2-1.8-.9-1.8-2-1.8M37.4,34.2c-.3,0-.8-.6-.8-1.3s.5-1.3.8-1.3.8.6.8,1.3-.5,1.3-.8,1.3"/>
  <path class="st0" d="M42.8,34.3s-.7,0-.7-.6v-.6h.6l1,1.6s.6.1,1.2-.4l-.2-.2s-.4.3-.6,0c-.2-.3-.4-.7-.5-.9.5,0,1-.4,1-.9s-.5-1-1-1h-2.6v.5s.4,0,.4.4v2s0,.3-.4.3v.4h1.9v-.4h0v-.2ZM43,31.5c.3,0,.5.2.5.5s-.2.5-.5.5h-.9v-1h.9Z"/>
  <path class="st0" d="M27.2,48.9h2s.3,0,.3.4h.4v-1.9h-.4s0,.7-.6.7h-.6v-.6l1.6-1s.2-.7-.4-1.2l-.2.2s.3.4,0,.6c-.3.2-.7.4-.9.5,0-.6-.4-1-1-1s-1,.4-1,1v2.5h.5s-.1-.4.4-.4M26.7,47.2c0-.3.2-.5.5-.5s.5.2.5.5v.9h-1v-.9h0Z"/>
  <path class="st0" d="M45.6,79.4s.7.1.5.8c0,.2-.1.4-.2.6l-.6-.2-.5-1.8s-.6-.3-1.2,0v.3s.6-.2.7.2c0,.3.2.8.3,1-.5-.1-1,.2-1.2.6-.1.5.2,1,.7,1.2l1.8.5.6.2v-.4c.1,0-.3,0-.2-.5s.6-1.9.6-1.9c0,0,.2-.3.5-.2v-.4l-1.8-.5v.3h-.1v.2ZM44.3,81.5c0-.3.4-.4.6-.3l.9.2c-.1.4-.2.7-.3,1l-.9-.2c-.2,0-.4-.4-.3-.6"/>
  <path class="st0" d="M66.4,35.4s0,.4-.4.4h-2s-.4,0-.4-.4h-.4v1.9h.4s0-.7.6-.7h.6v.6l-1.6,1s-.1.6.4,1.1l.2-.2s-.3-.4,0-.6c.3-.2.7-.4.9-.5,0,.6.4,1,1,1s1-.4,1-1v-2.5h-.5.2ZM66.5,37.5c0,.3-.2.5-.5.5s-.5-.2-.5-.5v-.9h1v.9h0Z"/>
  <polygon class="st0" points="52.2 34.4 51.7 34.4 53.1 32.4 54.9 34.6 56.6 32.9 57.6 34.4 57 34.4 57 34.6 59.4 34.6 59.4 34.4 59.1 34.4 57.5 31.9 57.5 31.9 57.5 31.2 56.7 31.2 56.7 31.7 55.4 33.2 53.8 31.2 52.1 31.2 52.1 31.8 52.5 31.8 52.5 31.8 50.8 34.4 50.4 34.4 50.4 34.6 52.2 34.6 52.2 34.4"/>
  <polygon class="st0" points="62.5 34.1 62.2 34.1 62.2 31.8 62.5 31.8 62.5 31.2 60.8 31.2 60.8 31.8 61.1 31.8 61.1 34.1 60.8 34.1 60.8 34.6 62.5 34.6 62.5 34.1"/>
  <polygon class="st0" points="26.9 44.3 29.3 44.3 29.3 44.6 29.8 44.6 29.8 42.9 29.3 42.9 29.3 43.2 26.9 43.2 26.9 42.9 26.4 42.9 26.4 44.6 26.9 44.6 26.9 44.3"/>
  <polygon class="st0" points="26.9 37.7 29.9 35.8 26.9 33.4 26.9 32.8 26.4 32.8 26.4 34.5 26.9 34.5 26.9 34 28.6 35.3 26.9 36.4 26.9 36.3 26.4 36.3 26.4 38.2 26.9 38.2 26.9 37.7"/>
  <polygon class="st0" points="26.7 42.2 27.4 42.2 27.4 41.9 27.1 41.9 27.1 40.9 29.3 40.9 29.3 41.5 29.8 41.5 29.8 39.2 29.3 39.2 29.3 39.8 27.1 39.8 27.1 38.8 27.4 38.8 27.4 38.5 27.1 38.5 26.4 38.5 26.4 42.2 26.7 42.2"/>
  <polygon class="st0" points="26.9 51.9 29.3 51.9 29.3 52.2 29.8 52.2 29.8 50.5 29.3 50.5 29.3 50.8 26.9 50.8 26.9 50.5 26.4 50.5 26.4 52.2 26.9 52.2 26.9 51.9"/>
  <path class="st0" d="M57.4,75.5s-.2,0-.2-.2l-1.4-1.5h0c0-.1.3-.4.3-.4l-.3-.3-2.6,2.5.4.9.3-.3v-.7l1.1-1,1.5,1.6.2.2-.6.6.3.4,1.6-1.6-.3-.3c-.2.2-.3.2-.3.2"/>
  <path class="st0" d="M32.9,71.3l1.8-1.1h.2s.1.1.2.3l.4-.2-1.9-3-1,.3.2.4h.5s.1,0,.2.1l.8,1.2-1.9,1.2h-.2c0,.1-.3-.4-.5-.6l-.4.2,1.2,1.9.4-.2c-.1-.2-.2-.3-.2-.4,0,0,.1-.2.2-.2"/>
  <path class="st0" d="M34.8,71.2l.3.4c.2,0,.3-.1.3-.1h.2c.1,0,.2.2.3.2l.6.8-.9.7-.8-1-.4.3.8,1-.7.6-.7-.9h0v-.2h0c0-.1.2-.3.2-.3l-.3-.4-.6.8,1.9,2.4.3-.2s-.1-.2-.2-.2h0v-.2l1.8-1.4h.1s.1.1.2.3l.3-.3-2-2.5-.9.4h0l.2-.2Z"/>
  <path class="st0" d="M29.2,64.3l2.2-.7h.2s0,.1.1.3h.4c0-.1-1-3.1-1-3.1h-1l.2.6h.5s.2.3.2.4l.3,1-1.1.4-.4-1.3-.5.2.4,1.3-.8.3-.4-1.1h0v-.2h0l.2-.2-.2-.5-.8.5,1,2.9h.4v-.4h0c0-.1,0-.2.1-.2"/>
  <path class="st0" d="M28.1,60.6c.4,0,.7-.4.9-1.2,0-.2.1-.5.2-.7,0-.3.2-.5.2-.6,0,0,.2-.1.3-.2,0,0,.2,0,.2.2s.1.2.1.4v.8c0,.2-.4.4-.7.5l.2.6c.4-.2.7-.3,1-.4,0-.6.1-.8,0-1.4,0-.8-.2-1.1-.5-1.4-.2-.3-.5-.5-.8-.4-.2,0-.4.1-.6.4-.1.2-.2.6-.3,1,0,0,0,.2-.2.7,0,.3-.1.5-.2.6,0,0,0,.1-.1.1s-.3-.2-.4-.5v-1.2c0-.1.4-.2.6-.4l-.2-.6c-.4.2-.7.3-1,.3,0,.5-.1.8,0,1.3,0,.6.2,1.1.4,1.5.2.4.5.6.8.6"/>
  <path class="st0" d="M65.8,46c.2,0,0,0,.1,0h.2v1.5l-2.5-2.2s-.4-.4-.4.3v3.4l1,.3v-.7c-.3,0-.2-.2-.2-.2v-1.4l2.5,2.2s.4.2.4-.3v-3.4l-1-.2v.6h-.1Z"/>
  <path class="st0" d="M63.9,40v-.3h-.6v1.4h.6v-.3h0l.6.3v1.5c-.5.3-.6.3-.6.3v-.6h-.6v2.3h.6v-.3h.2c0-.1,2.7-1.7,2.7-1.7v-1l-2.8-1.5h0M65,41.5l.8.4-.8.4v-.8Z"/>
  <path class="st0" d="M63.9,50.5v-.3h-.6v1.4h.6v-.3h0l.6.3v1.5c-.5.3-.6.3-.6.3v-.6h-.6v2.3h.6v-.3h.2c0-.1,2.7-1.7,2.7-1.7v-1l-2.8-1.5h0M65,52l.8.4-.8.4v-.8Z"/>
  <path class="st0" d="M52.7,76.7l-.3-.5-1.2.8.3.5c.2,0,.2-.1.2-.2h0v.7l-1.2.8c-.5-.2-.6-.3-.6-.3l.5-.3-.3-.5-2,1.2.3.5c.2,0,.2-.2.3-.2h.2l2.8,1.4.8-.6-.2-3.1h0c0-.1.1-.2.2-.3M51,79l.7-.4v.8l-.7-.4Z"/>
  <path class="st0" d="M42.4,77.3l-.4.5c.1,0,.2.2.2.2h0l-.6.3-1.2-.9v-.7l.5.4.4-.5-1.9-1.4-.4.5c.2.1.2.2.2.2v.2l-.3,3.1.8.6,2.8-1.4h.1s.1,0,.3.2l.4-.5-1.2-.8h.3ZM40.3,78.8v-.9l.8.5-.8.4Z"/>
  <path class="st0" d="M61.5,64.7s0-.1.1-.3l-.6-.2-.6,1.3.6.2c0-.2.1-.2.1-.3h0l.4.5-.6,1.4h-.7s.2-.5.2-.6l-.6-.2-1,2.1.6.2c0-.2.1-.2.2-.3h.2l3.1-.4.4-.9-2-2.5h0M62.4,67.2h-.9l.3-.7s.6.7.6.7Z"/>
  <path class="st0" d="M65.5,59.8h0c0,.1-.2.1-.2.1l-2-.6h-.1v-.4h-.4c0-.1-.5,1.6-.5,1.6h.5l.9.2-.4,1.5-.9-.2h-.1v-.3h-.4c0-.1-.5,1.6-.5,1.6h.4v-.2h.1l2,.6s.2,0,.2.1v.4h.4c0,.1.5-1.6.5-1.6h-.4c0,.1-.2.1-.2.1l-.7-.2.4-1.5.7.2s.2,0,.2.1v.3h.4c0,.1.5-1.6.5-1.6h-.5"/>
</svg>